<?xml version="1.0" standalone="no"?>
<!DOCTYPE svg PUBLIC "-//W3C//DTD SVG 20010904//EN"
 "http://www.w3.org/TR/2001/REC-SVG-20010904/DTD/svg10.dtd">
<svg version="1.0" xmlns="http://www.w3.org/2000/svg"
 width="1756.000000pt" height="552.000000pt" viewBox="0 0 1756.000000 552.000000"
 preserveAspectRatio="xMidYMid meet">
<metadata>
Created by potrace 1.15, written by Peter Selinger 2001-2017
</metadata>
<g transform="translate(0.000000,552.000000) scale(0.100000,-0.100000)"
fill="#000000" stroke="none">
<path d="M6720 3410 c0 -341 1 -623 3 -626 3 -10 150 -4 160 5 4 4 -22 9 -59
10 -38 1 -72 4 -76 7 -5 3 -8 272 -8 597 0 326 0 600 0 610 0 9 -4 17 -10 17
-7 0 -10 -213 -10 -620z"/>
<path d="M10696 4005 c-3 -9 -4 -20 -1 -25 2 -4 5 -269 5 -589 1 -325 5 -581
10 -581 5 0 10 10 12 23 2 12 1 271 -2 575 -3 304 -1 560 4 569 5 10 3 20 -7
30 -13 13 -15 13 -21 -2z"/>
<path d="M11539 3408 c-1 -331 -1 -612 -1 -624 0 -25 -51 -58 -79 -51 -10 3
-19 1 -19 -4 0 -6 21 -9 48 -7 31 2 46 7 45 16 -4 16 8 15 33 -3 29 -20 38 -7
11 15 l-22 18 25 9 c14 5 51 8 83 7 31 -1 57 2 57 7 0 4 -35 9 -77 11 l-78 3
-2 600 c-2 409 -6 601 -13 603 -7 3 -11 -182 -11 -600z"/>
<path d="M3652 3993 c-6 -3 -9 -10 -5 -16 4 -7 0 -8 -11 -4 -10 4 -19 1 -23
-8 -5 -14 -7 -14 -17 1 -11 14 -13 12 -24 -13 -11 -26 -11 -26 3 -9 8 11 15
14 15 8 0 -7 -18 -25 -40 -41 -25 -18 -36 -31 -28 -34 10 -4 10 -6 1 -6 -7 -1
-13 -7 -13 -15 0 -8 -5 -18 -12 -22 -8 -5 -9 -2 -5 9 3 10 2 17 -3 17 -5 0
-10 -17 -12 -37 -2 -20 -9 -39 -17 -41 -11 -4 -12 0 -6 14 5 11 9 32 10 48 1
17 7 32 13 34 7 2 12 8 12 13 0 5 -8 4 -18 -2 -11 -7 -19 -25 -20 -43 -4 -92
-7 -111 -21 -108 -9 2 -11 -3 -7 -14 4 -10 -1 -25 -11 -36 -18 -20 -18 -20
-25 4 -6 17 -7 14 -5 -13 2 -27 -1 -35 -10 -32 -9 4 -11 0 -7 -11 4 -11 2 -16
-7 -14 -9 2 -14 -6 -14 -24 1 -14 -3 -24 -7 -22 -4 3 -8 0 -8 -6 0 -6 -5 -8
-12 -4 -9 5 -8 2 1 -9 16 -20 6 -36 -11 -19 -15 15 -28 15 -28 1 0 -5 4 -8 9
-5 5 3 11 -3 14 -14 3 -13 0 -20 -9 -20 -8 0 -11 -6 -8 -15 4 -8 1 -15 -5 -15
-6 0 -11 -6 -11 -14 0 -8 -5 -18 -12 -22 -8 -5 -9 -2 -5 9 3 10 2 17 -3 17 -6
0 -10 -15 -10 -33 0 -20 -8 -39 -20 -50 -11 -9 -17 -23 -14 -32 4 -8 1 -15 -5
-15 -6 0 -10 5 -9 11 2 6 -3 14 -10 16 -9 4 -10 -1 -2 -22 7 -20 7 -31 -1 -41
-16 -19 -29 -17 -29 4 0 14 -2 14 -9 3 -7 -10 -4 -19 7 -27 14 -10 14 -12 -5
-18 -11 -4 -28 -3 -38 1 -15 5 -17 3 -12 -11 4 -10 1 -19 -8 -22 -8 -4 -13
-10 -10 -14 3 -5 1 -11 -4 -15 -7 -4 -7 -15 0 -32 5 -14 8 -28 5 -30 -2 -3 -7
5 -11 16 -7 23 -13 25 -35 11 -10 -6 -11 -10 -2 -10 6 0 12 -10 13 -22 0 -22
1 -22 9 -3 7 17 9 17 9 3 1 -25 -3 -33 -13 -30 -5 2 -6 -4 -3 -13 4 -8 2 -15
-3 -15 -6 0 -10 -6 -10 -14 0 -8 -5 -18 -12 -22 -8 -5 -9 -2 -5 9 3 10 2 17
-3 17 -6 0 -11 -11 -11 -25 -2 -44 -4 -48 -16 -52 -16 -6 -16 2 -3 27 12 23 3
73 -12 64 -6 -4 -6 -10 1 -17 13 -13 15 -30 2 -23 -5 3 -8 -18 -7 -47 1 -39
-2 -51 -13 -49 -9 2 -11 -3 -7 -14 4 -10 -1 -25 -11 -36 -18 -20 -18 -20 -25
4 -5 15 -6 8 -4 -20 3 -34 2 -41 -9 -32 -9 8 -12 4 -10 -15 3 -27 -4 -32 -23
-13 -6 6 -15 8 -19 3 -5 -4 -2 -10 5 -12 15 -6 16 -33 1 -33 -6 0 -8 -8 -4
-19 4 -12 0 -21 -11 -25 -13 -5 -15 -2 -11 13 3 13 1 18 -8 15 -14 -6 -15 -36
0 -46 5 -4 16 -1 24 5 8 7 12 8 9 2 -4 -7 55 -9 170 -8 l177 1 0 33 c0 18 6
34 13 37 6 2 10 8 6 13 -3 5 2 12 10 15 9 3 16 14 16 24 0 10 6 25 13 32 25
26 48 69 42 78 -3 6 1 7 9 4 18 -7 21 -20 6 -29 -13 -8 -13 -42 1 -51 7 -4 9
0 5 14 -5 14 1 29 19 48 18 20 22 30 13 35 -17 11 -18 51 -1 45 8 -4 11 -1 8
5 -4 5 6 15 23 21 26 10 28 14 22 43 -5 23 -4 32 5 32 7 0 11 -6 8 -14 -4 -9
0 -11 11 -7 9 3 13 11 9 17 -3 6 -1 7 6 3 9 -6 9 -11 -1 -23 -10 -12 -9 -17 3
-27 9 -6 14 -17 12 -23 -3 -7 0 -13 6 -13 6 0 11 7 11 15 0 21 38 19 43 -2 4
-16 5 -16 6 -1 1 15 23 17 232 18 161 0 235 -3 245 -11 10 -8 14 -8 14 0 0 19
17 12 23 -9 3 -11 1 -20 -4 -20 -5 0 -9 -5 -9 -11 0 -5 5 -7 10 -4 6 3 10 -3
10 -14 0 -12 5 -21 11 -21 7 0 9 10 5 25 -4 14 -4 25 -1 25 12 0 28 -57 30
-103 2 -53 10 -66 27 -49 17 17 38 15 32 -3 -4 -9 0 -15 8 -15 7 0 14 -10 15
-22 0 -13 -1 -17 -4 -10 -5 14 -23 17 -23 3 0 -15 33 -22 42 -9 5 9 8 4 8 -14
0 -16 5 -28 10 -28 6 0 10 -9 10 -21 0 -12 4 -17 11 -13 7 4 6 -2 -2 -17 -10
-20 -10 -22 2 -13 9 7 74 11 174 12 l160 1 0 25 c1 14 -5 28 -12 30 -7 3 -13
12 -13 21 0 8 -4 15 -8 15 -5 0 -7 12 -5 28 4 23 -1 30 -32 46 -19 11 -34 24
-32 30 2 6 -7 27 -20 46 -12 19 -23 41 -23 50 1 8 7 2 15 -15 7 -16 14 -24 14
-17 2 26 -19 51 -36 45 -10 -4 -14 -2 -10 4 4 6 0 13 -8 17 -8 3 -15 12 -15
21 0 8 -4 15 -10 15 -5 0 -10 6 -10 13 0 7 -8 22 -18 33 -9 10 -17 29 -16 42
1 16 -3 21 -12 18 -10 -4 -14 3 -14 20 0 18 -7 28 -20 31 -25 7 -22 36 4 41
11 3 16 0 11 -7 -3 -6 -11 -9 -16 -6 -5 4 -9 1 -9 -5 0 -7 7 -10 15 -6 9 3 15
0 15 -10 0 -8 4 -12 10 -9 6 3 7 -1 4 -10 -4 -9 0 -21 9 -28 8 -7 17 -19 20
-27 2 -8 3 -3 1 13 -3 19 1 27 12 27 10 0 13 -6 10 -17 -7 -22 8 -48 22 -40
14 9 23 82 14 107 -8 21 -10 21 -24 6 -20 -19 -38 -21 -38 -3 0 8 -3 7 -10 -3
-7 -12 -12 -12 -22 -2 -9 9 -9 12 0 12 19 0 -7 35 -41 55 -21 13 -27 14 -21 4
12 -20 14 -38 3 -45 -5 -3 -9 4 -9 15 0 10 -6 21 -12 24 -10 3 -10 7 0 19 10
12 10 17 1 20 -9 3 -9 9 -1 24 10 17 11 17 12 2 0 -10 4 -18 10 -18 6 0 6 9 1
23 -5 12 -14 21 -20 20 -6 -2 -11 1 -11 6 0 4 -14 7 -31 5 -21 -3 -29 0 -26 9
6 18 -11 47 -30 47 -10 0 -14 6 -10 19 3 12 -1 22 -9 25 -8 3 -14 12 -14 21 0
8 -5 15 -10 15 -12 0 -9 22 5 33 6 5 0 6 -12 2 -18 -5 -20 -2 -16 15 3 11 10
20 15 20 5 0 6 5 2 11 -5 8 -10 6 -16 -5 -5 -9 -14 -14 -19 -10 -6 3 -5 12 3
22 10 12 10 14 0 8 -7 -4 -14 -1 -17 8 -17 53 -16 51 -25 36 -8 -12 -10 -10
-10 8 0 13 -4 20 -10 17 -5 -3 -10 3 -10 14 0 11 -4 22 -9 25 -4 3 -6 17 -4
31 3 13 9 22 14 19 5 -3 9 0 9 5 0 13 -10 14 -29 2 -8 -5 -10 -14 -6 -21 5 -9
4 -11 -3 -6 -7 4 -12 14 -12 22 0 8 -5 14 -11 14 -7 0 -9 11 -5 30 4 25 2 32
-14 38 -19 7 -20 9 -20 37 0 8 -4 15 -10 15 -5 0 -6 -7 -3 -17 4 -11 3 -14 -5
-9 -7 4 -12 14 -12 22 0 8 -7 14 -15 14 -8 0 -30 9 -50 20 -34 19 -107 32
-133 23z m68 -464 c0 -5 -4 -7 -10 -4 -5 3 -10 -1 -10 -9 0 -21 9 -20 33 2 19
16 20 16 14 0 -4 -11 -2 -17 6 -15 7 1 12 -9 11 -25 0 -29 11 -37 19 -15 3 7
6 5 6 -5 1 -9 -7 -22 -16 -27 -10 -6 -12 -11 -5 -11 6 0 12 -6 12 -14 0 -8 4
-18 10 -21 7 -4 7 3 0 19 -6 17 -6 26 0 26 6 0 10 -7 10 -16 0 -8 5 -12 11 -9
6 4 13 -2 16 -14 3 -12 10 -21 15 -21 6 0 8 -7 4 -15 -3 -8 2 -19 12 -24 9 -5
13 -13 8 -18 -5 -4 -11 -3 -13 4 -2 7 -11 9 -20 6 -9 -4 -14 -2 -11 3 3 5 -3
18 -13 28 -19 19 -19 19 -19 -8 0 -18 4 -25 12 -20 7 4 8 3 4 -4 -4 -7 -45
-11 -115 -10 l-109 1 -6 40 c-4 22 -4 42 -1 45 3 3 5 0 5 -6 0 -7 4 -12 9 -12
6 0 9 12 8 28 -1 19 3 27 15 27 9 0 20 4 24 8 4 4 2 7 -4 7 -7 0 -12 5 -12 11
0 5 5 7 10 4 7 -4 9 2 4 19 -5 21 -3 26 14 26 11 0 25 7 32 15 14 17 40 20 40
4z"/>
<path d="M9460 3419 c0 -349 3 -518 10 -514 14 8 13 1035 0 1035 -6 0 -10
-192 -10 -521z"/>
<path d="M10838 3420 c1 -311 6 -479 12 -475 16 10 13 955 -2 955 -10 0 -12
-101 -10 -480z"/>
<path d="M6622 3885 c-1 -5 -2 -255 -2 -555 0 -468 2 -547 15 -559 13 -14 15
51 13 554 l-3 570 -5 -480 -5 -480 -5 480 c-3 264 -6 476 -8 470z"/>
<path d="M13580 3735 c0 -48 -34 -88 -42 -49 -3 14 -20 16 -130 15 -122 -2
-128 -1 -128 18 0 18 8 21 83 24 l82 3 -90 0 -90 -1 -3 -474 c-2 -332 1 -478
8 -485 8 -8 11 14 10 79 -1 50 -1 253 -1 453 l1 362 120 0 c75 0 120 -4 120
-10 0 -10 106 -12 143 -3 18 5 24 33 7 33 -5 0 -10 7 -10 15 0 8 5 15 12 15 6
0 9 2 6 5 -7 8 -58 -16 -58 -27 0 -4 9 -8 20 -8 21 0 27 -15 10 -25 -13 -8
-50 31 -50 54 0 11 -4 23 -10 26 -6 4 -10 -5 -10 -20z"/>
<path d="M7023 3695 c2 -6 137 -11 370 -13 333 -2 396 -7 355 -26 -10 -5 -10
-7 0 -12 6 -3 12 -20 12 -37 0 -26 -2 -29 -11 -17 -9 12 -10 12 -5 -3 3 -10 6
-21 6 -23 0 -2 6 -4 13 -4 8 0 12 20 12 65 0 58 -3 66 -20 70 -43 10 -735 10
-732 0z"/>
<path d="M7018 3410 l-3 -109 334 -1 c184 0 345 -3 357 -6 18 -5 24 -2 24 10
0 14 -35 16 -346 16 l-346 0 2 88 c2 109 2 112 -9 112 -6 0 -11 -49 -13 -110z"/>
<path d="M6998 2067 c-11 -9 -14 -18 -8 -28 11 -18 -11 -27 -51 -21 -20 3 -29
10 -29 23 0 11 -7 19 -17 19 -10 0 -14 -4 -8 -8 6 -4 10 -13 11 -19 2 -31 5
-33 29 -27 35 9 31 -1 -7 -20 -39 -20 -39 -20 -31 1 6 15 5 16 -9 3 -14 -13
-14 -16 -1 -24 9 -5 19 -4 26 3 6 6 15 11 20 11 5 0 2 -7 -7 -15 -8 -8 -19
-15 -25 -15 -6 0 -7 -7 -4 -17 5 -12 3 -14 -7 -8 -10 6 -11 4 -4 -6 5 -8 9
-68 10 -135 0 -66 4 -125 7 -131 4 -7 3 -14 -3 -18 -5 -3 -10 -11 -10 -16 0
-6 5 -7 10 -4 6 3 10 1 10 -4 0 -6 -5 -11 -12 -11 -6 0 -8 -3 -4 -7 12 -12 40
-12 55 0 8 7 12 8 9 2 -4 -6 25 -10 78 -10 64 0 87 4 94 15 6 10 10 11 10 3 0
-7 7 -10 17 -6 10 4 14 2 10 -4 -5 -7 20 -10 41 -4 1 1 -3 7 -10 15 -7 7 -18
12 -24 9 -7 -2 -15 1 -20 8 -4 8 -3 10 4 5 7 -4 12 -1 12 8 0 9 5 16 11 16 5
0 7 -4 4 -10 -3 -6 1 -7 9 -4 19 7 21 20 4 30 -7 5 -8 2 -3 -7 5 -8 4 -11 0
-6 -15 13 -12 256 2 261 7 3 12 23 11 50 0 26 -5 43 -10 40 -5 -3 -7 -20 -3
-37 l6 -32 -15 26 c-19 32 -43 45 -90 48 -15 1 -27 9 -31 21 -4 11 -11 18 -16
15 -5 -4 -9 -1 -9 6 0 8 -4 8 -15 -1 -18 -15 -20 1 -3 18 16 16 8 15 -14 -1z
m16 -152 c3 -8 11 -15 18 -14 10 0 10 2 1 6 -21 8 -15 18 12 18 17 0 24 -4 20
-14 -3 -9 0 -11 10 -8 12 5 14 -9 11 -101 -4 -100 -6 -108 -28 -119 -31 -17
-56 -16 -74 2 -19 19 -16 221 3 218 7 -2 10 4 7 12 -4 8 -2 15 4 15 5 0 12 -7
16 -15z"/>
<path d="M9143 2040 c1 -14 -3 -25 -10 -25 -16 0 -24 -10 -28 -37 -3 -12 -7
-35 -11 -50 -5 -23 -3 -28 12 -27 11 0 14 3 7 6 -7 2 -13 12 -13 20 0 11 3 13
13 5 7 -6 32 -9 56 -6 l43 5 -4 -170 -3 -169 38 -4 c44 -4 62 11 52 43 -5 14
-4 19 4 15 17 -11 22 31 19 149 l-4 110 -2 -117 c-3 -165 -22 -164 -22 1 0
132 8 161 35 125 7 -11 17 -16 21 -11 4 4 2 7 -4 7 -7 0 -12 4 -12 9 0 5 25 8
55 6 42 -3 55 0 55 10 0 9 -6 12 -15 9 -12 -5 -15 2 -15 29 0 34 -1 35 -45 42
-25 3 -74 6 -108 5 -91 -2 -93 -2 -105 23 l-12 22 3 -25z"/>
<path d="M9876 2045 c4 -8 -1 -17 -10 -21 -9 -3 -13 -11 -9 -18 14 -21 10 -56
-5 -56 -12 0 -12 -3 4 -15 10 -9 13 -14 5 -13 -7 2 -16 -3 -18 -10 -3 -7 1
-10 9 -7 10 4 13 -21 13 -125 0 -109 -2 -130 -15 -130 -13 0 -13 -2 -1 -9 8
-5 16 -19 18 -30 2 -16 -1 -19 -15 -14 -10 4 -14 2 -9 -3 11 -11 127 -12 127
-1 0 5 -4 6 -9 3 -4 -3 -7 86 -5 197 1 111 -1 206 -4 212 -4 5 -7 15 -7 20 0
6 -12 11 -27 13 -16 2 -28 8 -28 13 0 5 -4 9 -10 9 -5 0 -7 -7 -4 -15z"/>
<path d="M11180 2049 c0 -5 5 -9 10 -9 6 0 10 -7 10 -15 0 -18 -17 -20 -23 -2
-2 6 -8 9 -12 4 -5 -4 -3 -13 3 -19 8 -8 12 -68 13 -192 2 -233 1 -231 62
-231 54 0 50 -10 49 128 -1 44 3 75 8 72 5 -3 7 -12 3 -20 -3 -9 1 -15 11 -15
9 0 15 -3 14 -7 -1 -5 4 -19 11 -31 14 -27 11 -35 -12 -26 -9 3 -18 18 -20 32
-3 19 -4 16 -3 -8 1 -31 5 -36 31 -40 20 -4 30 -11 30 -23 0 -10 6 -22 13 -26
16 -10 17 -21 3 -30 -5 -4 17 -6 49 -6 l60 0 2 115 c2 63 3 146 2 183 0 52 3
67 13 63 7 -3 13 -1 13 3 0 5 -7 11 -15 15 -8 3 -15 14 -15 24 0 15 -9 21 -37
25 -20 4 -39 4 -42 1 -3 -2 -5 -54 -5 -114 0 -61 -4 -110 -9 -110 -5 0 -7 6
-4 13 2 6 -2 20 -11 30 -14 15 -13 17 1 17 11 0 17 8 17 25 0 29 -17 32 -37 8
-13 -17 -14 -16 -10 4 3 13 -1 24 -9 27 -8 3 -14 12 -14 21 0 9 -7 29 -15 45
-9 17 -11 30 -6 30 15 0 33 -28 35 -54 1 -17 7 -24 19 -23 21 2 22 11 2 27 -8
7 -12 16 -9 22 3 5 12 4 20 -3 11 -9 14 -7 14 9 0 26 -19 39 -31 21 -5 -8 -9
-11 -10 -6 -8 39 -20 55 -45 53 -32 -1 -31 -16 1 -16 41 0 28 -16 -15 -17 -29
-1 -40 2 -44 15 -6 17 -66 27 -66 11z"/>
<path d="M8565 2040 c-4 -6 -1 -10 5 -10 7 0 9 -8 4 -22 -5 -13 -7 -80 -5
-150 2 -102 -1 -133 -14 -159 -13 -24 -19 -29 -26 -18 -5 9 -4 15 2 18 7 2 6
7 -2 12 -10 6 -7 9 11 10 23 0 23 1 5 9 -13 5 -24 4 -30 -4 -5 -7 -18 -15 -28
-19 -10 -4 -15 -11 -12 -17 4 -6 -1 -7 -10 -3 -13 5 -14 7 -3 14 7 5 8 9 3 9
-15 0 -6 193 9 202 7 5 6 8 -4 8 -11 0 -15 10 -14 38 1 53 5 61 15 32 l8 -25
-2 25 c-2 21 -7 25 -35 26 -19 1 -37 7 -42 13 -5 10 -11 9 -23 -3 -8 -9 -21
-16 -28 -16 -7 0 -4 -6 6 -14 16 -12 17 -16 6 -30 -7 -9 -10 -16 -5 -16 5 0 9
-48 9 -107 0 -86 -3 -109 -15 -115 -12 -5 -12 -7 3 -7 10 -1 17 -9 17 -21 0
-16 -7 -20 -35 -20 -38 0 -44 -10 -20 -30 13 -11 14 -10 9 4 -3 9 -1 16 5 16
6 0 11 -9 11 -20 0 -11 -4 -20 -9 -20 -6 0 -9 -9 -8 -20 1 -10 3 -17 6 -15 2
3 10 0 17 -6 10 -8 11 -1 7 29 -3 26 -1 42 7 47 8 5 11 4 6 -3 -3 -6 0 -14 7
-19 7 -4 17 -16 20 -26 4 -10 11 -16 16 -12 6 3 13 0 18 -7 9 -14 183 -19 183
-5 0 4 -5 7 -12 7 -6 0 -9 2 -6 5 10 10 38 -7 32 -19 -4 -6 1 -3 11 6 16 14
16 19 5 33 -10 12 -11 18 -2 23 7 5 13 57 15 137 3 72 5 137 6 145 0 8 -1 31
-2 50 -2 31 -5 35 -29 34 -16 0 -28 5 -28 12 0 15 -28 26 -35 14z"/>
<path d="M6165 2008 c1 -21 -4 -37 -17 -48 -15 -12 -19 -30 -21 -92 -1 -43 1
-78 6 -78 4 0 5 6 1 13 -5 9 -4 9 5 1 9 -8 9 -18 0 -40 -18 -45 -22 -125 -7
-122 9 2 12 -8 11 -32 -1 -19 1 -26 4 -15 6 25 26 46 23 25 -5 -33 2 -35 108
-35 104 0 109 1 105 20 -4 17 -3 17 6 5 9 -13 11 -13 11 1 0 8 7 24 16 35 15
18 15 18 10 -5 -5 -23 12 -61 26 -61 5 0 8 7 8 16 0 8 4 13 8 10 4 -2 6 12 3
32 -4 29 -6 32 -9 12 -10 -73 -33 -29 -35 67 -1 23 -5 37 -9 30 -4 -7 -7 6 -6
27 1 26 -4 43 -15 51 -18 13 -24 31 -8 20 13 -7 18 3 25 47 6 40 -1 71 -14 63
-5 -3 -7 5 -4 19 3 19 -3 28 -32 45 -35 21 -63 30 -34 11 11 -7 -2 -10 -45
-11 -79 -3 -99 0 -103 11 -8 22 -19 8 -17 -22z"/>
<path d="M7641 2031 c-9 -6 -10 -11 -2 -15 15 -10 14 -46 -1 -46 -9 0 -9 -3 0
-12 15 -15 16 -32 2 -23 -5 3 -10 -1 -10 -10 0 -9 5 -13 10 -10 6 4 10 -41 10
-129 0 -120 -9 -170 -23 -134 -3 7 -6 -1 -6 -19 -1 -25 2 -31 14 -27 9 4 15 1
15 -7 0 -11 25 -14 120 -12 94 2 119 0 114 -10 -6 -9 -5 -9 8 0 8 7 17 11 19
8 3 -2 5 13 4 35 0 21 -4 42 -8 46 -4 5 -42 7 -83 6 -58 -2 -75 0 -72 10 6 16
48 24 48 9 0 -6 9 -11 20 -11 11 0 20 7 20 15 0 21 -73 20 -94 -1 -15 -14 -16
-14 -16 0 0 9 7 16 16 16 8 0 13 3 10 8 -2 4 14 6 36 4 22 -3 44 0 48 4 5 5
-14 9 -43 9 -29 0 -55 -4 -59 -10 -4 -5 -8 45 -8 113 0 102 2 122 15 122 8 0
15 5 15 11 0 6 -7 9 -15 5 -9 -3 -15 0 -15 9 0 8 6 12 14 9 11 -4 13 0 9 15
-5 20 -23 30 -23 13 0 -4 -9 -8 -20 -9 -25 -2 -27 14 -2 20 16 4 16 5 -1 6
-10 0 -20 -6 -23 -14 -4 -8 -11 -15 -16 -15 -6 0 -8 7 -4 15 6 17 -2 19 -23 6z"/>
<path d="M12003 2018 c-1 -48 -2 -51 -17 -39 -12 10 -13 8 -9 -8 3 -12 1 -21
-4 -21 -5 0 -8 -13 -5 -30 3 -20 0 -30 -9 -30 -10 0 -10 -3 -1 -12 18 -18 15
-33 -10 -47 -14 -7 -24 -22 -24 -36 -1 -14 2 -22 7 -19 5 3 9 13 9 24 0 10 6
20 14 23 10 4 12 0 8 -15 -3 -14 -1 -19 6 -14 6 3 13 2 17 -4 3 -5 -3 -10 -14
-10 -12 0 -21 -4 -21 -10 0 -5 -7 -10 -17 -10 -9 0 -14 -3 -10 -6 3 -4 21 -1
39 5 l33 11 -25 -21 c-14 -11 -19 -18 -12 -14 6 3 12 2 12 -3 0 -6 -7 -13 -16
-16 -15 -6 -15 -8 0 -31 9 -14 14 -25 11 -25 -4 0 1 -10 9 -22 18 -25 20 -38
7 -38 -5 0 -11 10 -14 22 -4 12 -8 20 -11 17 -13 -13 9 -49 36 -58 28 -10 29
-9 17 6 -12 14 -12 16 0 8 19 -11 201 -14 201 -3 0 5 -4 6 -10 3 -5 -3 -10 -2
-10 3 0 11 19 20 35 18 6 0 9 -5 7 -9 -1 -5 2 -6 8 -2 6 3 8 10 5 15 -3 5 -1
11 4 14 12 8 11 135 -2 160 -6 13 -6 16 2 12 6 -4 11 -2 11 3 0 6 -7 11 -15
11 -20 0 -19 27 1 47 18 18 16 89 -3 86 -7 -2 -10 4 -7 12 4 9 -1 17 -12 21
-11 4 -27 14 -36 22 -12 10 -28 12 -51 8 -18 -3 -49 -3 -68 1 -31 7 -28 9 31
14 l65 6 -81 1 c-78 2 -81 1 -81 -20z"/>
<path d="M10486 2008 c10 -16 -18 -40 -42 -34 -17 5 -24 0 -34 -24 -7 -17 -10
-33 -6 -37 3 -3 6 2 6 13 0 16 2 17 10 4 13 -18 11 -240 -2 -257 -5 -7 -5 -14
2 -18 15 -9 12 -28 -4 -22 -12 5 -13 1 -4 -24 11 -31 23 -37 32 -16 5 10 7 10
12 0 3 -7 10 -13 16 -13 6 0 4 8 -5 18 -26 29 -20 38 8 12 21 -20 36 -23 101
-24 60 -1 80 2 97 16 11 10 25 18 31 18 6 0 5 -4 -2 -9 -11 -7 -10 -9 3 -14 9
-4 13 -3 10 3 -3 6 0 10 7 10 8 1 7 5 -5 14 -11 8 -14 15 -7 18 18 6 28 70 29
186 2 113 -2 124 -49 156 l-24 16 28 0 c16 0 26 3 23 6 -10 11 -237 13 -231 2z
m110 -93 c12 -8 23 -13 25 -10 2 2 2 -33 -1 -77 -3 -44 -2 -82 3 -85 9 -5 9
-47 1 -56 -4 -3 -15 -2 -25 4 -14 7 -19 6 -19 -4 0 -7 -9 -13 -20 -13 -11 0
-20 4 -20 8 0 4 6 8 14 8 21 0 15 39 -6 46 -14 4 -18 16 -18 60 0 30 4 54 10
54 5 0 7 -7 4 -15 -4 -8 -1 -15 6 -15 6 0 8 5 5 10 -3 6 -1 10 4 10 6 0 11
-21 11 -47 0 -27 4 -53 8 -60 4 -6 6 25 5 69 -1 44 -4 83 -7 86 -4 3 -6 -4 -6
-16 0 -12 -4 -22 -10 -22 -5 0 -10 5 -10 11 0 5 -4 7 -10 4 -5 -3 -10 1 -10 9
0 9 6 16 13 16 9 0 8 3 -2 9 -11 7 -10 11 5 20 25 14 26 14 50 -4z"/>
</g>
</svg>
