<svg id="b1b51cb2-1588-4887-85e6-7413675d043b" data-name="Layer 1" xmlns="http://www.w3.org/2000/svg" viewBox="0 0 521.9 381.81"><defs><style>.adf28290-513b-4e6f-bca8-9b61436e65f4{fill:#008f77;}.ffc2cacc-152f-40a6-867d-70c04c617f98{fill:#3dbb43;}</style></defs><title>aina</title><path class="adf28290-513b-4e6f-bca8-9b61436e65f4" d="M901.27,561.83c-8.29-2.07-7.95,14.85-14.17,13.12s-7.25,3.81-7.25,3.81c3.8,4.14,5.53,16.58-4.84,20.9s-16.23-8.12-16.23-8.12c-8.29,10.36-24.88,16.23-24.88,16.23,38.35,42.84,68.4,16.24,70.48-9.67S901.27,561.83,901.27,561.83Z" transform="translate(-622.11 -332.2)"/><path class="adf28290-513b-4e6f-bca8-9b61436e65f4" d="M798,567c-21.07,18.66-47.32,13.47-47.32,13.47,23.49,15.2,55.27,0,55.27,0C801.77,574.27,798,567,798,567Z" transform="translate(-622.11 -332.2)"/><path class="ffc2cacc-152f-40a6-867d-70c04c617f98" d="M1000.42,492c49.75-7.94,71.51-69.09,60.11-111.58s-65.3-50.78-73.24-47.68c0,0-41.8,9.33-64.26,83.61,0,0,.35-50.79,32.65-74.11,0,0-21.24-4.66-56.49,7.78s-59.59,8.81-88.61,92.75S813.17,576,813.17,576s40.43-31.09,60.63-73.58c0,0,3.63-6.22,7.78,0s-22.8,84.46-129,108.82c0,0,64.77,19.69,127-52.34l2.59,2.07a405.54,405.54,0,0,0,27.47-38.86s2.76-2.08,9,2.76,66,27.64,112.62-32.13c0,0-68.4,44.22-101.22-24.18C929.94,468.55,950.67,500,1000.42,492Zm-143-42.83c11.06-14.86,24.53-2.08,24.53-2.08C869.49,465.44,857.39,449.21,857.39,449.21Z" transform="translate(-622.11 -332.2)"/><path class="ffc2cacc-152f-40a6-867d-70c04c617f98" d="M669.05,713.37H658.28l-11.9-35c-.07-.37-.33-.56-.78-.56a1,1,0,0,0-.93.56l-11.63,35H622.11q.93-3.24,4-12.9t6-18.27c2.17-6.39,3.48-9.94,4-10.66a8.32,8.32,0,0,1,3.91-2.91,15.95,15.95,0,0,1,11.17,0,8.31,8.31,0,0,1,3.89,2.91q.83,1.11,4,10.59,2,5.8,5.89,18.26Q667.33,708,669.05,713.37Z" transform="translate(-622.11 -332.2)"/><path class="ffc2cacc-152f-40a6-867d-70c04c617f98" d="M681.28,713.37H671.21V667.85h10.07Z" transform="translate(-622.11 -332.2)"/><path class="ffc2cacc-152f-40a6-867d-70c04c617f98" d="M731.35,704.2a8.76,8.76,0,0,1-3.58,7.16,12.55,12.55,0,0,1-8,2.64,12.62,12.62,0,0,1-12.31-8.94q-.3-.9-2.72-9.7-2.19-8-3.84-12.49-2.26-6.15-3.69-6a2.07,2.07,0,0,0-1.3.76,2.61,2.61,0,0,0-.38,1.51v34.19H685.46V676.83a8.66,8.66,0,0,1,3.76-7.6,14.28,14.28,0,0,1,8.32-2.24q6.78,0,10.77,6.82,2.69,4.55,5.11,14.73,2.69,11.19,3.91,13.87a2.17,2.17,0,0,0,2,1.45,1.7,1.7,0,0,0,1.29-.59,2.37,2.37,0,0,0,.54-1.64V667.47h10.14Z" transform="translate(-622.11 -332.2)"/><path class="ffc2cacc-152f-40a6-867d-70c04c617f98" d="M780.49,713.37H769.72l-11.9-35c-.07-.37-.33-.56-.78-.56a1,1,0,0,0-.93.56l-11.63,35H733.55q.93-3.24,4-12.9t6-18.27c2.17-6.39,3.48-9.94,4-10.66a8.32,8.32,0,0,1,3.91-2.91,15.95,15.95,0,0,1,11.17,0,8.31,8.31,0,0,1,3.89,2.91q.82,1.11,4,10.59,2,5.8,5.89,18.26Q778.78,708,780.49,713.37Z" transform="translate(-622.11 -332.2)"/><path class="adf28290-513b-4e6f-bca8-9b61436e65f4" d="M843.46,713.37H817.55a11,11,0,0,1-9.21-4.36,15.14,15.14,0,0,1-3.05-9.62,15.37,15.37,0,0,1,2.57-8.91,15.21,15.21,0,0,1-2.57-8.82,14.94,14.94,0,0,1,3.05-9.5,11.1,11.1,0,0,1,9.21-4.31h25.91v9.62H819.23a3.08,3.08,0,0,0-2.59,1.24,4.62,4.62,0,0,0-.95,2.91,4.35,4.35,0,0,0,.91,2.79,3.19,3.19,0,0,0,2.63,1.15h24.23v9.84H817.85a3.27,3.27,0,0,0-1.58,1.56,5.26,5.26,0,0,0-.58,2.47,4.73,4.73,0,0,0,.91,2.9,3.08,3.08,0,0,0,2.63,1.23h24.23Z" transform="translate(-622.11 -332.2)"/><path class="adf28290-513b-4e6f-bca8-9b61436e65f4" d="M886,713.37H867.85q-8.61,0-13.65-4.32a18.32,18.32,0,0,1-5.59-9.24,30.73,30.73,0,0,1-1.08-8.35c0-.69,0-1.18,0-1.47a4.17,4.17,0,0,1,.09-.76V667.85h10.07v21.37a18.27,18.27,0,0,0,2.42,9.73,8.66,8.66,0,0,0,7.72,4.54H886Z" transform="translate(-622.11 -332.2)"/><path class="adf28290-513b-4e6f-bca8-9b61436e65f4" d="M928.55,713.37H902.63a11.06,11.06,0,0,1-9.21-4.36,15.2,15.2,0,0,1-3-9.62,15.37,15.37,0,0,1,2.57-8.91,15.21,15.21,0,0,1-2.57-8.82,15,15,0,0,1,3-9.5,11.13,11.13,0,0,1,9.21-4.31h25.92v9.62H904.31a3.08,3.08,0,0,0-2.59,1.24,4.68,4.68,0,0,0-1,2.91,4.35,4.35,0,0,0,.91,2.79,3.19,3.19,0,0,0,2.63,1.15h24.24v9.84H902.93a3.27,3.27,0,0,0-1.58,1.56,5.26,5.26,0,0,0-.58,2.47,4.73,4.73,0,0,0,.91,2.9,3.08,3.08,0,0,0,2.63,1.23h24.24Z" transform="translate(-622.11 -332.2)"/><path class="adf28290-513b-4e6f-bca8-9b61436e65f4" d="M959,695.4h-9.7q-3.72,0-5.33,2.5a7.88,7.88,0,0,0-1.08,4.28c0,.63,0,1,0,1.12a1.31,1.31,0,0,0,.09.38v9.69h-9.91v-15.1a13.66,13.66,0,0,1,2.68-8.8q3.13-3.91,9.21-3.91h12.34a3.2,3.2,0,0,0,2.65-1.17,4.31,4.31,0,0,0,.93-2.77,4.56,4.56,0,0,0-.89-2.86,3.25,3.25,0,0,0-2.69-1.29H933.06v-9.62H959a11.1,11.1,0,0,1,9.21,4.28,16.2,16.2,0,0,1,0,19A11.08,11.08,0,0,1,959,695.4Z" transform="translate(-622.11 -332.2)"/><path class="adf28290-513b-4e6f-bca8-9b61436e65f4" d="M1013.63,713.37h-10.07v-18H985.33v18H975.26V667.85h10.07v17.71h18.23V667.85h10.07Z" transform="translate(-622.11 -332.2)"/><path class="adf28290-513b-4e6f-bca8-9b61436e65f4" d="M1062.77,713.37H1052l-11.89-35a.7.7,0,0,0-.79-.56,1,1,0,0,0-.93.56l-11.63,35h-10.92q.93-3.24,4-12.9t6-18.27q3.24-9.59,4-10.66a8.37,8.37,0,0,1,3.91-2.91,15.27,15.27,0,0,1,5.6-1,15.07,15.07,0,0,1,5.57,1,8.39,8.39,0,0,1,3.9,2.91c.54.74,1.89,4.27,4,10.59q2,5.8,5.9,18.26Q1061,708,1062.77,713.37Z" transform="translate(-622.11 -332.2)"/><path class="adf28290-513b-4e6f-bca8-9b61436e65f4" d="M1110.83,704.2a8.79,8.79,0,0,1-3.58,7.16,12.58,12.58,0,0,1-8,2.64,12.62,12.62,0,0,1-12.3-8.94q-.3-.9-2.72-9.7-2.2-8-3.85-12.49-2.27-6.15-3.69-6a2.1,2.1,0,0,0-1.3.76,2.61,2.61,0,0,0-.37,1.51v34.19h-10.07V676.83a8.66,8.66,0,0,1,3.76-7.6A14.31,14.31,0,0,1,1077,667q6.78,0,10.77,6.82,2.68,4.55,5.11,14.73,2.68,11.19,3.92,13.87a2.16,2.16,0,0,0,2,1.45,1.7,1.7,0,0,0,1.28-.59,2.37,2.37,0,0,0,.54-1.64V667.47h10.15Z" transform="translate(-622.11 -332.2)"/><path class="adf28290-513b-4e6f-bca8-9b61436e65f4" d="M1144,677.47h-10.29v35.9h-10v-35.9h-10.25v-9.62H1144Z" transform="translate(-622.11 -332.2)"/></svg>