<svg id="fbe9815f-f2ac-4304-a53f-941a20aad93e" data-name="b1b51cb2-1588-4887-85e6-7413675d043b" xmlns="http://www.w3.org/2000/svg" viewBox="0 0 312.82 298.22"><title>aina-foo</title><path d="M279.16,229.63c-8.29-2.07-8,14.85-14.17,13.12s-7.25,3.81-7.25,3.81c3.8,4.14,5.53,16.58-4.84,20.9s-16.23-8.12-16.23-8.12c-8.29,10.36-24.88,16.23-24.88,16.23,38.35,42.84,68.4,16.24,70.48-9.67S279.16,229.63,279.16,229.63Z" transform="translate(-128.57 0.04)" style="fill:#008f77"/><path d="M175.89,234.8c-21.07,18.66-47.32,13.47-47.32,13.47,23.49,15.2,55.27,0,55.27,0C179.66,242.07,175.89,234.8,175.89,234.8Z" transform="translate(-128.57 0.04)" style="fill:#008f77"/><path d="M378.31,159.8c49.75-7.94,71.51-69.09,60.11-111.58S373.12-2.56,365.18.54c0,0-41.8,9.33-64.26,83.61,0,0,.35-50.79,32.65-74.11,0,0-21.24-4.66-56.49,7.78s-59.59,8.81-88.61,92.75,2.59,133.23,2.59,133.23,40.43-31.09,60.63-73.58c0,0,3.63-6.22,7.78,0s-22.8,84.46-129,108.82c0,0,64.77,19.69,127-52.34l2.59,2.07a405.21,405.21,0,0,0,27.47-38.86s2.76-2.08,9,2.76,66,27.64,112.62-32.13c0,0-68.4,44.22-101.22-24.18C307.83,136.35,328.56,167.8,378.31,159.8ZM235.31,117c11.06-14.86,24.53-2.08,24.53-2.08-12.46,18.35-24.56,2.12-24.56,2.12Z" transform="translate(-128.57 0.04)" style="fill:#3dbb43"/></svg>