<svg id="ec67fbc8-3451-4205-b62f-8b8996b1455a" data-name="ig soluciones hispania" xmlns="http://www.w3.org/2000/svg" xmlns:xlink="http://www.w3.org/1999/xlink" viewBox="0 0 291.58 127.76"><defs><style>.ebdb4638-4855-41f2-a5c3-5ff72ff17e3a{fill:url(#a3e93fd5-f34f-4f60-b5eb-2acc5a0079bc);}.e0f22ad8-7339-4c34-9bbf-d4d462149da3{fill:url(#bfddac88-3d02-48ef-b58a-66b382085a15);}.bdf49f4d-96cf-4c13-a67a-126e9b9ba39e{fill:url(#b68813ef-bfe5-4c53-96d3-ee15eb89cf18);}.bcefaf50-7ab4-41d3-92a1-d0109f985a14{fill:url(#bb78a4bf-4115-45be-b87c-43a79ea38a37);}.b1872399-116d-406e-9809-b3ec43cf695f{fill:url(#fb24aff3-8507-488f-bc72-5f722e860da2);}.a13c498c-f87a-48c6-ba38-292234fd7cbe{fill:url(#aa7fd304-bbf3-4694-8d9f-934f8c41a19c);}.b40906eb-6d4b-474e-9155-fddbbd217de8{fill:url(#f8626090-d418-421c-ab68-37afb6febebe);}.a745f2e8-7233-4c42-a286-0bba45098a5d{fill:url(#e5cb2c18-bd40-42da-b876-9c566f2f51e0);}.a925bf15-0562-4fdf-be64-a1fea53175ea{fill:url(#f7082c37-0d27-4b05-a0d9-676325a18a56);}.e2a64483-5f49-433a-b2cb-967002482887{fill:url(#af7b4e38-03e4-47c8-8db4-d9cbad21b6f8);}.aed6d467-5e42-46de-bb9c-d890212968d9{fill:#f5f7f7;}.a5f61273-62a5-4ea0-b0bf-13f48c86a9cd{fill:url(#ea7a82d9-527e-48e3-ab27-f1ecd4a146ea);}.a4dca45e-5a22-429a-9ba2-ea5029d3f137{fill:url(#b8697610-ad5e-488f-abe2-2ddf1d1a9922);}.a8a7a3ab-d3ac-41bd-9dec-95217d4f2500{fill:url(#ffc150e2-0949-404a-8371-a3150a2975f6);}.a1b74294-49f4-47b2-9fdc-8fa1ad9b1c72{fill:url(#ae37949f-7116-4e5c-a710-dec5ce4043eb);}.f0badf60-9d3b-4ad1-b5cf-8e11fc1d409e{fill:url(#b2c87394-0612-4cff-af5c-e45b9ea70850);}.b8debd5d-68d6-4441-af55-e6d846cdbbd7{fill:url(#b2d0f32e-5056-4aa3-9efc-05ecbce7f28f);}.a7b30550-80ae-4206-8f33-2c5a52fea553{fill:url(#aa0cda64-caa2-4af9-b16f-128aa9c2316d);}.bc1e8a3c-3a82-4aa9-aaff-1b5fad1940bc{fill:url(#b9c3ceaf-c58d-4dc8-9335-dc54d5cc4f73);}.abeb76f9-334d-41b2-8539-c4c17f3f4ffa{fill:url(#aad8d11a-9f9e-4628-b7ba-b82dd3c9d10a);}.bde2b631-8b02-47a8-ab78-772f5abb883a{fill:#e1e3e5;}</style><linearGradient id="a3e93fd5-f34f-4f60-b5eb-2acc5a0079bc" x1="968.44" y1="448.27" x2="982.94" y2="448.27" gradientUnits="userSpaceOnUse"><stop offset="0" stop-color="#00aeef"/><stop offset="0.28" stop-color="#01abed"/><stop offset="0.46" stop-color="#06a2e5"/><stop offset="0.62" stop-color="#0d93d7"/><stop offset="0.76" stop-color="#177ec4"/><stop offset="0.81" stop-color="#1c75bc"/></linearGradient><linearGradient id="bfddac88-3d02-48ef-b58a-66b382085a15" x1="988.6" y1="448.27" x2="1002.57" y2="448.27" xlink:href="#a3e93fd5-f34f-4f60-b5eb-2acc5a0079bc"/><linearGradient id="b68813ef-bfe5-4c53-96d3-ee15eb89cf18" x1="1009.18" y1="448.27" x2="1021.95" y2="448.27" xlink:href="#a3e93fd5-f34f-4f60-b5eb-2acc5a0079bc"/><linearGradient id="bb78a4bf-4115-45be-b87c-43a79ea38a37" x1="1027.06" y1="448.38" x2="1041.03" y2="448.38" xlink:href="#a3e93fd5-f34f-4f60-b5eb-2acc5a0079bc"/><linearGradient id="fb24aff3-8507-488f-bc72-5f722e860da2" x1="1047.37" y1="448.27" x2="1061.13" y2="448.27" xlink:href="#a3e93fd5-f34f-4f60-b5eb-2acc5a0079bc"/><linearGradient id="aa7fd304-bbf3-4694-8d9f-934f8c41a19c" x1="1067.61" y1="448.27" x2="1069.57" y2="448.27" xlink:href="#a3e93fd5-f34f-4f60-b5eb-2acc5a0079bc"/><linearGradient id="f8626090-d418-421c-ab68-37afb6febebe" x1="1076.6" y1="448.27" x2="1090.57" y2="448.27" xlink:href="#a3e93fd5-f34f-4f60-b5eb-2acc5a0079bc"/><linearGradient id="e5cb2c18-bd40-42da-b876-9c566f2f51e0" x1="1097.18" y1="448.26" x2="1111.86" y2="448.26" xlink:href="#a3e93fd5-f34f-4f60-b5eb-2acc5a0079bc"/><linearGradient id="f7082c37-0d27-4b05-a0d9-676325a18a56" x1="1118.88" y1="448.27" x2="1131.65" y2="448.27" xlink:href="#a3e93fd5-f34f-4f60-b5eb-2acc5a0079bc"/><linearGradient id="af7b4e38-03e4-47c8-8db4-d9cbad21b6f8" x1="1136.48" y1="448.27" x2="1150.99" y2="448.27" xlink:href="#a3e93fd5-f34f-4f60-b5eb-2acc5a0079bc"/><linearGradient id="ea7a82d9-527e-48e3-ab27-f1ecd4a146ea" x1="968.44" y1="412.81" x2="974.39" y2="412.81" gradientUnits="userSpaceOnUse"><stop offset="0" stop-color="#00aeef"/><stop offset="0" stop-color="#03aeef"/><stop offset="0" stop-color="#0cb0ed"/><stop offset="0" stop-color="#1bb2eb"/><stop offset="0" stop-color="#30b6e8"/><stop offset="0" stop-color="#4cbae4"/><stop offset="0" stop-color="#6ec0df"/><stop offset="0" stop-color="#96c7d9"/><stop offset="0" stop-color="#c3ced3"/><stop offset="0" stop-color="#cfd0d1"/></linearGradient><linearGradient id="b8697610-ad5e-488f-abe2-2ddf1d1a9922" x1="980.65" y1="412.81" x2="1006.61" y2="412.81" xlink:href="#ea7a82d9-527e-48e3-ab27-f1ecd4a146ea"/><linearGradient id="ffc150e2-0949-404a-8371-a3150a2975f6" x1="1013.19" y1="412.81" x2="1038.07" y2="412.81" xlink:href="#ea7a82d9-527e-48e3-ab27-f1ecd4a146ea"/><linearGradient id="ae37949f-7116-4e5c-a710-dec5ce4043eb" x1="1039.2" y1="412.81" x2="1069.03" y2="412.81" xlink:href="#ea7a82d9-527e-48e3-ab27-f1ecd4a146ea"/><linearGradient id="b2c87394-0612-4cff-af5c-e45b9ea70850" x1="1074.43" y1="412.8" x2="1101.11" y2="412.8" xlink:href="#ea7a82d9-527e-48e3-ab27-f1ecd4a146ea"/><linearGradient id="b2d0f32e-5056-4aa3-9efc-05ecbce7f28f" x1="1109.16" y1="412.81" x2="1115.11" y2="412.81" xlink:href="#ea7a82d9-527e-48e3-ab27-f1ecd4a146ea"/><linearGradient id="aa0cda64-caa2-4af9-b16f-128aa9c2316d" x1="1120.27" y1="412.81" x2="1150.1" y2="412.81" xlink:href="#ea7a82d9-527e-48e3-ab27-f1ecd4a146ea"/><linearGradient id="b9c3ceaf-c58d-4dc8-9335-dc54d5cc4f73" x1="859.41" y1="416.58" x2="910.81" y2="416.58" gradientUnits="userSpaceOnUse"><stop offset="0" stop-color="#00aeef"/><stop offset="0.16" stop-color="#04a5e7"/><stop offset="0.41" stop-color="#118cd1"/><stop offset="0.61" stop-color="#1c75bc"/></linearGradient><linearGradient id="aad8d11a-9f9e-4628-b7ba-b82dd3c9d10a" x1="860.22" y1="427.32" x2="959.34" y2="427.32" xlink:href="#a3e93fd5-f34f-4f60-b5eb-2acc5a0079bc"/></defs><title>ig-hispania-b</title><g id="a33a4804-6749-431b-93f8-fe1c435a6cf9" data-name="Texto"><path class="ebdb4638-4855-41f2-a5c3-5ff72ff17e3a" d="M974.21,459.54l-1.29-.31a9.52,9.52,0,0,1-2.4-.91,10,10,0,0,1-2.08-1.52l1.19-1.73a8.3,8.3,0,0,0,2.75,1.82,8.52,8.52,0,0,0,3.26.61,6.16,6.16,0,0,0,4-1.12,3.8,3.8,0,0,0,1.4-3.16v0a3.12,3.12,0,0,0-.61-2,3.74,3.74,0,0,0-1.57-1.14,17,17,0,0,0-2.48-.7l-.09,0-.1,0-.4-.09a24.11,24.11,0,0,1-3.35-.92,4.88,4.88,0,0,1-2.14-1.63,5.14,5.14,0,0,1-.88-3.18h0a7,7,0,0,1,.83-3.5,5.34,5.34,0,0,1,2.41-2.21,8.73,8.73,0,0,1,3.82-.76,8.64,8.64,0,0,1,2.08.25,10.14,10.14,0,0,1,2,.77,12.6,12.6,0,0,1,2,1.28L981.39,441a10.19,10.19,0,0,0-2.52-1.49,6.48,6.48,0,0,0-2.43-.5,5.67,5.67,0,0,0-3.78,1.14,4,4,0,0,0-1.34,3.21h0a2.81,2.81,0,0,0,.67,2,4,4,0,0,0,1.67,1.07,26.24,26.24,0,0,0,2.71.73l.11,0,.13,0,.16,0,.16,0a17.54,17.54,0,0,1,3.12,1,4.88,4.88,0,0,1,2.07,1.71,5.3,5.3,0,0,1,.82,3.13v0a6.56,6.56,0,0,1-.86,3.46,5.49,5.49,0,0,1-2.49,2.18,9.28,9.28,0,0,1-4,.76Z" transform="translate(-859.41 -356.57)"/><path class="e0f22ad8-7339-4c34-9bbf-d4d462149da3" d="M991.8,458.58a6.15,6.15,0,0,1-2.38-2.78,10.63,10.63,0,0,1-.82-4.4v-6.26a10.68,10.68,0,0,1,.82-4.41A6.15,6.15,0,0,1,991.8,438a8,8,0,0,1,7.56,0,6.11,6.11,0,0,1,2.39,2.78,10.68,10.68,0,0,1,.82,4.41v6.26a10.63,10.63,0,0,1-.82,4.4,6.11,6.11,0,0,1-2.39,2.78,7.92,7.92,0,0,1-7.56,0Zm6.5-1.79a4.4,4.4,0,0,0,1.71-2.05,7.88,7.88,0,0,0,.59-3.24V445a7.91,7.91,0,0,0-.59-3.24,4.4,4.4,0,0,0-1.71-2.05,5.55,5.55,0,0,0-5.43,0,4.48,4.48,0,0,0-1.72,2.05,8.09,8.09,0,0,0-.58,3.24v6.47a8.06,8.06,0,0,0,.58,3.24,4.48,4.48,0,0,0,1.72,2.05,5.55,5.55,0,0,0,5.43,0Z" transform="translate(-859.41 -356.57)"/><path class="bdf49f4d-96cf-4c13-a67a-126e9b9ba39e" d="M1009.18,437.22h2v22.09h-2Zm1.4,20H1022v2h-11.37Z" transform="translate(-859.41 -356.57)"/><path class="bcefaf50-7ab4-41d3-92a1-d0109f985a14" d="M1030.15,458.64a5.52,5.52,0,0,1-2.32-2.68,11.27,11.27,0,0,1-.77-4.49V437.22h2v14.36a6.54,6.54,0,0,0,1.25,4.35,5.61,5.61,0,0,0,7.53,0,6.49,6.49,0,0,0,1.26-4.35V437.22h2v14.25a11.45,11.45,0,0,1-.77,4.49,5.55,5.55,0,0,1-2.34,2.68,8.84,8.84,0,0,1-7.77,0Z" transform="translate(-859.41 -356.57)"/><path class="b1872399-116d-406e-9809-b3ec43cf695f" d="M1052.22,459.54l-1.57-1a6.65,6.65,0,0,1-2.42-2.89,10.14,10.14,0,0,1-.86-4.33v-6.06a10.17,10.17,0,0,1,.86-4.33,6.71,6.71,0,0,1,2.42-2.89,6.9,6.9,0,0,1,6.78-.25,6.89,6.89,0,0,1,2.4,2.2,8.53,8.53,0,0,1,1.3,3.28h-2a6,6,0,0,0-1.07-2.2,5.58,5.58,0,0,0-1.74-1.49,4.51,4.51,0,0,0-4.66.25A5,5,0,0,0,1050,442a8,8,0,0,0-.62,3.25v6.06a8,8,0,0,0,.62,3.26,4.92,4.92,0,0,0,1.74,2.17,4.4,4.4,0,0,0,2.59.77,4.64,4.64,0,0,0,2.07-.5,5.11,5.11,0,0,0,1.74-1.46,6,6,0,0,0,1.07-2.26h2a8.49,8.49,0,0,1-1.31,3.29,6.81,6.81,0,0,1-2.41,2.19,6.43,6.43,0,0,1-3.13.78Z" transform="translate(-859.41 -356.57)"/><path class="a13c498c-f87a-48c6-ba38-292234fd7cbe" d="M1069.57,459.31h-2V437.22h2Z" transform="translate(-859.41 -356.57)"/><path class="b40906eb-6d4b-474e-9155-fddbbd217de8" d="M1079.8,458.58a6.09,6.09,0,0,1-2.38-2.78,10.63,10.63,0,0,1-.82-4.4v-6.26a10.68,10.68,0,0,1,.82-4.41,6.09,6.09,0,0,1,2.38-2.78,8,8,0,0,1,7.56,0,6.11,6.11,0,0,1,2.39,2.78,10.85,10.85,0,0,1,.82,4.41v6.26a10.8,10.8,0,0,1-.82,4.4,6.11,6.11,0,0,1-2.39,2.78,7.92,7.92,0,0,1-7.56,0Zm6.5-1.79a4.4,4.4,0,0,0,1.71-2.05,8,8,0,0,0,.59-3.24V445a8.08,8.08,0,0,0-.59-3.24,4.4,4.4,0,0,0-1.71-2.05,5.05,5.05,0,0,0-2.72-.71,5,5,0,0,0-2.71.71,4.42,4.42,0,0,0-1.72,2.05,8.08,8.08,0,0,0-.59,3.24v6.47a8,8,0,0,0,.59,3.24,4.42,4.42,0,0,0,1.72,2.05,4.91,4.91,0,0,0,2.71.71A5,5,0,0,0,1086.3,456.79Z" transform="translate(-859.41 -356.57)"/><path class="a745f2e8-7233-4c42-a286-0bba45098a5d" d="M1097.18,437.22h2l11.54,19.9-.81-.61V437.22h2v22.07h-2l-11.77-20.05,1.07.87v19.18h-2Z" transform="translate(-859.41 -356.57)"/><path class="a925bf15-0562-4fdf-be64-a1fea53175ea" d="M1118.88,437.22h2v22.09h-2Zm1.36,0h11.41v2h-11.41Zm0,10.1h9.91v2h-9.91Zm0,9.95h11.41v2h-11.41Z" transform="translate(-859.41 -356.57)"/><path class="e2a64483-5f49-433a-b2cb-967002482887" d="M1142.25,459.54l-1.28-.31a9.24,9.24,0,0,1-2.4-.91,10,10,0,0,1-2.09-1.52l1.19-1.73a8.4,8.4,0,0,0,2.75,1.82,8.54,8.54,0,0,0,3.27.61,6.2,6.2,0,0,0,4-1.12,3.83,3.83,0,0,0,1.4-3.16v0a3.12,3.12,0,0,0-.61-2,3.87,3.87,0,0,0-1.57-1.14,17.33,17.33,0,0,0-2.48-.7l-.09,0-.11,0-.39-.09a23.72,23.72,0,0,1-3.35-.92,4.83,4.83,0,0,1-2.14-1.63,5.07,5.07,0,0,1-.88-3.18h0a6.94,6.94,0,0,1,.82-3.5,5.36,5.36,0,0,1,2.42-2.21,9.53,9.53,0,0,1,5.9-.51,10.29,10.29,0,0,1,2,.77,12.16,12.16,0,0,1,2,1.28l-1.16,1.72a10.15,10.15,0,0,0-2.51-1.49,6.57,6.57,0,0,0-2.44-.5,5.64,5.64,0,0,0-3.77,1.14,4,4,0,0,0-1.34,3.21h0a2.77,2.77,0,0,0,.67,2,4.07,4.07,0,0,0,1.66,1.07,27,27,0,0,0,2.71.73l.12,0,.13,0,.16,0,.15,0a17.54,17.54,0,0,1,3.12,1,4.88,4.88,0,0,1,2.07,1.71,5.3,5.3,0,0,1,.83,3.13v0a6.65,6.65,0,0,1-.86,3.46,5.56,5.56,0,0,1-2.5,2.18,9.23,9.23,0,0,1-3.94.76Z" transform="translate(-859.41 -356.57)"/><g id="af0dcb2f-c829-4a80-a070-a24181556be4" data-name="hispania white"><path class="aed6d467-5e42-46de-bb9c-d890212968d9" d="M973.21,429.37h-3.59a1.14,1.14,0,0,1-1.18-1.1V397.35a1.15,1.15,0,0,1,1.18-1.11h3.59a1.15,1.15,0,0,1,1.18,1.11v30.92A1.14,1.14,0,0,1,973.21,429.37Z" transform="translate(-859.41 -356.57)"/><path class="aed6d467-5e42-46de-bb9c-d890212968d9" d="M990.9,429.71l-.24,0-2.23-.44a22.12,22.12,0,0,1-4.42-1.38,18.34,18.34,0,0,1-2.88-1.61,1.05,1.05,0,0,1-.28-1.5l1.79-2.51a1.23,1.23,0,0,1,1.67-.29,14.85,14.85,0,0,0,3.63,1.75,17.44,17.44,0,0,0,5.4.83,10.71,10.71,0,0,0,5.52-1.18,3.72,3.72,0,0,0,2-3.35v0a3.3,3.3,0,0,0-.88-2.42,5.23,5.23,0,0,0-2.29-1.32,28.41,28.41,0,0,0-3.64-.79.34.34,0,0,0-.14,0,.4.4,0,0,1-.15,0l-.44-.06a38.4,38.4,0,0,1-5.85-1.3,7.83,7.83,0,0,1-5.51-8.18v0a8.88,8.88,0,0,1,5.9-8.78,18.61,18.61,0,0,1,6.93-1.16,18.34,18.34,0,0,1,3.81.4,20.68,20.68,0,0,1,6.37,2.47,1.06,1.06,0,0,1,.39,1.5l-1.63,2.58a1.23,1.23,0,0,1-1.64.37,17.45,17.45,0,0,0-3.16-1.44,13.1,13.1,0,0,0-4.14-.71,9.91,9.91,0,0,0-5.21,1.15,3.63,3.63,0,0,0-1.84,3.25v0a3.27,3.27,0,0,0,.95,2.49,5.7,5.7,0,0,0,2.38,1.33c1,.28,2.28.58,4,.9l.19,0,.18,0,.27,0,.27.05a30.86,30.86,0,0,1,5.5,1.48,8.55,8.55,0,0,1,3.69,2.78,8.31,8.31,0,0,1,1.49,5.22v0a9,9,0,0,1-1.56,5.31,9.67,9.67,0,0,1-4.54,3.36,19.82,19.82,0,0,1-7.17,1.15Z" transform="translate(-859.41 -356.57)"/><path class="aed6d467-5e42-46de-bb9c-d890212968d9" d="M1014.38,396.24h3.46a1.15,1.15,0,0,1,1.18,1.11v30.92a1.14,1.14,0,0,1-1.18,1.1h-3.46a1.14,1.14,0,0,1-1.19-1.1V397.35A1.15,1.15,0,0,1,1014.38,396.24Zm1.62,16.17a1.15,1.15,0,0,1,1.18-1.11h10.16a4.91,4.91,0,0,0,2.47-.6,4.23,4.23,0,0,0,1.66-1.72,5.34,5.34,0,0,0,.6-2.58,5.5,5.5,0,0,0-.59-2.59,4.17,4.17,0,0,0-1.65-1.73,5,5,0,0,0-2.49-.62h-10.16a1.14,1.14,0,0,1-1.18-1.1v-3a1.15,1.15,0,0,1,1.18-1.11h10a12.34,12.34,0,0,1,5.7,1.27,9.22,9.22,0,0,1,3.83,3.56,11,11,0,0,1,0,10.65,9.2,9.2,0,0,1-3.83,3.55,12.46,12.46,0,0,1-5.7,1.25h-10a1.14,1.14,0,0,1-1.18-1.1Z" transform="translate(-859.41 -356.57)"/><path class="aed6d467-5e42-46de-bb9c-d890212968d9" d="M1052.81,396.24h2.61a1.2,1.2,0,0,1,1.11.72L1069,427.88a1.12,1.12,0,0,1-1.11,1.49h-3.72a1.19,1.19,0,0,1-1.12-.74l-7.78-20.93a1.21,1.21,0,0,0-2.23,0l-7.78,20.93a1.17,1.17,0,0,1-1.11.74h-3.72a1.11,1.11,0,0,1-1.11-1.49L1051.71,397A1.18,1.18,0,0,1,1052.81,396.24Zm-6.68,21.62h16.29a1.15,1.15,0,0,1,1.18,1.11v3a1.14,1.14,0,0,1-1.18,1.1h-16.29A1.14,1.14,0,0,1,1045,422v-3A1.15,1.15,0,0,1,1046.13,417.86Z" transform="translate(-859.41 -356.57)"/><path class="aed6d467-5e42-46de-bb9c-d890212968d9" d="M1075.62,396.24h4.46a1.2,1.2,0,0,1,1,.57L1095.62,421a1,1,0,0,1-.16,1.29h0v-25a1.15,1.15,0,0,1,1.18-1.11h3.29a1.15,1.15,0,0,1,1.18,1.11v30.89a1.15,1.15,0,0,1-1.18,1.11h-4.52a1.22,1.22,0,0,1-1-.56l-14.45-23.85a1,1,0,0,1,.16-1.29h0v24.59a1.15,1.15,0,0,1-1.18,1.11h-3.29a1.15,1.15,0,0,1-1.19-1.11V397.35A1.15,1.15,0,0,1,1075.62,396.24Z" transform="translate(-859.41 -356.57)"/><path class="aed6d467-5e42-46de-bb9c-d890212968d9" d="M1113.93,429.37h-3.58a1.14,1.14,0,0,1-1.19-1.1V397.35a1.15,1.15,0,0,1,1.19-1.11h3.58a1.15,1.15,0,0,1,1.18,1.11v30.92A1.14,1.14,0,0,1,1113.93,429.37Z" transform="translate(-859.41 -356.57)"/><path class="aed6d467-5e42-46de-bb9c-d890212968d9" d="M1133.88,396.24h2.61a1.18,1.18,0,0,1,1.1.72L1150,427.88a1.11,1.11,0,0,1-1.1,1.49h-3.72a1.18,1.18,0,0,1-1.12-.74l-7.78-20.93a1.21,1.21,0,0,0-2.23,0l-7.78,20.93a1.18,1.18,0,0,1-1.12.74h-3.72a1.11,1.11,0,0,1-1.1-1.49L1132.78,397A1.18,1.18,0,0,1,1133.88,396.24Zm-6.68,21.62h16.29a1.15,1.15,0,0,1,1.18,1.11v3a1.14,1.14,0,0,1-1.18,1.1H1127.2A1.14,1.14,0,0,1,1126,422v-3A1.15,1.15,0,0,1,1127.2,417.86Z" transform="translate(-859.41 -356.57)"/><path class="a5f61273-62a5-4ea0-b0bf-13f48c86a9cd" d="M973.21,429.37h-3.59a1.14,1.14,0,0,1-1.18-1.1V397.35a1.15,1.15,0,0,1,1.18-1.11h3.59a1.15,1.15,0,0,1,1.18,1.11v30.92A1.14,1.14,0,0,1,973.21,429.37Z" transform="translate(-859.41 -356.57)"/><path class="a4dca45e-5a22-429a-9ba2-ea5029d3f137" d="M990.9,429.71l-.24,0-2.23-.44a22.12,22.12,0,0,1-4.42-1.38,18.34,18.34,0,0,1-2.88-1.61,1.05,1.05,0,0,1-.28-1.5l1.79-2.51a1.23,1.23,0,0,1,1.67-.29,14.85,14.85,0,0,0,3.63,1.75,17.44,17.44,0,0,0,5.4.83,10.71,10.71,0,0,0,5.52-1.18,3.72,3.72,0,0,0,2-3.35v0a3.3,3.3,0,0,0-.88-2.42,5.23,5.23,0,0,0-2.29-1.32,28.41,28.41,0,0,0-3.64-.79.34.34,0,0,0-.14,0,.4.4,0,0,1-.15,0l-.44-.06a38.4,38.4,0,0,1-5.85-1.3,7.83,7.83,0,0,1-5.51-8.18v0a8.88,8.88,0,0,1,5.9-8.78,18.61,18.61,0,0,1,6.93-1.16,18.34,18.34,0,0,1,3.81.4,20.68,20.68,0,0,1,6.37,2.47,1.06,1.06,0,0,1,.39,1.5l-1.63,2.58a1.23,1.23,0,0,1-1.64.37,17.45,17.45,0,0,0-3.16-1.44,13.1,13.1,0,0,0-4.14-.71,9.91,9.91,0,0,0-5.21,1.15,3.63,3.63,0,0,0-1.84,3.25v0a3.27,3.27,0,0,0,.95,2.49,5.7,5.7,0,0,0,2.38,1.33c1,.28,2.28.58,4,.9l.19,0,.18,0,.27,0,.27.05a30.86,30.86,0,0,1,5.5,1.48,8.55,8.55,0,0,1,3.69,2.78,8.31,8.31,0,0,1,1.49,5.22v0a9,9,0,0,1-1.56,5.31,9.67,9.67,0,0,1-4.54,3.36,19.82,19.82,0,0,1-7.17,1.15Z" transform="translate(-859.41 -356.57)"/><path class="a8a7a3ab-d3ac-41bd-9dec-95217d4f2500" d="M1014.38,396.24h3.46a1.15,1.15,0,0,1,1.18,1.11v30.92a1.14,1.14,0,0,1-1.18,1.1h-3.46a1.14,1.14,0,0,1-1.19-1.1V397.35A1.15,1.15,0,0,1,1014.38,396.24Zm1.62,16.17a1.15,1.15,0,0,1,1.18-1.11h10.16a4.91,4.91,0,0,0,2.47-.6,4.23,4.23,0,0,0,1.66-1.72,5.34,5.34,0,0,0,.6-2.58,5.5,5.5,0,0,0-.59-2.59,4.17,4.17,0,0,0-1.65-1.73,5,5,0,0,0-2.49-.62h-10.16a1.14,1.14,0,0,1-1.18-1.1v-3a1.15,1.15,0,0,1,1.18-1.11h10a12.34,12.34,0,0,1,5.7,1.27,9.22,9.22,0,0,1,3.83,3.56,11,11,0,0,1,0,10.65,9.2,9.2,0,0,1-3.83,3.55,12.46,12.46,0,0,1-5.7,1.25h-10a1.14,1.14,0,0,1-1.18-1.1Z" transform="translate(-859.41 -356.57)"/><path class="a1b74294-49f4-47b2-9fdc-8fa1ad9b1c72" d="M1052.81,396.24h2.61a1.2,1.2,0,0,1,1.11.72L1069,427.88a1.12,1.12,0,0,1-1.11,1.49h-3.72a1.19,1.19,0,0,1-1.12-.74l-7.78-20.93a1.21,1.21,0,0,0-2.23,0l-7.78,20.93a1.17,1.17,0,0,1-1.11.74h-3.72a1.11,1.11,0,0,1-1.11-1.49L1051.71,397A1.18,1.18,0,0,1,1052.81,396.24Zm-6.68,21.62h16.29a1.15,1.15,0,0,1,1.18,1.11v3a1.14,1.14,0,0,1-1.18,1.1h-16.29A1.14,1.14,0,0,1,1045,422v-3A1.15,1.15,0,0,1,1046.13,417.86Z" transform="translate(-859.41 -356.57)"/><path class="f0badf60-9d3b-4ad1-b5cf-8e11fc1d409e" d="M1075.62,396.24h4.46a1.2,1.2,0,0,1,1,.57L1095.62,421a1,1,0,0,1-.16,1.29h0v-25a1.15,1.15,0,0,1,1.18-1.11h3.29a1.15,1.15,0,0,1,1.18,1.11v30.89a1.15,1.15,0,0,1-1.18,1.11h-4.52a1.22,1.22,0,0,1-1-.56l-14.45-23.85a1,1,0,0,1,.16-1.29h0v24.59a1.15,1.15,0,0,1-1.18,1.11h-3.29a1.15,1.15,0,0,1-1.19-1.11V397.35A1.15,1.15,0,0,1,1075.62,396.24Z" transform="translate(-859.41 -356.57)"/><path class="b8debd5d-68d6-4441-af55-e6d846cdbbd7" d="M1113.93,429.37h-3.58a1.14,1.14,0,0,1-1.19-1.1V397.35a1.15,1.15,0,0,1,1.19-1.11h3.58a1.15,1.15,0,0,1,1.18,1.11v30.92A1.14,1.14,0,0,1,1113.93,429.37Z" transform="translate(-859.41 -356.57)"/><path class="a7b30550-80ae-4206-8f33-2c5a52fea553" d="M1133.88,396.24h2.61a1.18,1.18,0,0,1,1.1.72L1150,427.88a1.11,1.11,0,0,1-1.1,1.49h-3.72a1.18,1.18,0,0,1-1.12-.74l-7.78-20.93a1.21,1.21,0,0,0-2.23,0l-7.78,20.93a1.18,1.18,0,0,1-1.12.74h-3.72a1.11,1.11,0,0,1-1.1-1.49L1132.78,397A1.18,1.18,0,0,1,1133.88,396.24Zm-6.68,21.62h16.29a1.15,1.15,0,0,1,1.18,1.11v3a1.14,1.14,0,0,1-1.18,1.1H1127.2A1.14,1.14,0,0,1,1126,422v-3A1.15,1.15,0,0,1,1127.2,417.86Z" transform="translate(-859.41 -356.57)"/></g></g><path class="bc1e8a3c-3a82-4aa9-aaff-1b5fad1940bc" d="M910.81,413.08c-6.08-1-11.15-5.75-11.2-11.65l-.2-27.52-40-17.34.83,82.2.76,37.82,38.76-18.69,11-5.3Z" transform="translate(-859.41 -356.57)"/><path class="abeb76f9-334d-41b2-8539-c4c17f3f4ffa" d="M921,370.3l.36,37.66-24.13,11.25c-.13.06-36.91,17.61-37,17.66l.78,39.72,60.39-28.23v36L960.68,466v-78Z" transform="translate(-859.41 -356.57)"/><path class="bde2b631-8b02-47a8-ab78-772f5abb883a" d="M931.89,459.85h-2.11V437.37h2.11Z" transform="translate(-859.41 -356.57)"/><path class="bde2b631-8b02-47a8-ab78-772f5abb883a" d="M954.44,448.36v3.31a11.64,11.64,0,0,1-.83,4.68,5.78,5.78,0,0,1-2.48,2.8,8.41,8.41,0,0,1-4.15.93,9.09,9.09,0,0,1-4.21-.88,5.64,5.64,0,0,1-2.51-2.64,10.15,10.15,0,0,1-.84-4.4v-6.63a11.55,11.55,0,0,1,.83-4.67,5.68,5.68,0,0,1,2.49-2.79,8.36,8.36,0,0,1,4.15-.93,8,8,0,0,1,3.56.74,6.21,6.21,0,0,1,2.45,2.22,10,10,0,0,1,1.36,3.72H952a8.12,8.12,0,0,0-1.07-2.57,4.38,4.38,0,0,0-1.68-1.53,5.11,5.11,0,0,0-2.34-.51,5.74,5.74,0,0,0-3,.7,4.28,4.28,0,0,0-1.78,2.11,8.92,8.92,0,0,0-.6,3.51v6.63a7.59,7.59,0,0,0,.61,3.26,4.11,4.11,0,0,0,1.81,1.94,6.35,6.35,0,0,0,3,.65,5.81,5.81,0,0,0,2.92-.67,4.06,4.06,0,0,0,1.73-2,9.32,9.32,0,0,0,.58-3.57v-1.29h-5.16v-2.07Z" transform="translate(-859.41 -356.57)"/></svg>