<svg id="b3d956f0-8db1-4892-97e3-5cd41053f0e5" data-name="ig soluciones hispania" xmlns="http://www.w3.org/2000/svg" xmlns:xlink="http://www.w3.org/1999/xlink" viewBox="0 0 216.21 217.19"><defs><style>.aee51cbe-24df-443b-9806-ae676ae200b1{fill:url(#af8d3413-f45a-4bbc-8a2a-90ff37e414ad);}.b08bf54e-98fa-47bc-8149-7d510c0cc6a5{fill:url(#a5c935f8-e2ed-4b31-a45f-7bc99039cba1);}.e3cb67eb-eeb5-4a9b-998e-62aa7813cc68{fill:url(#b52575eb-ba31-427e-99e1-1af57b024fcb);}.f023f741-742f-4470-9d9a-f2fdbaf48cf3{fill:url(#a05371be-3c02-4e58-8dec-51227528aa22);}.f2c07da2-6fc6-46ec-89c9-22927021c6cf{fill:url(#a22ce86b-419a-4d75-9b20-3f3ebd471333);}.e6fc36c8-1ace-44da-91c7-80e2610a814f{fill:url(#bc8b565d-ae9f-49dd-93d4-2cca7bf54964);}.e57576a8-6bbb-467b-aaf2-861c4a9b5753{fill:url(#a70fbf48-a3f6-48ac-aeea-879cf76966d5);}.a5624d65-2bfe-4e6e-b08f-616b2e8bd575{fill:url(#b079eabc-a83a-4364-b0ca-0388277553af);}.f6da5bf1-af65-4fe7-ab0e-79436d94a328{fill:url(#fdd5bdde-748b-49c3-b619-58673c83acba);}.b5ca3454-20de-468c-92b3-830a38792a73{fill:url(#a2fba1cd-d5da-4a6c-ba64-89032554d07c);}.f992a4df-9a5e-4565-8399-92aa0e1e337e{fill:#f5f7f7;}.ad7a89c1-433f-4fe8-a62f-fdf9ca9c8cc0{fill:url(#b76adf44-cde4-4cd5-8b11-126550744e64);}.f6b72e74-b4f3-443d-b5cb-c48740bb85ab{fill:url(#abceacf1-d397-4a6a-ba81-5d3cdbdc010a);}.b94bd65b-8318-4f32-b1f2-579e8eb1da0b{fill:url(#a206180a-9149-404a-96c0-979ccc5b6241);}.e9a1f3a3-34f5-4839-826c-7fac3a3092ea{fill:url(#b1b60ce8-ef67-492f-a5e4-34c2c8312a2f);}.fc746689-4969-4da7-816f-6677c34690ff{fill:url(#b227d540-2c08-4474-afb7-7a8521ea65e7);}.f2668d51-41af-41d3-b4a3-d7cc6ec07b7b{fill:url(#b19afa78-fb06-4083-9014-9718d06f8962);}.a9546f26-7efd-4be5-b2bb-ef2da16337ef{fill:url(#be65dc44-251a-481d-93da-42055c02c12b);}.bb46d18a-75ba-4feb-88cc-a80d7b7f2066{fill:url(#e781302f-a883-491e-bd50-465f3185647e);}.b9fe4773-8605-410c-ac6b-1b6d1e4657e2{fill:url(#a55626dd-9a0d-4e8a-9730-0fde581b8785);}.ae0b8f99-0ac9-4805-b855-c7d02f8ae46c{fill:url(#fa2bf285-2f81-4550-aa5d-0c44c4af4a14);}.b59ca457-463a-4631-bcf9-b08e88b56a99{fill:url(#b4af9646-c3ec-41e0-9f0e-8e27e13500d3);}.a72765fa-4207-4e44-8d0b-cd458527bb70{fill:url(#ee6e73e3-45ff-4f88-9c31-2a61b23c3ace);}</style><linearGradient id="af8d3413-f45a-4bbc-8a2a-90ff37e414ad" x1="853.45" y1="561.95" x2="866.82" y2="561.95" gradientUnits="userSpaceOnUse"><stop offset="0" stop-color="#00aeef"/><stop offset="0.28" stop-color="#01abed"/><stop offset="0.46" stop-color="#06a2e5"/><stop offset="0.62" stop-color="#0d93d7"/><stop offset="0.76" stop-color="#177ec4"/><stop offset="0.81" stop-color="#1c75bc"/></linearGradient><linearGradient id="a5c935f8-e2ed-4b31-a45f-7bc99039cba1" x1="872.04" y1="561.95" x2="884.93" y2="561.95" xlink:href="#af8d3413-f45a-4bbc-8a2a-90ff37e414ad"/><linearGradient id="b52575eb-ba31-427e-99e1-1af57b024fcb" x1="891.03" y1="561.95" x2="902.8" y2="561.95" xlink:href="#af8d3413-f45a-4bbc-8a2a-90ff37e414ad"/><linearGradient id="a05371be-3c02-4e58-8dec-51227528aa22" x1="907.51" y1="562.06" x2="920.4" y2="562.06" xlink:href="#af8d3413-f45a-4bbc-8a2a-90ff37e414ad"/><linearGradient id="a22ce86b-419a-4d75-9b20-3f3ebd471333" x1="926.25" y1="561.95" x2="938.94" y2="561.95" xlink:href="#af8d3413-f45a-4bbc-8a2a-90ff37e414ad"/><linearGradient id="bc8b565d-ae9f-49dd-93d4-2cca7bf54964" x1="944.92" y1="561.95" x2="946.73" y2="561.95" xlink:href="#af8d3413-f45a-4bbc-8a2a-90ff37e414ad"/><linearGradient id="a70fbf48-a3f6-48ac-aeea-879cf76966d5" x1="953.21" y1="561.95" x2="966.1" y2="561.95" xlink:href="#af8d3413-f45a-4bbc-8a2a-90ff37e414ad"/><linearGradient id="b079eabc-a83a-4364-b0ca-0388277553af" x1="972.2" y1="561.94" x2="985.74" y2="561.94" xlink:href="#af8d3413-f45a-4bbc-8a2a-90ff37e414ad"/><linearGradient id="fdd5bdde-748b-49c3-b619-58673c83acba" x1="992.21" y1="561.95" x2="1003.99" y2="561.95" xlink:href="#af8d3413-f45a-4bbc-8a2a-90ff37e414ad"/><linearGradient id="a2fba1cd-d5da-4a6c-ba64-89032554d07c" x1="1008.45" y1="561.95" x2="1021.83" y2="561.95" xlink:href="#af8d3413-f45a-4bbc-8a2a-90ff37e414ad"/><linearGradient id="b76adf44-cde4-4cd5-8b11-126550744e64" x1="805.62" y1="526.49" x2="831.23" y2="526.49" gradientUnits="userSpaceOnUse"><stop offset="0" stop-color="#00aeef"/><stop offset="0" stop-color="#03aeef"/><stop offset="0" stop-color="#0cb0ed"/><stop offset="0" stop-color="#1bb2eb"/><stop offset="0" stop-color="#30b6e8"/><stop offset="0" stop-color="#4cbae4"/><stop offset="0" stop-color="#6ec0df"/><stop offset="0" stop-color="#96c7d9"/><stop offset="0" stop-color="#c3ced3"/><stop offset="0" stop-color="#cfd0d1"/></linearGradient><linearGradient id="abceacf1-d397-4a6a-ba81-5d3cdbdc010a" x1="839.28" y1="526.49" x2="845.23" y2="526.49" xlink:href="#b76adf44-cde4-4cd5-8b11-126550744e64"/><linearGradient id="a206180a-9149-404a-96c0-979ccc5b6241" x1="851.49" y1="526.49" x2="877.45" y2="526.49" xlink:href="#b76adf44-cde4-4cd5-8b11-126550744e64"/><linearGradient id="b1b60ce8-ef67-492f-a5e4-34c2c8312a2f" x1="884.03" y1="526.49" x2="908.91" y2="526.49" xlink:href="#b76adf44-cde4-4cd5-8b11-126550744e64"/><linearGradient id="b227d540-2c08-4474-afb7-7a8521ea65e7" x1="910.04" y1="526.49" x2="939.87" y2="526.49" xlink:href="#b76adf44-cde4-4cd5-8b11-126550744e64"/><linearGradient id="b19afa78-fb06-4083-9014-9718d06f8962" x1="945.27" y1="526.48" x2="971.96" y2="526.48" xlink:href="#b76adf44-cde4-4cd5-8b11-126550744e64"/><linearGradient id="be65dc44-251a-481d-93da-42055c02c12b" x1="980" y1="526.49" x2="985.95" y2="526.49" xlink:href="#b76adf44-cde4-4cd5-8b11-126550744e64"/><linearGradient id="e781302f-a883-491e-bd50-465f3185647e" x1="991.11" y1="526.49" x2="1020.94" y2="526.49" xlink:href="#b76adf44-cde4-4cd5-8b11-126550744e64"/><linearGradient id="a55626dd-9a0d-4e8a-9730-0fde581b8785" x1="805.62" y1="562.29" x2="807.73" y2="562.29" xlink:href="#af8d3413-f45a-4bbc-8a2a-90ff37e414ad"/><linearGradient id="fa2bf285-2f81-4550-aa5d-0c44c4af4a14" x1="815.26" y1="562.29" x2="830.28" y2="562.29" xlink:href="#af8d3413-f45a-4bbc-8a2a-90ff37e414ad"/><linearGradient id="b4af9646-c3ec-41e0-9f0e-8e27e13500d3" x1="859.41" y1="416.58" x2="910.81" y2="416.58" gradientUnits="userSpaceOnUse"><stop offset="0" stop-color="#00aeef"/><stop offset="0.16" stop-color="#04a5e7"/><stop offset="0.41" stop-color="#118cd1"/><stop offset="0.61" stop-color="#1c75bc"/></linearGradient><linearGradient id="ee6e73e3-45ff-4f88-9c31-2a61b23c3ace" x1="860.22" y1="427.32" x2="959.34" y2="427.32" xlink:href="#af8d3413-f45a-4bbc-8a2a-90ff37e414ad"/></defs><title>ig-hispania</title><g id="bcc7d053-2bd4-4612-b79c-bdbee4cabdf0" data-name="Texto"><path class="aee51cbe-24df-443b-9806-ae676ae200b1" d="M858.77,573.22l-1.19-.3a8.46,8.46,0,0,1-2.21-.92,9.12,9.12,0,0,1-1.92-1.51l1.09-1.74a7.89,7.89,0,0,0,2.54,1.83,7.49,7.49,0,0,0,3,.6,5.38,5.38,0,0,0,3.65-1.12A4,4,0,0,0,865,566.9h0a3.27,3.27,0,0,0-.56-2,3.4,3.4,0,0,0-1.45-1.14,12.63,12.63,0,0,0-2.29-.7l-.08,0-.09,0-.37-.09a20,20,0,0,1-3.09-.92,4.55,4.55,0,0,1-2-1.62,5.46,5.46,0,0,1-.81-3.18v0a7.42,7.42,0,0,1,.76-3.5,5.15,5.15,0,0,1,2.22-2.21,7.53,7.53,0,0,1,3.52-.76,7.34,7.34,0,0,1,1.92.26,8.62,8.62,0,0,1,1.88.76,11,11,0,0,1,1.84,1.29l-1.07,1.71a9.91,9.91,0,0,0-2.32-1.49,5.63,5.63,0,0,0-2.25-.5,5,5,0,0,0-3.48,1.14,4.16,4.16,0,0,0-1.23,3.21h0a2.94,2.94,0,0,0,.61,2,3.8,3.8,0,0,0,1.54,1.07,20.83,20.83,0,0,0,2.5.73l.11,0,.12,0,.14,0,.15,0a15.17,15.17,0,0,1,2.87,1,4.59,4.59,0,0,1,1.91,1.71,5.62,5.62,0,0,1,.76,3.13v0a7,7,0,0,1-.79,3.45,5.24,5.24,0,0,1-2.3,2.19,8.12,8.12,0,0,1-3.64.75Z" transform="translate(-805.62 -356.57)"/><path class="b08bf54e-98fa-47bc-8149-7d510c0cc6a5" d="M875,572.26a5.88,5.88,0,0,1-2.2-2.78,11.33,11.33,0,0,1-.76-4.4v-6.26a11.33,11.33,0,0,1,.76-4.4,5.83,5.83,0,0,1,2.2-2.78,6.81,6.81,0,0,1,7,0,5.89,5.89,0,0,1,2.2,2.78,11.52,11.52,0,0,1,.76,4.4v6.26a11.52,11.52,0,0,1-.76,4.4,5.94,5.94,0,0,1-2.2,2.78,6.81,6.81,0,0,1-7,0Zm6-1.78a4.4,4.4,0,0,0,1.58-2.05,8.74,8.74,0,0,0,.54-3.25v-6.47a8.72,8.72,0,0,0-.54-3.24,4.14,4.14,0,0,0-4.09-2.76,4.35,4.35,0,0,0-2.5.71,4.4,4.4,0,0,0-1.58,2.05,8.72,8.72,0,0,0-.54,3.24v6.47a8.74,8.74,0,0,0,.54,3.25,4.4,4.4,0,0,0,1.58,2.05,4.83,4.83,0,0,0,5,0Z" transform="translate(-805.62 -356.57)"/><path class="e3cb67eb-eeb5-4a9b-998e-62aa7813cc68" d="M891,550.91h1.81V573H891ZM892.31,571H902.8v2H892.31Z" transform="translate(-805.62 -356.57)"/><path class="f023f741-742f-4470-9d9a-f2fdbaf48cf3" d="M910.36,572.32a5.35,5.35,0,0,1-2.13-2.68,12.06,12.06,0,0,1-.72-4.49V550.91h1.82v14.35a6.87,6.87,0,0,0,1.15,4.35,4.88,4.88,0,0,0,6.94,0,6.8,6.8,0,0,0,1.17-4.35V550.91h1.81v14.24a12.29,12.29,0,0,1-.71,4.49,5.38,5.38,0,0,1-2.15,2.68,6.68,6.68,0,0,1-3.6.9A6.6,6.6,0,0,1,910.36,572.32Z" transform="translate(-805.62 -356.57)"/><path class="f2c07da2-6fc6-46ec-89c9-22927021c6cf" d="M930.72,573.22l-1.44-1a6.61,6.61,0,0,1-2.24-2.88,11,11,0,0,1-.79-4.33v-6.06a11,11,0,0,1,.79-4.33,6.68,6.68,0,0,1,2.24-2.9,5.65,5.65,0,0,1,3.35-1,5.72,5.72,0,0,1,2.9.77,6.46,6.46,0,0,1,2.21,2.2,9,9,0,0,1,1.2,3.29h-1.81a6.26,6.26,0,0,0-1-2.21,5.13,5.13,0,0,0-1.61-1.48,3.71,3.71,0,0,0-1.9-.54,3.88,3.88,0,0,0-2.4.78,5,5,0,0,0-1.6,2.18,8.63,8.63,0,0,0-.57,3.26V565a8.66,8.66,0,0,0,.57,3.26,4.94,4.94,0,0,0,1.6,2.17,3.93,3.93,0,0,0,2.4.76,3.86,3.86,0,0,0,1.9-.5,4.8,4.8,0,0,0,1.61-1.45,6.25,6.25,0,0,0,1-2.27h1.81a8.8,8.8,0,0,1-1.21,3.29,6.34,6.34,0,0,1-2.21,2.19,5.62,5.62,0,0,1-2.89.78Z" transform="translate(-805.62 -356.57)"/><path class="e6fc36c8-1ace-44da-91c7-80e2610a814f" d="M946.73,573h-1.81V550.91h1.81Z" transform="translate(-805.62 -356.57)"/><path class="e57576a8-6bbb-467b-aaf2-861c4a9b5753" d="M956.17,572.26a5.88,5.88,0,0,1-2.2-2.78,11.33,11.33,0,0,1-.76-4.4v-6.26a11.33,11.33,0,0,1,.76-4.4,5.83,5.83,0,0,1,2.2-2.78,6.81,6.81,0,0,1,7,0,5.89,5.89,0,0,1,2.2,2.78,11.52,11.52,0,0,1,.76,4.4v6.26a11.52,11.52,0,0,1-.76,4.4,5.94,5.94,0,0,1-2.2,2.78,6.81,6.81,0,0,1-7,0Zm6-1.78a4.4,4.4,0,0,0,1.58-2.05,8.74,8.74,0,0,0,.54-3.25v-6.47a8.72,8.72,0,0,0-.54-3.24,4.14,4.14,0,0,0-4.09-2.76,4.35,4.35,0,0,0-2.5.71,4.4,4.4,0,0,0-1.58,2.05,8.72,8.72,0,0,0-.54,3.24v6.47a8.74,8.74,0,0,0,.54,3.25,4.4,4.4,0,0,0,1.58,2.05,4.83,4.83,0,0,0,5,0Z" transform="translate(-805.62 -356.57)"/><path class="a5624d65-2bfe-4e6e-b08f-616b2e8bd575" d="M972.2,550.91H974l10.65,19.89-.75-.6V550.91h1.82V573h-1.86L973,552.93l1,.86V573H972.2Z" transform="translate(-805.62 -356.57)"/><path class="f6da5bf1-af65-4fe7-ab0e-79436d94a328" d="M992.21,550.91H994V573h-1.82Zm1.25,0H1004v2H993.46Zm0,10.1h9.15v2h-9.15Zm0,10H1004v2H993.46Z" transform="translate(-805.62 -356.57)"/><path class="b5ca3454-20de-468c-92b3-830a38792a73" d="M1013.77,573.22l-1.18-.3a8.67,8.67,0,0,1-2.22-.92,9.66,9.66,0,0,1-1.92-1.51l1.1-1.74a7.85,7.85,0,0,0,2.53,1.83,7.54,7.54,0,0,0,3,.6,5.38,5.38,0,0,0,3.65-1.12,4,4,0,0,0,1.29-3.16h0a3.34,3.34,0,0,0-.56-2,3.46,3.46,0,0,0-1.45-1.14,12.89,12.89,0,0,0-2.29-.7l-.08,0-.1,0-.36-.09a19.34,19.34,0,0,1-3.09-.92,4.57,4.57,0,0,1-2-1.62,5.46,5.46,0,0,1-.81-3.18v0a7.54,7.54,0,0,1,.76-3.5,5.12,5.12,0,0,1,2.23-2.21,7.5,7.5,0,0,1,3.52-.76,7.34,7.34,0,0,1,1.92.26,8.82,8.82,0,0,1,1.88.76,10.55,10.55,0,0,1,1.83,1.29l-1.07,1.71a9.71,9.71,0,0,0-2.32-1.49,5.55,5.55,0,0,0-2.24-.5,4.93,4.93,0,0,0-3.48,1.14,4.13,4.13,0,0,0-1.24,3.21h0a2.94,2.94,0,0,0,.62,2,3.7,3.7,0,0,0,1.53,1.07,21.4,21.4,0,0,0,2.5.73l.11,0,.12,0,.15,0,.14,0a15.55,15.55,0,0,1,2.88,1,4.65,4.65,0,0,1,1.91,1.71,5.62,5.62,0,0,1,.76,3.13v0a7,7,0,0,1-.79,3.45,5.21,5.21,0,0,1-2.31,2.19,8,8,0,0,1-3.63.75Z" transform="translate(-805.62 -356.57)"/><path class="f992a4df-9a5e-4565-8399-92aa0e1e337e" d="M806.81,509.93h3.46a1.14,1.14,0,0,1,1.18,1.1V542a1.14,1.14,0,0,1-1.18,1.1h-3.46a1.14,1.14,0,0,1-1.19-1.1V511A1.14,1.14,0,0,1,806.81,509.93Zm3.09,14.15h17.81a1.14,1.14,0,0,1,1.18,1.1v3a1.14,1.14,0,0,1-1.18,1.1H809.9a1.14,1.14,0,0,1-1.18-1.1v-3A1.14,1.14,0,0,1,809.9,524.08Zm16.69-14.15h3.46a1.14,1.14,0,0,1,1.18,1.1V542a1.14,1.14,0,0,1-1.18,1.1h-3.46a1.14,1.14,0,0,1-1.19-1.1V511A1.14,1.14,0,0,1,826.59,509.93Z" transform="translate(-805.62 -356.57)"/><path class="f992a4df-9a5e-4565-8399-92aa0e1e337e" d="M844.05,543.05h-3.59a1.14,1.14,0,0,1-1.18-1.1V511a1.14,1.14,0,0,1,1.18-1.1h3.59a1.14,1.14,0,0,1,1.18,1.1V542A1.14,1.14,0,0,1,844.05,543.05Z" transform="translate(-805.62 -356.57)"/><path class="f992a4df-9a5e-4565-8399-92aa0e1e337e" d="M861.75,543.4a1,1,0,0,1-.25,0l-2.23-.44a20.9,20.9,0,0,1-4.42-1.38A18.3,18.3,0,0,1,852,540a1.07,1.07,0,0,1-.28-1.51l1.79-2.51a1.22,1.22,0,0,1,1.67-.28,14.83,14.83,0,0,0,3.63,1.74,17.15,17.15,0,0,0,5.4.83,10.75,10.75,0,0,0,5.53-1.18,3.73,3.73,0,0,0,2-3.35v0a3.31,3.31,0,0,0-.88-2.43,5.17,5.17,0,0,0-2.29-1.32,31.82,31.82,0,0,0-3.64-.79l-.14,0-.15,0-.44-.07a38.4,38.4,0,0,1-5.85-1.3,7.83,7.83,0,0,1-5.51-8.18v0a8.85,8.85,0,0,1,5.9-8.77,18.4,18.4,0,0,1,6.93-1.17,19,19,0,0,1,3.81.4,21.23,21.23,0,0,1,3.76,1.17,19.82,19.82,0,0,1,2.61,1.3,1.06,1.06,0,0,1,.39,1.5l-1.62,2.58a1.23,1.23,0,0,1-1.65.37,17.45,17.45,0,0,0-3.16-1.44,13,13,0,0,0-4.14-.7,9.82,9.82,0,0,0-5.21,1.15,3.61,3.61,0,0,0-1.84,3.24v0a3.26,3.26,0,0,0,1,2.48,5.66,5.66,0,0,0,2.38,1.33c1,.28,2.28.58,4,.9l.19,0,.18,0,.27,0,.27,0a31.73,31.73,0,0,1,5.5,1.48,8.63,8.63,0,0,1,3.69,2.78,8.33,8.33,0,0,1,1.49,5.22v.05a9,9,0,0,1-1.56,5.3,9.49,9.49,0,0,1-4.54,3.36,19.8,19.8,0,0,1-7.17,1.16Z" transform="translate(-805.62 -356.57)"/><path class="f992a4df-9a5e-4565-8399-92aa0e1e337e" d="M885.22,509.93h3.46a1.14,1.14,0,0,1,1.18,1.1V542a1.14,1.14,0,0,1-1.18,1.1h-3.46A1.14,1.14,0,0,1,884,542V511A1.14,1.14,0,0,1,885.22,509.93Zm1.62,16.16A1.14,1.14,0,0,1,888,525h10.16a4.88,4.88,0,0,0,2.48-.61,4.21,4.21,0,0,0,1.65-1.72,5.33,5.33,0,0,0,.6-2.57,5.54,5.54,0,0,0-.58-2.6,4.26,4.26,0,0,0-1.66-1.73,5,5,0,0,0-2.49-.62H888a1.14,1.14,0,0,1-1.18-1.1v-3a1.14,1.14,0,0,1,1.18-1.1h10a12.41,12.41,0,0,1,5.71,1.26,9.21,9.21,0,0,1,3.82,3.57,11,11,0,0,1,0,10.65,9.21,9.21,0,0,1-3.82,3.54A12.41,12.41,0,0,1,898,530.2H888a1.14,1.14,0,0,1-1.18-1.1Z" transform="translate(-805.62 -356.57)"/><path class="f992a4df-9a5e-4565-8399-92aa0e1e337e" d="M923.66,509.93h2.6a1.19,1.19,0,0,1,1.11.71l12.43,30.92a1.12,1.12,0,0,1-1.11,1.49H935a1.18,1.18,0,0,1-1.12-.74l-7.77-20.92a1.22,1.22,0,0,0-2.24,0l-7.78,20.92a1.16,1.16,0,0,1-1.11.74h-3.72a1.11,1.11,0,0,1-1.11-1.49l12.43-30.92A1.17,1.17,0,0,1,923.66,509.93ZM917,531.55h16.29a1.14,1.14,0,0,1,1.19,1.1v3a1.15,1.15,0,0,1-1.19,1.11H917a1.15,1.15,0,0,1-1.18-1.11v-3A1.14,1.14,0,0,1,917,531.55Z" transform="translate(-805.62 -356.57)"/><path class="f992a4df-9a5e-4565-8399-92aa0e1e337e" d="M946.46,509.93h4.46a1.19,1.19,0,0,1,1,.56l14.51,24.23a1,1,0,0,1-.16,1.29h0V511a1.14,1.14,0,0,1,1.18-1.1h3.29A1.14,1.14,0,0,1,972,511v30.9a1.14,1.14,0,0,1-1.19,1.1h-4.52a1.18,1.18,0,0,1-1-.56l-14.46-23.84a1.06,1.06,0,0,1,.16-1.3h0v24.6a1.14,1.14,0,0,1-1.18,1.1h-3.29a1.14,1.14,0,0,1-1.19-1.1V511A1.14,1.14,0,0,1,946.46,509.93Z" transform="translate(-805.62 -356.57)"/><path class="f992a4df-9a5e-4565-8399-92aa0e1e337e" d="M984.77,543.05h-3.58A1.14,1.14,0,0,1,980,542V511a1.14,1.14,0,0,1,1.19-1.1h3.58A1.14,1.14,0,0,1,986,511V542A1.14,1.14,0,0,1,984.77,543.05Z" transform="translate(-805.62 -356.57)"/><path class="f992a4df-9a5e-4565-8399-92aa0e1e337e" d="M1004.72,509.93h2.61a1.19,1.19,0,0,1,1.11.71l12.42,30.92a1.11,1.11,0,0,1-1.1,1.49H1016a1.17,1.17,0,0,1-1.12-.74l-7.78-20.92a1.21,1.21,0,0,0-2.23,0l-7.78,20.92a1.16,1.16,0,0,1-1.12.74H992.3a1.11,1.11,0,0,1-1.11-1.49l12.43-30.92A1.17,1.17,0,0,1,1004.72,509.93ZM998,531.55h16.29a1.14,1.14,0,0,1,1.18,1.1v3a1.15,1.15,0,0,1-1.18,1.11H998a1.15,1.15,0,0,1-1.18-1.11v-3A1.14,1.14,0,0,1,998,531.55Z" transform="translate(-805.62 -356.57)"/><path class="ad7a89c1-433f-4fe8-a62f-fdf9ca9c8cc0" d="M806.81,509.93h3.46a1.14,1.14,0,0,1,1.18,1.1V542a1.14,1.14,0,0,1-1.18,1.1h-3.46a1.14,1.14,0,0,1-1.19-1.1V511A1.14,1.14,0,0,1,806.81,509.93Zm3.09,14.15h17.81a1.14,1.14,0,0,1,1.18,1.1v3a1.14,1.14,0,0,1-1.18,1.1H809.9a1.14,1.14,0,0,1-1.18-1.1v-3A1.14,1.14,0,0,1,809.9,524.08Zm16.69-14.15h3.46a1.14,1.14,0,0,1,1.18,1.1V542a1.14,1.14,0,0,1-1.18,1.1h-3.46a1.14,1.14,0,0,1-1.19-1.1V511A1.14,1.14,0,0,1,826.59,509.93Z" transform="translate(-805.62 -356.57)"/><path class="f6b72e74-b4f3-443d-b5cb-c48740bb85ab" d="M844.05,543.05h-3.59a1.14,1.14,0,0,1-1.18-1.1V511a1.14,1.14,0,0,1,1.18-1.1h3.59a1.14,1.14,0,0,1,1.18,1.1V542A1.14,1.14,0,0,1,844.05,543.05Z" transform="translate(-805.62 -356.57)"/><path class="b94bd65b-8318-4f32-b1f2-579e8eb1da0b" d="M861.75,543.4a1,1,0,0,1-.25,0l-2.23-.44a20.9,20.9,0,0,1-4.42-1.38A18.3,18.3,0,0,1,852,540a1.07,1.07,0,0,1-.28-1.51l1.79-2.51a1.22,1.22,0,0,1,1.67-.28,14.83,14.83,0,0,0,3.63,1.74,17.15,17.15,0,0,0,5.4.83,10.75,10.75,0,0,0,5.53-1.18,3.73,3.73,0,0,0,2-3.35v0a3.31,3.31,0,0,0-.88-2.43,5.17,5.17,0,0,0-2.29-1.32,31.82,31.82,0,0,0-3.64-.79l-.14,0-.15,0-.44-.07a38.4,38.4,0,0,1-5.85-1.3,7.83,7.83,0,0,1-5.51-8.18v0a8.85,8.85,0,0,1,5.9-8.77,18.4,18.4,0,0,1,6.93-1.17,19,19,0,0,1,3.81.4,21.23,21.23,0,0,1,3.76,1.17,19.82,19.82,0,0,1,2.61,1.3,1.06,1.06,0,0,1,.39,1.5l-1.62,2.58a1.23,1.23,0,0,1-1.65.37,17.45,17.45,0,0,0-3.16-1.44,13,13,0,0,0-4.14-.7,9.82,9.82,0,0,0-5.21,1.15,3.61,3.61,0,0,0-1.84,3.24v0a3.26,3.26,0,0,0,1,2.48,5.66,5.66,0,0,0,2.38,1.33c1,.28,2.28.58,4,.9l.19,0,.18,0,.27,0,.27,0a31.73,31.73,0,0,1,5.5,1.48,8.63,8.63,0,0,1,3.69,2.78,8.33,8.33,0,0,1,1.49,5.22v.05a9,9,0,0,1-1.56,5.3,9.49,9.49,0,0,1-4.54,3.36,19.8,19.8,0,0,1-7.17,1.16Z" transform="translate(-805.62 -356.57)"/><path class="e9a1f3a3-34f5-4839-826c-7fac3a3092ea" d="M885.22,509.93h3.46a1.14,1.14,0,0,1,1.18,1.1V542a1.14,1.14,0,0,1-1.18,1.1h-3.46A1.14,1.14,0,0,1,884,542V511A1.14,1.14,0,0,1,885.22,509.93Zm1.62,16.16A1.14,1.14,0,0,1,888,525h10.16a4.88,4.88,0,0,0,2.48-.61,4.21,4.21,0,0,0,1.65-1.72,5.33,5.33,0,0,0,.6-2.57,5.54,5.54,0,0,0-.58-2.6,4.26,4.26,0,0,0-1.66-1.73,5,5,0,0,0-2.49-.62H888a1.14,1.14,0,0,1-1.18-1.1v-3a1.14,1.14,0,0,1,1.18-1.1h10a12.41,12.41,0,0,1,5.71,1.26,9.21,9.21,0,0,1,3.82,3.57,11,11,0,0,1,0,10.65,9.21,9.21,0,0,1-3.82,3.54A12.41,12.41,0,0,1,898,530.2H888a1.14,1.14,0,0,1-1.18-1.1Z" transform="translate(-805.62 -356.57)"/><path class="fc746689-4969-4da7-816f-6677c34690ff" d="M923.66,509.93h2.6a1.19,1.19,0,0,1,1.11.71l12.43,30.92a1.12,1.12,0,0,1-1.11,1.49H935a1.18,1.18,0,0,1-1.12-.74l-7.77-20.92a1.22,1.22,0,0,0-2.24,0l-7.78,20.92a1.16,1.16,0,0,1-1.11.74h-3.72a1.11,1.11,0,0,1-1.11-1.49l12.43-30.92A1.17,1.17,0,0,1,923.66,509.93ZM917,531.55h16.29a1.14,1.14,0,0,1,1.19,1.1v3a1.15,1.15,0,0,1-1.19,1.11H917a1.15,1.15,0,0,1-1.18-1.11v-3A1.14,1.14,0,0,1,917,531.55Z" transform="translate(-805.62 -356.57)"/><path class="f2668d51-41af-41d3-b4a3-d7cc6ec07b7b" d="M946.46,509.93h4.46a1.19,1.19,0,0,1,1,.56l14.51,24.23a1,1,0,0,1-.16,1.29h0V511a1.14,1.14,0,0,1,1.18-1.1h3.29A1.14,1.14,0,0,1,972,511v30.9a1.14,1.14,0,0,1-1.19,1.1h-4.52a1.18,1.18,0,0,1-1-.56l-14.46-23.84a1.06,1.06,0,0,1,.16-1.3h0v24.6a1.14,1.14,0,0,1-1.18,1.1h-3.29a1.14,1.14,0,0,1-1.19-1.1V511A1.14,1.14,0,0,1,946.46,509.93Z" transform="translate(-805.62 -356.57)"/><path class="a9546f26-7efd-4be5-b2bb-ef2da16337ef" d="M984.77,543.05h-3.58A1.14,1.14,0,0,1,980,542V511a1.14,1.14,0,0,1,1.19-1.1h3.58A1.14,1.14,0,0,1,986,511V542A1.14,1.14,0,0,1,984.77,543.05Z" transform="translate(-805.62 -356.57)"/><path class="bb46d18a-75ba-4feb-88cc-a80d7b7f2066" d="M1004.72,509.93h2.61a1.19,1.19,0,0,1,1.11.71l12.42,30.92a1.11,1.11,0,0,1-1.1,1.49H1016a1.17,1.17,0,0,1-1.12-.74l-7.78-20.92a1.21,1.21,0,0,0-2.23,0l-7.78,20.92a1.16,1.16,0,0,1-1.12.74H992.3a1.11,1.11,0,0,1-1.11-1.49l12.43-30.92A1.17,1.17,0,0,1,1004.72,509.93ZM998,531.55h16.29a1.14,1.14,0,0,1,1.18,1.1v3a1.15,1.15,0,0,1-1.18,1.11H998a1.15,1.15,0,0,1-1.18-1.11v-3A1.14,1.14,0,0,1,998,531.55Z" transform="translate(-805.62 -356.57)"/><path class="b9fe4773-8605-410c-ac6b-1b6d1e4657e2" d="M807.73,573.53h-2.11V551.05h2.11Z" transform="translate(-805.62 -356.57)"/><path class="ae0b8f99-0ac9-4805-b855-c7d02f8ae46c" d="M830.28,562v3.31a11.48,11.48,0,0,1-.83,4.69,5.8,5.8,0,0,1-2.48,2.79,8.41,8.41,0,0,1-4.15.93,9,9,0,0,1-4.21-.88,5.69,5.69,0,0,1-2.51-2.64,10.14,10.14,0,0,1-.84-4.39v-6.63a11.57,11.57,0,0,1,.83-4.68,5.77,5.77,0,0,1,2.49-2.79,8.38,8.38,0,0,1,4.15-.93,8,8,0,0,1,3.56.74,6.14,6.14,0,0,1,2.45,2.22,10.31,10.31,0,0,1,1.37,3.72h-2.29a8.12,8.12,0,0,0-1.07-2.57,4.38,4.38,0,0,0-1.68-1.53,5.11,5.11,0,0,0-2.34-.51,5.77,5.77,0,0,0-3,.71,4.35,4.35,0,0,0-1.78,2.1,9,9,0,0,0-.59,3.52v6.63a7.7,7.7,0,0,0,.6,3.25,4.07,4.07,0,0,0,1.81,1.94,6.35,6.35,0,0,0,3,.65,5.71,5.71,0,0,0,2.92-.67,4,4,0,0,0,1.73-2,9.32,9.32,0,0,0,.58-3.57v-1.28h-5.16V562Z" transform="translate(-805.62 -356.57)"/></g><path class="b59ca457-463a-4631-bcf9-b08e88b56a99" d="M910.81,413.08c-6.08-1-11.15-5.75-11.2-11.65l-.2-27.52-40-17.34.83,82.2.76,37.82,38.76-18.69,11-5.3Z" transform="translate(-805.62 -356.57)"/><path class="a72765fa-4207-4e44-8d0b-cd458527bb70" d="M921,370.3l.36,37.66-24.13,11.25c-.13.06-36.91,17.61-37,17.66l.78,39.72,60.39-28.23v36L960.68,466v-78Z" transform="translate(-805.62 -356.57)"/></svg>