<svg id="f0f5607e-579a-4ed4-8a3d-ac601a97cc99" data-name="Layer 1" xmlns="http://www.w3.org/2000/svg" viewBox="0 0 495.7 344.54"><defs><style>.a27ac292-4054-4e73-89dd-09bf99b8dce5,.ff107c25-61d5-4468-9d0a-b40c7e68be7d{fill:#43c0ff;}.aecc9831-7bc2-4dae-8da5-2edbcae6ddaf,.b37d395b-eda8-445f-a38f-98663387e2b3,.b514214d-b062-4763-bca9-c7db4b926c75,.ec5d150e-b5c1-4b5b-8064-3ab4d01a7b20,.ecdde88e-b30d-45f4-92bc-b046fe929c3d,.f36c440c-9714-4cb6-95ef-f8319fdfa094{fill:#002186;}.ff107c25-61d5-4468-9d0a-b40c7e68be7d{font-size:63.87px;font-family:TrajanPro3-Bold, "Trajan Pro 3";font-weight:700;letter-spacing:-0.02em;}.a2d82396-07de-42b0-8cf1-e7a88ee78122{letter-spacing:0em;}.aecc9831-7bc2-4dae-8da5-2edbcae6ddaf{letter-spacing:-0.03em;}.b37d395b-eda8-445f-a38f-98663387e2b3{letter-spacing:-0.02em;}.ec5d150e-b5c1-4b5b-8064-3ab4d01a7b20{letter-spacing:-0.03em;}.b514214d-b062-4763-bca9-c7db4b926c75{letter-spacing:-0.02em;}.f36c440c-9714-4cb6-95ef-f8319fdfa094{letter-spacing:0em;}</style></defs><title>IG Elephant - copia</title><path class="a27ac292-4054-4e73-89dd-09bf99b8dce5" d="M927.72,553.48s5.52,3.06,10.11-.31c0,0,0,5.21,5.83,9.2,0,0,.92-11,12.56-11s15.94,22.68-2.45,29.12-43.66,2.8-38.92-58.84a86,86,0,0,1-35.55,16.55s-1.9,27.7,13.18,50.87c17.89,27.47,87,31.26,94.39-11.65S947,519.47,927.72,553.48Z" transform="translate(-721.09 -372.55)"/><path class="ecdde88e-b30d-45f4-92bc-b046fe929c3d" d="M1057.34,381.87c-80-23.28-154.13-1.53-167.92,49.65s-14.71,81.82-14.71,81.82a36.11,36.11,0,0,0,21.14-9.5c-19,28.8-73.24,20.22-73.24,20.22,5.83,5.82,39.84,16.55,69.74,4.53,9.83-4,15.66-8.27,19.06-12.3.31-.37,19.38-23,39.76-16.34,20.55,6.71,19.71,21.66,19.71,21.66s10.61-32.74-9.79-56.14l0,0c-3-3.89-8.25-7.19-16.18-8.79-22.67-4.6-28.19,14.4-28.19,14.4,2.76-34.94,40.45-8.58,54.55-30.95s-3.68,97.14,53.62,72S1137.32,405.16,1057.34,381.87ZM911.79,444.39a6.44,6.44,0,1,1,6.43-6.44A6.44,6.44,0,0,1,911.79,444.39Z" transform="translate(-721.09 -372.55)"/><text class="ff107c25-61d5-4468-9d0a-b40c7e68be7d" transform="translate(0 316.75)">I<tspan class="a2d82396-07de-42b0-8cf1-e7a88ee78122" x="30.21" y="0">G </tspan><tspan class="aecc9831-7bc2-4dae-8da5-2edbcae6ddaf" x="106.47" y="0">E</tspan><tspan class="b37d395b-eda8-445f-a38f-98663387e2b3" x="148.37" y="0">L</tspan><tspan class="ec5d150e-b5c1-4b5b-8064-3ab4d01a7b20" x="189.95" y="0">E</tspan><tspan class="b514214d-b062-4763-bca9-c7db4b926c75" x="231.85" y="0">P</tspan><tspan class="f36c440c-9714-4cb6-95ef-f8319fdfa094" x="277.39" y="0">HANT</tspan></text></svg>