<svg id="b13eaba2-1c13-4dbb-b3f1-7766831bac9d" data-name="a77bdd16-5be2-4a34-aa1d-6f517dcedb8d" xmlns="http://www.w3.org/2000/svg" viewBox="0 0 224.6 359.8"><title>irongate-foo</title><polygon points="46.11 278.24 46.11 325.72 112.3 359.8 178.5 325.72 178.5 278.24 112.3 312.32 46.11 278.24" style="fill:#002186"/><polygon points="46.11 81.57 112.79 47.73 112.3 47.48 46.11 81.57" style="fill:none"/><polygon points="112.79 47.73 159.23 24.16 158.78 23.93 112.67 47.67 112.79 47.73"/><polygon points="112.67 0.19 112.3 0 0 57.83 0 174.76 0 301.98 46.11 325.72 46.11 278.24 46.11 198.5 46.11 151.02 46.11 81.57 59.56 74.64 59.56 27.54 112.67 0.19" style="fill:#002186"/><polygon points="59.56 74.64 59.56 144.47 59.56 271.69 105.66 295.43 105.66 247.95 105.66 168.22 105.66 120.73 105.66 51.28 112.67 47.67 112.3 47.48 59.56 74.64" style="fill:#1c75bc"/><polygon points="59.56 27.54 59.56 74.64 112.3 47.48 112.67 47.67 158.78 23.93 112.67 0.19 59.56 27.54" style="fill:#002186"/><polygon points="112.3 151.02 112.3 198.5 178.5 164.42 178.5 198.5 178.5 278.24 178.5 325.72 224.6 301.98 224.6 174.76 224.6 91.56 112.3 151.02" style="fill:#1c75bc"/><polygon points="111.35 295.43 157.34 269.85 157.34 190.82 111.35 213.96 111.35 295.43" style="fill:#002186"/><polygon points="157.34 269.85 126.71 258.79 126.71 206.23 157.34 190.82 157.34 269.85" style="fill:#1c75bc"/></svg>