<svg id="bcb6a0fa-f6f2-44ed-879f-f28171f2fa9f" data-name="e3af506d-a569-46a7-a680-a8d8a2a92ba3" xmlns="http://www.w3.org/2000/svg" xmlns:xlink="http://www.w3.org/1999/xlink" viewBox="0 0 367.83 474.72"><defs><linearGradient id="bbcc061d-1092-43f9-b666-1cf6694fd57e" x1="776.25" y1="532.72" x2="314.2" y2="80.71" gradientTransform="matrix(1, 0, 0, -1, -11.85, 582.13)" gradientUnits="userSpaceOnUse"><stop offset="0" stop-color="#3c88b2"/><stop offset="0.51" stop-color="#176e9d"/><stop offset="1" stop-color="#0a2549"/></linearGradient><linearGradient id="abd4f481-7085-41d5-b5fd-a0a4f15b2142" x1="-8618.6" y1="74.27" x2="-8708.84" y2="544.26" gradientTransform="translate(-8228.52 582.13) rotate(180)" gradientUnits="userSpaceOnUse"><stop offset="0" stop-color="#3c88b2"/><stop offset="0.56" stop-color="#176e9d"/><stop offset="1" stop-color="#136893"/></linearGradient><linearGradient id="a836f717-b076-4cea-b209-eb6585398e03" x1="-8756.41" y1="155.4" x2="-8730.02" y2="155.4" gradientTransform="translate(-8228.52 582.13) rotate(180)" xlink:href="#bbcc061d-1092-43f9-b666-1cf6694fd57e"/><linearGradient id="ee3a37eb-7c79-45d8-9801-9f341efbfbab" x1="-8716.18" y1="138.92" x2="-8695.15" y2="138.92" gradientTransform="translate(-8228.52 582.13) rotate(180)" xlink:href="#bbcc061d-1092-43f9-b666-1cf6694fd57e"/><linearGradient id="be17ff51-f98c-4b85-a06f-92ed4be5adf9" x1="-8692.58" y1="105.28" x2="-8676.75" y2="105.28" gradientTransform="translate(-8228.52 582.13) rotate(180)" xlink:href="#bbcc061d-1092-43f9-b666-1cf6694fd57e"/><linearGradient id="fcdbb470-45e8-4867-9154-28986e3bfdd8" x1="-8734.07" y1="113.64" x2="-8713.4" y2="113.64" gradientTransform="translate(-8228.52 582.13) rotate(180)" xlink:href="#bbcc061d-1092-43f9-b666-1cf6694fd57e"/><linearGradient id="aa6897a3-4f57-44c6-9252-d688c2773c51" x1="-8769.67" y1="122.32" x2="-8745.24" y2="122.32" gradientTransform="translate(-8228.52 582.13) rotate(180)" xlink:href="#bbcc061d-1092-43f9-b666-1cf6694fd57e"/><linearGradient id="bb716e2f-9b50-4576-b52f-d03f5b6da0ec" x1="-8815.08" y1="141.71" x2="-8785.27" y2="141.71" gradientTransform="translate(-8228.52 582.13) rotate(180)" xlink:href="#bbcc061d-1092-43f9-b666-1cf6694fd57e"/><linearGradient id="b405fc5f-d061-49d7-89d8-ce703b1ed9ed" x1="-8792.06" y1="102.63" x2="-8771.27" y2="102.63" gradientTransform="translate(-8228.52 582.13) rotate(180)" xlink:href="#bbcc061d-1092-43f9-b666-1cf6694fd57e"/><linearGradient id="b70b1f06-3066-4280-a396-7cde981038e0" x1="-8755.92" y1="89.03" x2="-8737.01" y2="89.03" gradientTransform="translate(-8228.52 582.13) rotate(180)" xlink:href="#bbcc061d-1092-43f9-b666-1cf6694fd57e"/><linearGradient id="b1a585c3-6423-4986-8864-038639b6c289" x1="-8725.86" y1="80.76" x2="-8708.44" y2="80.76" gradientTransform="translate(-8228.52 582.13) rotate(180)" xlink:href="#bbcc061d-1092-43f9-b666-1cf6694fd57e"/><linearGradient id="b95f5d9b-02ff-4eac-95d5-c74f1c675c0a" x1="-8740.74" y1="53.95" x2="-8723.32" y2="53.95" gradientTransform="translate(-8228.52 582.13) rotate(180)" xlink:href="#bbcc061d-1092-43f9-b666-1cf6694fd57e"/><linearGradient id="e3fdee0c-d7c4-4024-983e-7e13f464900c" x1="-8773.41" y1="63.58" x2="-8755.99" y2="63.58" gradientTransform="translate(-8228.52 582.13) rotate(180)" xlink:href="#bbcc061d-1092-43f9-b666-1cf6694fd57e"/><linearGradient id="e6ead359-5843-45c7-a366-9661308a0a74" x1="-8829.28" y1="187.43" x2="-8789.09" y2="187.43" gradientTransform="translate(-8228.52 582.13) rotate(180)" xlink:href="#bbcc061d-1092-43f9-b666-1cf6694fd57e"/><linearGradient id="ab3eda68-d7b8-4924-b099-36a9047160e4" x1="308.72" y1="83.61" x2="320.23" y2="83.61" gradientTransform="matrix(1, 0, 0, -1, 4.3, 508.98)" xlink:href="#bbcc061d-1092-43f9-b666-1cf6694fd57e"/><linearGradient id="e6e4936a-1591-470e-838d-1c2edecbd8be" x1="327.25" y1="72.49" x2="337.4" y2="72.49" gradientTransform="matrix(1, 0, 0, -1, -31.41, 508.98)" xlink:href="#bbcc061d-1092-43f9-b666-1cf6694fd57e"/><linearGradient id="a7382cc6-ad78-4521-9d81-5fe716b4ef91" x1="367.04" y1="57.22" x2="374.91" y2="57.22" gradientTransform="matrix(1, 0, 0, -1, -108.71, 508.98)" xlink:href="#bbcc061d-1092-43f9-b666-1cf6694fd57e"/><linearGradient id="b8d98fdb-f91f-4166-953a-7ca983cf9070" x1="380.58" y1="84.15" x2="388.44" y2="84.15" gradientTransform="matrix(1, 0, 0, -1, -139.7, 508.98)" xlink:href="#bbcc061d-1092-43f9-b666-1cf6694fd57e"/><linearGradient id="af74264f-ddad-4f34-b9dc-b01ad7e63d28" x1="350.29" y1="95.13" x2="358.16" y2="95.13" gradientTransform="matrix(1, 0, 0, -1, -75.21, 508.98)" xlink:href="#bbcc061d-1092-43f9-b666-1cf6694fd57e"/><linearGradient id="b19659ab-9020-4e48-a08a-97d7b85f6acf" x1="335.28" y1="129.05" x2="346.79" y2="129.05" gradientTransform="matrix(1, 0, 0, -1, -48.82, 508.98)" xlink:href="#bbcc061d-1092-43f9-b666-1cf6694fd57e"/><linearGradient id="aab9e11b-ab53-4dac-849b-65fbc2df3e0f" x1="374.85" y1="116.78" x2="383.37" y2="116.78" gradientTransform="matrix(1, 0, 0, -1, -124.98, 508.98)" xlink:href="#bbcc061d-1092-43f9-b666-1cf6694fd57e"/><linearGradient id="ae81d373-f7fd-4957-939c-28799810d81f" x1="405.43" y1="109.52" x2="412.96" y2="109.52" gradientTransform="matrix(1, 0, 0, -1, -185.15, 508.98)" xlink:href="#bbcc061d-1092-43f9-b666-1cf6694fd57e"/><linearGradient id="b695536f-b7c5-49f5-9da3-beab45f83b7b" x1="416.05" y1="107.46" x2="422.91" y2="107.46" gradientTransform="matrix(1, 0, 0, -1, -206.47, 508.98)" xlink:href="#bbcc061d-1092-43f9-b666-1cf6694fd57e"/><linearGradient id="ac850a96-880d-451a-9a4d-ee683d1f3ff5" x1="423.02" y1="133.68" x2="429.88" y2="133.68" gradientTransform="matrix(1, 0, 0, -1, -226.16, 508.98)" xlink:href="#bbcc061d-1092-43f9-b666-1cf6694fd57e"/><linearGradient id="f39983d7-0708-4df6-8c37-d8ee4824013d" x1="390.88" y1="147.27" x2="399.71" y2="147.27" gradientTransform="matrix(1, 0, 0, -1, -157.34, 508.98)" xlink:href="#bbcc061d-1092-43f9-b666-1cf6694fd57e"/><linearGradient id="b20a038e-883e-42b0-b576-5f57227f84f0" x1="334.52" y1="167.55" x2="351.78" y2="167.55" gradientTransform="matrix(1, 0, 0, -1, -58.55, 508.98)" xlink:href="#bbcc061d-1092-43f9-b666-1cf6694fd57e"/><linearGradient id="f602f318-06aa-41a0-9b06-7521314bbea1" x1="556.03" y1="626.35" x2="559.7" y2="626.35" gradientTransform="translate(1248.95 -481.36) rotate(90)" xlink:href="#bbcc061d-1092-43f9-b666-1cf6694fd57e"/><linearGradient id="ed76aa65-c442-4f77-9d68-3cbe0163d77d" x1="563.24" y1="631.64" x2="567.12" y2="631.64" gradientTransform="translate(1245.05 -486.13) rotate(90)" xlink:href="#bbcc061d-1092-43f9-b666-1cf6694fd57e"/><linearGradient id="bb5003de-6118-48bb-bea3-488f91c696e6" x1="549.12" y1="634.36" x2="553.1" y2="634.36" gradientTransform="translate(1246.44 -476.1) rotate(90)" xlink:href="#bbcc061d-1092-43f9-b666-1cf6694fd57e"/><linearGradient id="b73158a3-267a-41d0-af3a-4b06518fd706" x1="562.19" y1="635.33" x2="565.02" y2="635.33" gradientTransform="translate(1243.75 -482.18) rotate(90)" xlink:href="#bbcc061d-1092-43f9-b666-1cf6694fd57e"/><linearGradient id="b0c30f54-d963-49de-98e5-f986aaf0d66c" x1="566.05" y1="637.74" x2="569.41" y2="637.74" gradientTransform="translate(1245.78 -480.64) rotate(90)" xlink:href="#bbcc061d-1092-43f9-b666-1cf6694fd57e"/><linearGradient id="b46e7c31-db35-4a6a-8b65-26ecd524d775" x1="-8833.68" y1="498.6" x2="-8829.36" y2="498.6" gradientTransform="translate(-8484.75 508.98) rotate(180)" xlink:href="#bbcc061d-1092-43f9-b666-1cf6694fd57e"/><linearGradient id="bb3a227a-ae55-4dc9-8e9a-43381d88ab7d" x1="-8834.42" y1="503.44" x2="-8829.51" y2="503.44" gradientTransform="translate(-8484.75 508.98) rotate(180)" xlink:href="#bbcc061d-1092-43f9-b666-1cf6694fd57e"/><linearGradient id="bba9f1a0-6a1e-4389-9fe6-c78f788de68f" x1="567.23" y1="576.62" x2="567.19" y2="576.56" gradientTransform="matrix(1, 0, 0, -1, -256.24, 600.85)" xlink:href="#bbcc061d-1092-43f9-b666-1cf6694fd57e"/></defs><title>laplana-foo</title><path d="M477.2,516.93h14.67v22.62a3.46,3.46,0,0,1-.65.18c-83.16,19.62-170.36,3.24-209.78-43.86-56.62-67.62-14.61-196.19,93.86-287.77h0c.46-.37.89-.75,1.33-1.13q7.46-6.21,15-12l.13-.1.27-.2.13-.1c40.17-30.53,83-51.59,123.67-62.49-10.18,6.26-20.39,12.92-30.52,20a654,654,0,0,0-77.68,63.07l-.14.13-.26.23a464.51,464.51,0,0,0-34.09,35.23c-16.37,18.85-31.45,39.16-43.28,61.17-7.4,13.72-13.69,28.45-16.51,43.85h0c-5.43,23.6-3.21,44.68,8,61.51.28.44.56.84.82,1.24.38.55.77,1.08,1.18,1.62.79,1.06,1.62,2.09,2.48,3.09s1.77,2,2.71,2.91c12.63,12.66,31.49,19.78,54.71,21.71h.2c18.4,1.46,39.51-.3,62.5-5.15v44.52h31.19Z" transform="translate(-256.24 -73.15)" style="fill:url(#bbcc061d-1092-43f9-b666-1cf6694fd57e)"/><path d="M603.07,81.64h0l-2,1.23v1.81h-4V82.29c-.66.23-1.33.45-2,.7v2.85H591.2V84.38c-2.14.77-4.24,1.57-6.36,2.38-.57.2-1.15.44-1.71.65h3v4.18h-4.21V87.91c-.7.27-1.38.54-2.08.83v4.47h-3.69v-3l-2.11.84h1.23v4.51h-4.5V92.4c-1.42.57-2.84,1.15-4.25,1.75h2.63v2.66H566.5V94.15a2.17,2.17,0,0,0-.35.15c-1.09.44-2.19.9-3.29,1.37h.62V97.5h-1.83V96.21c-29.28,12.44-57.94,26.74-85.74,42-29.06,15.94-56.27,34.94-82.36,55.33l-1.32,1-.13.1-.27.2-.13.1-.13.11c-5.47,4.28-10.85,8.62-16.24,13h0C299,278.67,267.67,363.9,299.94,412.41l.91,1.33c15.81,22.72,45.1,33.72,82.5,34-23.22-1.93-42.08-9-54.71-21.71q-1.41-1.41-2.7-2.91T323.45,420c-.4-.54-.79-1.07-1.17-1.62s-.55-.8-.83-1.24c-11.17-16.83-13.38-37.91-8-61.51h0c2.82-15.4,9.1-30.13,16.51-43.85,11.83-22,26.91-42.32,43.28-61.17a464.51,464.51,0,0,1,34.09-35.23l.26-.23.14-.13a.58.58,0,0,1,.14-.12q13.59-12.69,28.07-24.48c25-20.42,50.69-40,78-57.22.66-.41,1.3-.82,2-1.22,3.27-2,6.56-4,9.87-6,13.15-7.77,26.63-15.12,40.38-21.9H565v-2.2h2.23v1.72l1.73-.85,5-2.39H572V96.73h3.66v2.84l.93-.46V95h3.17v2.67l.8-.36V92.76h3.81v2.82l.66-.29h.09l-.09-2.58h3.14V94l1.88-.83V89.77h3.67v1.8l4.9-2c.42-.18.85-.33,1.3-.5,0,0,0-.09.06-.1h-.94V86h2.44c.18-.34.35-.69.53-1,.56-1.08,1.14-2.13,1.68-3.21h0a.11.11,0,0,1,0-.08ZM567.21,100.4h-3v-3h3v3Zm4.07,1.1H568V98.21h3.25Zm17.44-9.81h-1.57V90.14h1.57Zm.94-3.33h-2.09V86.27h2.09Zm2.73.1h-1.24V87.21h1.26Zm5.66,1.16h-3.36V86.27h3.36Zm4.4-9.16h0l.41.62v-.77Z" transform="translate(-256.24 -73.15)" style="fill:url(#abd4f481-7085-41d5-b5fd-a0a4f15b2142)"/><path d="M514.7,412.91c-7.28,0-13.2,5.52-13.2,12.32v3c0,6.79,5.92,12.31,13.2,12.31s13.19-5.52,13.19-12.31v-3C527.89,418.43,522,412.91,514.7,412.91Zm8.17,15.3c0,4-3.67,7.29-8.17,7.29s-8.17-3.28-8.17-7.29v-3c0-4,3.66-7.29,8.17-7.29s8.17,3.27,8.17,7.29Z" transform="translate(-256.24 -73.15)" style="fill:url(#a836f717-b076-4cea-b209-eb6585398e03)"/><path d="M477.15,432.21c-5.8,0-10.52,4.41-10.52,9.83v2.32c0,5.43,4.72,9.84,10.52,9.84s10.51-4.41,10.51-9.84V442C487.67,436.58,483,432.21,477.15,432.21Zm6,12.15c0,3-2.7,5.38-6,5.38s-6-2.41-6-5.38V442c0-3,2.72-5.38,6-5.38s6,2.41,6,5.38Z" transform="translate(-256.24 -73.15)" style="fill:url(#ee3a37eb-7c79-45d8-9801-9f341efbfbab)"/><path d="M456.15,468.58a7.69,7.69,0,0,0-7.92,7.42v1.68a7.93,7.93,0,0,0,15.83,0V476A7.69,7.69,0,0,0,456.15,468.58Zm4,9.1a4,4,0,0,1-8,0V476a4,4,0,0,1,8,0Z" transform="translate(-256.24 -73.15)" style="fill:url(#be17ff51-f98c-4b85-a06f-92ed4be5adf9)"/><path d="M495.22,457.68c-5.71,0-10.34,4.34-10.34,9.67v2.28c0,5.34,4.63,9.67,10.34,9.67s10.33-4.33,10.33-9.67v-2.28C505.55,462,500.92,457.68,495.22,457.68Zm5.91,11.95c0,2.9-2.65,5.25-5.9,5.25s-5.93-2.35-5.93-5.25v-2.28c0-2.89,2.67-5.26,5.93-5.26s5.9,2.37,5.9,5.26Z" transform="translate(-256.24 -73.15)" style="fill:url(#fcdbb470-45e8-4867-9154-28986e3bfdd8)"/><path d="M528.94,447c-6.74,0-12.22,5.11-12.22,11.41v2.8c0,6.28,5.47,11.41,12.22,11.41s12.21-5.17,12.21-11.41v-2.8C541.15,452.11,535.67,447,528.94,447Zm7.38,14.21c0,3.64-3.31,6.59-7.39,6.59s-7.39-2.95-7.39-6.59v-2.8c0-3.64,3.31-6.6,7.39-6.6s7.39,3,7.39,6.6Z" transform="translate(-256.24 -73.15)" style="fill:url(#aa6897a3-4f57-44c6-9252-d688c2773c51)"/><path d="M571.66,424.8c-8.21,0-14.9,6.23-14.9,13.9v3.43c0,7.67,6.7,13.9,14.9,13.9s14.91-6.23,14.91-13.9V438.7C586.56,431,579.87,424.8,571.66,424.8Zm9.49,17.33c0,4.71-4.27,8.52-9.51,8.52s-9.52-3.81-9.52-8.52V438.7c0-4.69,4.27-8.52,9.52-8.52s9.51,3.83,9.51,8.52Z" transform="translate(-256.24 -73.15)" style="fill:url(#bb716e2f-9b50-4576-b52f-d03f5b6da0ec)"/><path d="M553.15,468.62c-5.74,0-10.4,4.37-10.4,9.74v2.29c0,5.36,4.66,9.73,10.4,9.73s10.39-4.37,10.39-9.73v-2.29C563.52,473,558.86,468.62,553.15,468.62Zm6,12c0,2.92-2.65,5.29-6,5.29s-6-2.37-6-5.29v-2.29c0-2.93,2.67-5.31,6-5.31s6,2.38,6,5.31Z" transform="translate(-256.24 -73.15)" style="fill:url(#b405fc5f-d061-49d7-89d8-ce703b1ed9ed)"/><path d="M517.94,483.21c-5.21,0-9.45,4-9.45,8.86v2.06c0,4.88,4.24,8.85,9.45,8.85s9.46-4,9.46-8.85v-2.06C527.4,487.21,523.15,483.21,517.94,483.21Zm5.21,10.89c0,2.54-2.34,4.62-5.21,4.62s-5.22-2.08-5.22-4.62V492c0-2.54,2.33-4.62,5.22-4.62s5.21,2.08,5.21,4.62Z" transform="translate(-256.24 -73.15)" style="fill:url(#b70b1f06-3066-4280-a396-7cde981038e0)"/><path d="M488.63,492.28a8.48,8.48,0,0,0-8.71,8.17v1.87a8.74,8.74,0,0,0,17.43,0v-1.87A8.47,8.47,0,0,0,488.63,492.28Zm4.63,10a4.66,4.66,0,0,1-9.25,0v-1.87a4.66,4.66,0,0,1,9.25,0Z" transform="translate(-256.24 -73.15)" style="fill:url(#b1a585c3-6423-4986-8864-038639b6c289)"/><path d="M503.51,519.09a8.47,8.47,0,0,0-8.71,8.17v1.87a8.73,8.73,0,0,0,17.42,0v-1.87A8.47,8.47,0,0,0,503.51,519.09Zm4.61,10a4.66,4.66,0,0,1-9.25,0v-1.87a4.66,4.66,0,0,1,9.25,0Z" transform="translate(-256.24 -73.15)" style="fill:url(#b95f5d9b-02ff-4eac-95d5-c74f1c675c0a)"/><path d="M536.15,509.46a8.46,8.46,0,0,0-8.71,8.16v1.88a8.73,8.73,0,0,0,17.42,0v-1.88A8.46,8.46,0,0,0,536.15,509.46Zm4.62,10a4.66,4.66,0,0,1-9.25,0v-1.88a4.66,4.66,0,0,1,9.25,0Z" transform="translate(-256.24 -73.15)" style="fill:url(#e3fdee0c-d7c4-4024-983e-7e13f464900c)"/><path d="M580.66,373.6c-11.08,0-20.09,8.4-20.09,18.73v4.74c0,10.33,9,18.72,20.09,18.72s20.1-8.39,20.1-18.72v-4.74C600.76,382,591.75,373.6,580.66,373.6Zm13.63,23.47c0,6.75-6.12,12.24-13.63,12.24S567,403.82,567,397.07v-4.74c0-6.76,6.11-12.25,13.62-12.25s13.63,5.49,13.63,12.25Z" transform="translate(-256.24 -73.15)" style="fill:url(#e6ead359-5843-45c7-a366-9661308a0a74)"/><polygon points="313.02 412.81 313.02 418.04 319.31 418.04 319.31 437.94 324.54 437.94 324.54 418.04 324.54 412.81 319.31 412.81 313.02 412.81" style="fill:url(#ab3eda68-d7b8-4924-b099-36a9047160e4)"/><polygon points="295.85 425.42 295.85 430.03 301.39 430.03 301.39 447.58 306 447.58 306 430.03 306 425.42 301.39 425.42 295.85 425.42" style="fill:url(#e6e4936a-1591-470e-838d-1c2edecbd8be)"/><polygon points="258.35 443.18 258.35 446.75 262.63 446.75 262.63 460.36 266.2 460.36 266.2 446.75 266.2 443.18 262.63 443.18 258.35 443.18" style="fill:url(#a7382cc6-ad78-4521-9d81-5fe716b4ef91)"/><polygon points="248.75 433.43 248.75 419.82 248.75 416.25 245.16 416.25 240.88 416.25 240.88 419.82 245.16 419.82 245.16 433.43 248.75 433.43" style="fill:url(#b8d98fdb-f91f-4166-953a-7ca983cf9070)"/><polygon points="282.95 422.45 282.95 408.84 282.95 405.27 279.38 405.27 275.1 405.27 275.1 408.84 279.38 408.84 279.38 422.45 282.95 422.45" style="fill:url(#af74264f-ddad-4f34-b9dc-b01ad7e63d28)"/><polygon points="292.75 392.5 297.98 392.5 297.98 372.59 297.98 367.37 292.75 367.37 286.46 367.37 286.46 372.59 292.75 372.59 292.75 392.5" style="fill:url(#b19659ab-9020-4e48-a08a-97d7b85f6acf)"/><polygon points="258.39 401.51 258.39 386.78 258.39 382.91 254.53 382.91 249.88 382.91 249.88 386.78 254.53 386.78 254.53 401.51 258.39 401.51" style="fill:url(#aab9e11b-ab53-4dac-849b-65fbc2df3e0f)"/><polygon points="220.28 391.24 220.28 394.66 224.4 394.66 224.4 407.69 227.81 407.69 227.81 394.66 227.81 391.24 224.4 391.24 220.28 391.24" style="fill:url(#ae81d373-f7fd-4957-939c-28799810d81f)"/><polygon points="209.59 394.04 209.59 397.16 213.34 397.16 213.34 409.02 216.44 409.02 216.44 397.16 216.44 394.04 213.34 394.04 209.59 394.04" style="fill:url(#b695536f-b7c5-49f5-9da3-beab45f83b7b)"/><polygon points="200.62 382.8 203.74 382.8 203.74 370.94 203.74 367.82 200.62 367.82 196.87 367.82 196.87 370.94 200.62 370.94 200.62 382.8" style="fill:url(#ac850a96-880d-451a-9a4d-ee683d1f3ff5)"/><polygon points="238.37 371.36 242.38 371.36 242.38 356.09 242.38 352.08 238.37 352.08 233.54 352.08 233.54 356.09 238.37 356.09 238.37 371.36" style="fill:url(#f39983d7-0708-4df6-8c37-d8ee4824013d)"/><polygon points="285.39 360.29 293.24 360.29 293.24 330.44 293.24 322.59 285.39 322.59 275.98 322.59 275.98 330.44 285.39 330.44 285.39 360.29" style="fill:url(#b20a038e-883e-42b0-b576-5f57227f84f0)"/><rect x="619.7" y="75.62" width="3.67" height="3.68" transform="translate(-203.09 267.44) rotate(-31.94)" style="fill:url(#f602f318-06aa-41a0-9b06-7521314bbea1)"/><rect x="611.47" y="76.96" width="3.87" height="3.87" transform="translate(-204.93 263.7) rotate(-31.98)" style="fill:url(#ed76aa65-c442-4f77-9d68-3cbe0163d77d)"/><rect x="609.02" y="73.9" width="3.99" height="3.99" transform="translate(-203.86 261.63) rotate(-31.94)" style="fill:url(#bb5003de-6118-48bb-bea3-488f91c696e6)"/><rect x="607.01" y="79.79" width="2.83" height="2.83" transform="translate(-207 261.22) rotate(-31.96)" style="fill:url(#b73158a3-267a-41d0-af3a-4b06518fd706)"/><rect x="606.37" y="85.16" width="3.35" height="3.35" transform="translate(-210.08 261.77) rotate(-31.95)" style="fill:url(#b0c30f54-d963-49de-98e5-f986aaf0d66c)"/><polygon points="344.62 9.89 344.85 10.24 345.81 11.8 346.26 12.55 348.94 10.9 347.5 8.58 347.45 8.51 347.27 8.23 346.82 8.51 344.85 9.74 344.62 9.89" style="fill:url(#b46e7c31-db35-4a6a-8b65-26ecd524d775)"/><polygon points="344.76 4.97 346.23 7.33 346.63 7.96 346.64 8.01 349.67 6.12 347.77 3.08 344.76 4.97" style="fill:url(#bb3a227a-ae55-4dc9-8e9a-43381d88ab7d)"/><polygon points="310.99 24.24 310.99 24.31 310.95 24.24 310.99 24.24" style="fill:url(#bba9f1a0-6a1e-4389-9fe6-c78f788de68f)"/></svg>