<svg id="e3af506d-a569-46a7-a680-a8d8a2a92ba3" data-name="Layer 1" xmlns="http://www.w3.org/2000/svg" xmlns:xlink="http://www.w3.org/1999/xlink" viewBox="0 0 879.04 671.96"><defs><style>.e87e3e8b-58f7-4952-9b20-94b2aae93294{fill:url(#a829d904-d16e-44aa-9e04-b2da42ad0525);}.f12a3463-0666-4b0a-835a-bf7bb75dab67{fill:url(#aaf9736e-dc53-4b08-9b07-4c53ab21b00c);}.b095ad0a-07b8-44dc-8659-89d6662c19aa{fill:url(#bcb61fe8-05bc-424e-afc7-32bb0a2af0eb);}.a92ec944-dc49-44a1-8bc3-4e8a63a9e398{fill:url(#a58821be-4267-4d14-a60b-70a5a65dcae6);}.a969df73-4eea-40ac-a89b-3e193d1691bd{fill:url(#a4721fbb-f204-4f70-935d-be1a1c376335);}.e4a464f2-ae87-4772-8337-ccb25962538b{fill:url(#f7ba654f-6ee7-45f6-a583-d50e11079774);}.f3ee4da1-d2e4-42f2-a9e7-2ead47fb212f{fill:url(#bc52f775-aaaf-4b89-845a-70c3c82b172b);}.a51267cf-a6e6-4b96-abfa-7abfac68ebc5{fill:url(#be9d03e3-3827-45ef-a3c2-a3dad8917e32);}.f57ff8df-2003-4b3b-b975-b3498bd45412{fill:url(#ab844d9d-223e-4061-8946-7219420841c7);}.fadd8bf0-8ce8-4954-bab1-88e703421762{fill:url(#aa309cc4-12a3-49c6-a71d-06557d40dc18);}.ac77b751-3af5-40fe-888f-86cc98cb2e7c{fill:url(#bf05afb3-6431-4af9-8368-45a3d17456b8);}.b5aa33fc-8d9b-4fcd-859e-7dedc9147a4a{fill:url(#b391d7bc-6694-4aed-bb19-affd97642447);}.acbe6cb9-05a6-421b-a93a-70a595535e13{fill:url(#a338b170-d14f-4bf2-8926-fb569170c109);}.f626474c-6f09-4408-ac23-242a3ffb4ef4{fill:url(#abfab0ae-f7d6-4af4-b360-fc0f40c7fe0b);}.af8fb819-15f9-43a6-bf05-7d2ff0de92dd{fill:url(#b7e25773-877c-4b40-88cc-6db4732f9c80);}.bea36024-d13d-42d2-995e-7ad4f49fde0c{fill:url(#bebe810b-da4d-42bc-819d-8377e2769b76);}.b603c304-ff90-44a5-8d3b-28e8359810c5{fill:url(#bb2d5fa2-f46e-4318-9efe-0519faf24717);}.b2151aba-35ff-41b5-af9a-87670decc63b{fill:url(#b44f20ca-5643-4883-a219-e907459a5c89);}.ae804820-1d6f-4637-8833-dd5751bb7ce2{fill:url(#e0d71d7a-a99e-4144-ac49-1299b06c7c8d);}.bcb89a84-c58f-402c-a137-ffef4239cccc{fill:url(#ea1199bf-4761-4ed1-bc35-4b5da18399ff);}.a8897cbf-5171-438d-997d-7aca92ba5eda{fill:url(#fb672c02-51ae-40e6-9f87-b33e107756d8);}.b98fcd60-66a6-408e-8548-89312927537d{fill:url(#aae266e4-1ffd-4eba-82e8-5aac2e1b0092);}.b5f5b2c0-63c4-47e8-97df-b606c4b85bef{fill:url(#ba4ca940-1982-448e-bd50-1afbc5c0d823);}.bfee392a-7070-4993-870d-7a2f2d3ec807{fill:url(#b3ce62de-e396-48af-9aed-4617e36baa04);}.a4d4d34d-cfd4-4668-acc5-10d187ea70b7{fill:url(#aa325f56-5fe1-4686-9791-50e70993577d);}.ebdac717-6134-4bef-901b-260d3d70e7ff{fill:url(#ebd53355-15a5-4aa9-85d1-afb3ee3ed308);}.face39ee-5c43-4052-881b-41ded8364355{fill:url(#ad75c95c-dd70-4376-b817-20ce32eb8eda);}.f4d3c8de-cbdc-4dbc-929d-ff0ed723868c{fill:url(#babcecf0-94b9-413b-80b4-093a86c85553);}.eabcee8a-a939-4cac-ac6c-08cd0c1491f5{fill:url(#a1a906b3-001a-466b-9e58-cc51161c02b9);}.e5bee92b-52d8-40bd-82bb-72c855cdb65e{fill:url(#a3900029-8651-457b-9da4-b34fb0e2d2e3);}.a79505bc-f9ef-4c75-8484-5b5ac970c820{fill:url(#fe43b842-b5b3-4699-8ed7-8d520be8e540);}.af629bc8-1297-4da4-bddc-c9dbfbc27264{fill:url(#a2b33039-97db-4820-9c69-648a8d6f257c);}.f1f18865-2386-48d9-b778-825c5e74670d{fill:url(#a8eb493d-73c4-4701-866a-50a6eafcca59);}.eaa84677-c380-4bb7-b621-ef72bc8495a0{fill:url(#b08a58fe-fa02-4441-8fe1-946181870d01);}.b76dd002-d112-44f2-a89e-fb19fbea9786{fill:#5d5d5d;}.a7ab9077-27dd-4ee1-a3aa-2b84f38e2562{fill:url(#ef5e1d4e-9648-420b-808a-0bdaa6b0ea30);}.acb32d8e-55de-46cc-aebd-956635c6c2ad{fill:url(#a26be6d3-8c5f-46fd-9b57-15c3cbb1c17b);}.ab4beba7-857d-4b61-a989-2579cbec550d{fill:url(#fadb6ab9-cc49-42b1-af60-bdf411bb9577);}.fb9304f4-802c-48d2-9d1b-9e0afc19e0fb{fill:url(#fe5a2bf2-d61d-4292-bd9f-bc2c0fc57dcc);}.a8f26f69-a04e-4a24-a07d-2a6ef8428faa{fill:url(#bc79a687-5b7c-4539-aea2-038b979593a4);}.b5e42a0a-f4e7-4960-a23c-ce8d2092514c{fill:url(#b0fac40d-7229-49d7-912d-4c90d7486d9c);}.b2174b46-89c4-4df0-8887-239d02f1bedb{fill:url(#ef78208d-1a11-436c-a438-6977af2de4a7);}.b44cd90b-978b-484c-8784-ba0e80d10398{fill:url(#b03bf80e-3414-4cd4-b059-c20393c3a1ce);}.a99ac951-8b52-4958-99ae-7ed11d89285e{fill:url(#a4b857be-75d4-4907-8526-6c0605b28af4);}.a2719cef-6084-494b-920d-4c03cd0fa42d{fill:url(#b25543dd-793a-4a2d-8d6d-57c97180f019);}.f8f4340d-ade3-4202-a6e1-d5b21b6e4e52{fill:url(#af262098-3193-4d7e-ac2d-4fbba28f5104);}</style><linearGradient id="a829d904-d16e-44aa-9e04-b2da42ad0525" x1="776.25" y1="68.2" x2="314.2" y2="520.21" gradientUnits="userSpaceOnUse"><stop offset="0" stop-color="#3c88b2"/><stop offset="0.51" stop-color="#176e9d"/><stop offset="1" stop-color="#0a2549"/></linearGradient><linearGradient id="aaf9736e-dc53-4b08-9b07-4c53ab21b00c" x1="499.42" y1="526.64" x2="409.18" y2="56.65" gradientTransform="matrix(-1, 0, 0, 1, 901.33, 0)" gradientUnits="userSpaceOnUse"><stop offset="0" stop-color="#3c88b2"/><stop offset="0.56" stop-color="#176e9d"/><stop offset="1" stop-color="#136893"/></linearGradient><linearGradient id="bcb61fe8-05bc-424e-afc7-32bb0a2af0eb" x1="361.59" y1="445.52" x2="387.98" y2="445.52" gradientTransform="matrix(-1, 0, 0, 1, 901.33, 0)" xlink:href="#a829d904-d16e-44aa-9e04-b2da42ad0525"/><linearGradient id="a58821be-4267-4d14-a60b-70a5a65dcae6" x1="401.81" y1="461.96" x2="422.84" y2="461.96" gradientTransform="matrix(-1, 0, 0, 1, 901.33, 0)" xlink:href="#a829d904-d16e-44aa-9e04-b2da42ad0525"/><linearGradient id="a4721fbb-f204-4f70-935d-be1a1c376335" x1="425.42" y1="495.64" x2="441.25" y2="495.64" gradientTransform="matrix(-1, 0, 0, 1, 901.33, 0)" xlink:href="#a829d904-d16e-44aa-9e04-b2da42ad0525"/><linearGradient id="f7ba654f-6ee7-45f6-a583-d50e11079774" x1="383.93" y1="487.28" x2="404.6" y2="487.28" gradientTransform="matrix(-1, 0, 0, 1, 901.33, 0)" xlink:href="#a829d904-d16e-44aa-9e04-b2da42ad0525"/><linearGradient id="bc52f775-aaaf-4b89-845a-70c3c82b172b" x1="348.33" y1="478.58" x2="372.76" y2="478.58" gradientTransform="matrix(-1, 0, 0, 1, 901.33, 0)" xlink:href="#a829d904-d16e-44aa-9e04-b2da42ad0525"/><linearGradient id="be9d03e3-3827-45ef-a3c2-a3dad8917e32" x1="302.92" y1="459.21" x2="332.73" y2="459.21" gradientTransform="matrix(-1, 0, 0, 1, 901.33, 0)" xlink:href="#a829d904-d16e-44aa-9e04-b2da42ad0525"/><linearGradient id="ab844d9d-223e-4061-8946-7219420841c7" x1="325.96" y1="498.29" x2="346.75" y2="498.29" gradientTransform="matrix(-1, 0, 0, 1, 901.33, 0)" xlink:href="#a829d904-d16e-44aa-9e04-b2da42ad0525"/><linearGradient id="aa309cc4-12a3-49c6-a71d-06557d40dc18" x1="362.08" y1="511.85" x2="380.99" y2="511.85" gradientTransform="matrix(-1, 0, 0, 1, 901.33, 0)" xlink:href="#a829d904-d16e-44aa-9e04-b2da42ad0525"/><linearGradient id="bf05afb3-6431-4af9-8368-45a3d17456b8" x1="392.14" y1="520.18" x2="409.56" y2="520.18" gradientTransform="matrix(-1, 0, 0, 1, 901.33, 0)" xlink:href="#a829d904-d16e-44aa-9e04-b2da42ad0525"/><linearGradient id="b391d7bc-6694-4aed-bb19-affd97642447" x1="377.26" y1="546.98" x2="394.68" y2="546.98" gradientTransform="matrix(-1, 0, 0, 1, 901.33, 0)" xlink:href="#a829d904-d16e-44aa-9e04-b2da42ad0525"/><linearGradient id="a338b170-d14f-4bf2-8926-fb569170c109" x1="344.59" y1="537.35" x2="362.01" y2="537.35" gradientTransform="matrix(-1, 0, 0, 1, 901.33, 0)" xlink:href="#a829d904-d16e-44aa-9e04-b2da42ad0525"/><linearGradient id="abfab0ae-f7d6-4af4-b360-fc0f40c7fe0b" x1="288.72" y1="413.49" x2="328.91" y2="413.49" gradientTransform="matrix(-1, 0, 0, 1, 901.33, 0)" xlink:href="#a829d904-d16e-44aa-9e04-b2da42ad0525"/><linearGradient id="b7e25773-877c-4b40-88cc-6db4732f9c80" x1="308.72" y1="517.3" x2="320.23" y2="517.3" gradientTransform="translate(260.54 -91.87)" xlink:href="#a829d904-d16e-44aa-9e04-b2da42ad0525"/><linearGradient id="bebe810b-da4d-42bc-819d-8377e2769b76" x1="327.25" y1="528.43" x2="337.4" y2="528.43" gradientTransform="translate(224.83 -91.87)" xlink:href="#a829d904-d16e-44aa-9e04-b2da42ad0525"/><linearGradient id="bb2d5fa2-f46e-4318-9efe-0519faf24717" x1="367.04" y1="543.69" x2="374.91" y2="543.69" gradientTransform="translate(147.53 -91.87)" xlink:href="#a829d904-d16e-44aa-9e04-b2da42ad0525"/><linearGradient id="b44f20ca-5643-4883-a219-e907459a5c89" x1="380.58" y1="516.77" x2="388.44" y2="516.77" gradientTransform="translate(116.54 -91.87)" xlink:href="#a829d904-d16e-44aa-9e04-b2da42ad0525"/><linearGradient id="e0d71d7a-a99e-4144-ac49-1299b06c7c8d" x1="350.29" y1="505.79" x2="358.16" y2="505.79" gradientTransform="translate(181.03 -91.87)" xlink:href="#a829d904-d16e-44aa-9e04-b2da42ad0525"/><linearGradient id="ea1199bf-4761-4ed1-bc35-4b5da18399ff" x1="335.27" y1="471.86" x2="346.79" y2="471.86" gradientTransform="translate(207.42 -91.87)" xlink:href="#a829d904-d16e-44aa-9e04-b2da42ad0525"/><linearGradient id="fb672c02-51ae-40e6-9f87-b33e107756d8" x1="374.85" y1="484.14" x2="383.37" y2="484.14" gradientTransform="translate(131.26 -91.87)" xlink:href="#a829d904-d16e-44aa-9e04-b2da42ad0525"/><linearGradient id="aae266e4-1ffd-4eba-82e8-5aac2e1b0092" x1="405.43" y1="491.39" x2="412.96" y2="491.39" gradientTransform="translate(71.09 -91.87)" xlink:href="#a829d904-d16e-44aa-9e04-b2da42ad0525"/><linearGradient id="ba4ca940-1982-448e-bd50-1afbc5c0d823" x1="416.05" y1="493.46" x2="422.91" y2="493.46" gradientTransform="translate(49.77 -91.87)" xlink:href="#a829d904-d16e-44aa-9e04-b2da42ad0525"/><linearGradient id="b3ce62de-e396-48af-9aed-4617e36baa04" x1="423.02" y1="467.24" x2="429.88" y2="467.24" gradientTransform="translate(30.08 -91.87)" xlink:href="#a829d904-d16e-44aa-9e04-b2da42ad0525"/><linearGradient id="aa325f56-5fe1-4686-9791-50e70993577d" x1="390.88" y1="453.65" x2="399.71" y2="453.65" gradientTransform="translate(98.9 -91.87)" xlink:href="#a829d904-d16e-44aa-9e04-b2da42ad0525"/><linearGradient id="ebd53355-15a5-4aa9-85d1-afb3ee3ed308" x1="334.52" y1="433.37" x2="351.78" y2="433.37" gradientTransform="translate(197.69 -91.87)" xlink:href="#a829d904-d16e-44aa-9e04-b2da42ad0525"/><linearGradient id="ad75c95c-dd70-4376-b817-20ce32eb8eda" x1="389.15" y1="293.91" x2="392.82" y2="293.91" gradientTransform="matrix(0, 1, 1, 0, 338.27, -294.96)" xlink:href="#a829d904-d16e-44aa-9e04-b2da42ad0525"/><linearGradient id="babcecf0-94b9-413b-80b4-093a86c85553" x1="386.85" y1="287.21" x2="390.73" y2="287.21" gradientTransform="matrix(0, 1, 1, 0, 337.91, -290.92)" xlink:href="#a829d904-d16e-44aa-9e04-b2da42ad0525"/><linearGradient id="a1a906b3-001a-466b-9e58-cc51161c02b9" x1="382.24" y1="285.79" x2="386.22" y2="285.79" gradientTransform="matrix(0, 1, 1, 0, 335.83, -289.57)" xlink:href="#a829d904-d16e-44aa-9e04-b2da42ad0525"/><linearGradient id="a3900029-8651-457b-9da4-b34fb0e2d2e3" x1="386.64" y1="281.76" x2="389.47" y2="281.76" gradientTransform="matrix(0, 1, 1, 0, 338.25, -287.86)" xlink:href="#a829d904-d16e-44aa-9e04-b2da42ad0525"/><linearGradient id="fe43b842-b5b3-4699-8ed7-8d520be8e540" x1="390.93" y1="278.46" x2="394.29" y2="278.46" gradientTransform="matrix(0, 1, 1, 0, 341.1, -286.76)" xlink:href="#a829d904-d16e-44aa-9e04-b2da42ad0525"/><linearGradient id="a2b33039-97db-4820-9c69-648a8d6f257c" x1="284.32" y1="102.32" x2="288.64" y2="102.32" gradientTransform="matrix(-1, 0, 0, 1, 889.49, -91.87)" xlink:href="#a829d904-d16e-44aa-9e04-b2da42ad0525"/><linearGradient id="a8eb493d-73c4-4701-866a-50a6eafcca59" x1="283.59" y1="97.47" x2="288.49" y2="97.47" gradientTransform="matrix(-1, 0, 0, 1, 889.49, -91.87)" xlink:href="#a829d904-d16e-44aa-9e04-b2da42ad0525"/><linearGradient id="b08a58fe-fa02-4441-8fe1-946181870d01" x1="567.23" y1="24.3" x2="567.19" y2="24.36" xlink:href="#a829d904-d16e-44aa-9e04-b2da42ad0525"/><linearGradient id="ef5e1d4e-9648-420b-808a-0bdaa6b0ea30" x1="11.85" y1="640.48" x2="92.41" y2="640.48" xlink:href="#a829d904-d16e-44aa-9e04-b2da42ad0525"/><linearGradient id="a26be6d3-8c5f-46fd-9b57-15c3cbb1c17b" x1="100.63" y1="648.03" x2="182.13" y2="648.03" xlink:href="#a829d904-d16e-44aa-9e04-b2da42ad0525"/><linearGradient id="fadb6ab9-cc49-42b1-af60-bdf411bb9577" x1="222.64" y1="640.48" x2="310.96" y2="640.48" xlink:href="#a829d904-d16e-44aa-9e04-b2da42ad0525"/><linearGradient id="fe5a2bf2-d61d-4292-bd9f-bc2c0fc57dcc" x1="318.07" y1="640.48" x2="330.37" y2="640.48" xlink:href="#a829d904-d16e-44aa-9e04-b2da42ad0525"/><linearGradient id="bc79a687-5b7c-4539-aea2-038b979593a4" x1="339.12" y1="648.03" x2="420.61" y2="648.03" xlink:href="#a829d904-d16e-44aa-9e04-b2da42ad0525"/><linearGradient id="b0fac40d-7229-49d7-912d-4c90d7486d9c" x1="428.95" y1="648.03" x2="505.2" y2="648.03" xlink:href="#a829d904-d16e-44aa-9e04-b2da42ad0525"/><linearGradient id="ef78208d-1a11-436c-a438-6977af2de4a7" x1="513.65" y1="648.03" x2="595.15" y2="648.03" xlink:href="#a829d904-d16e-44aa-9e04-b2da42ad0525"/><linearGradient id="b03bf80e-3414-4cd4-b059-c20393c3a1ce" x1="635.49" y1="640.48" x2="716.05" y2="640.48" xlink:href="#a829d904-d16e-44aa-9e04-b2da42ad0525"/><linearGradient id="a4b857be-75d4-4907-8526-6c0605b28af4" x1="722.41" y1="648.03" x2="798.66" y2="648.03" xlink:href="#a829d904-d16e-44aa-9e04-b2da42ad0525"/><linearGradient id="b25543dd-793a-4a2d-8d6d-57c97180f019" x1="806.41" y1="640.45" x2="842.03" y2="640.45" xlink:href="#a829d904-d16e-44aa-9e04-b2da42ad0525"/><linearGradient id="af262098-3193-4d7e-ac2d-4fbba28f5104" x1="845.41" y1="640.48" x2="890.88" y2="640.48" xlink:href="#a829d904-d16e-44aa-9e04-b2da42ad0525"/></defs><title>laplana</title><path class="e87e3e8b-58f7-4952-9b20-94b2aae93294" d="M489.05,535.72h14.67v22.62a4.11,4.11,0,0,1-.65.18c-83.16,19.62-170.36,3.24-209.79-43.86-56.62-67.62-14.6-196.19,93.87-287.77h0l0,0c.45-.37.88-.75,1.33-1.13q7.45-6.22,15-12l.13-.1.26-.2.13-.1c40.17-30.53,83-51.59,123.67-62.49-10.18,6.26-20.39,12.92-30.52,20a654.39,654.39,0,0,0-77.68,63.07l-.14.13-.26.23a466.51,466.51,0,0,0-34.09,35.23c-16.37,18.85-31.45,39.16-43.28,61.17-7.4,13.72-13.69,28.45-16.51,43.85v0c-5.42,23.6-3.21,44.68,8,61.51.28.44.56.84.83,1.24.38.55.77,1.08,1.17,1.62q1.19,1.59,2.49,3.09t2.7,2.91c12.63,12.66,31.49,19.78,54.71,21.71h.2c18.4,1.46,39.51-.3,62.5-5.15V506h31.19Z" transform="translate(-11.85 -91.87)"/><path class="f12a3463-0666-4b0a-835a-bf7bb75dab67" d="M614.92,100.43h0l-2,1.23v1.81h-4v-2.39c-.66.23-1.33.45-2,.7v2.85h-3.87v-1.46c-2.14.77-4.24,1.57-6.36,2.38-.57.2-1.15.44-1.71.65h3v4.18h-4.21V106.7c-.7.27-1.38.54-2.08.83V112H588v-3c-.7.27-1.41.55-2.11.84h1.23v4.51h-4.5v-3.16c-1.42.57-2.84,1.15-4.25,1.75H581v2.66h-2.66v-2.66a1.68,1.68,0,0,0-.34.15c-1.09.44-2.19.9-3.29,1.37h.62v1.83h-1.83V115c-29.28,12.44-57.94,26.74-85.74,42-29.06,15.94-56.27,34.94-82.36,55.33l-1.33,1-.13.1-.26.2-.13.1-.13.11c-5.47,4.28-10.86,8.62-16.24,13l0,0,0,0c-76.38,70.62-107.66,155.85-75.4,204.36l.91,1.33c15.81,22.72,45.1,33.72,82.5,34-23.22-1.93-42.08-9-54.71-21.71q-1.4-1.41-2.7-2.91t-2.49-3.09c-.4-.54-.79-1.07-1.17-1.62-.27-.4-.55-.8-.83-1.24-11.17-16.83-13.38-37.91-8-61.51v0c2.82-15.4,9.11-30.13,16.51-43.85,11.83-22,26.91-42.32,43.28-61.17a466.51,466.51,0,0,1,34.09-35.23l.26-.23.14-.13a.53.53,0,0,1,.14-.12q13.59-12.69,28.07-24.48c25-20.42,50.69-40.05,78-57.22.66-.41,1.3-.82,2-1.22,3.27-2,6.56-4.05,9.87-6,13.15-7.77,26.63-15.12,40.38-21.9h-1.2V120.7h2.23v1.72l1.73-.85,5-2.39h-1.9v-3.66h3.65v2.84l.93-.46v-4.13h3.18v2.67l.8-.36v-4.53h3.81v2.82l.65-.29s.05,0,.1,0l-.1-2.58h3.14v1.25l1.88-.83v-3.36h3.67v1.8l4.91-2c.42-.18.85-.33,1.3-.5,0,0,0-.09.06-.1h-.94v-2.94h2.44c.18-.34.35-.69.53-1,.56-1.08,1.13-2.13,1.68-3.21h0a.09.09,0,0,1,0-.08Zm-35.86,18.76h-3v-3h3l0,.07Zm4.07,1.1h-3.25V117h3.25Zm17.44-9.81H599v-1.55h1.57Zm.94-3.33h-2.09v-2.09h2.09Zm2.73.1H603V106h1.26Zm5.66,1.16h-3.36v-3.35h3.36Zm4.4-9.16a0,0,0,0,1,0,0l.41.62V99.1A4,4,0,0,0,614.3,99.25Z" transform="translate(-11.85 -91.87)"/><path class="b095ad0a-07b8-44dc-8659-89d6662c19aa" d="M526.55,431.7c-7.28,0-13.2,5.52-13.2,12.32v3c0,6.79,5.92,12.31,13.2,12.31s13.19-5.52,13.19-12.31v-3C539.74,437.22,533.81,431.7,526.55,431.7ZM534.72,447c0,4-3.67,7.29-8.17,7.29s-8.17-3.28-8.17-7.29v-3c0-4,3.65-7.29,8.17-7.29s8.17,3.27,8.17,7.29Z" transform="translate(-11.85 -91.87)"/><path class="a92ec944-dc49-44a1-8bc3-4e8a63a9e398" d="M489,451c-5.8,0-10.52,4.41-10.52,9.83v2.32c0,5.43,4.72,9.84,10.52,9.84s10.51-4.41,10.51-9.84v-2.32C499.52,455.37,494.8,451,489,451Zm6,12.15c0,3-2.7,5.38-6,5.38s-6.05-2.41-6.05-5.38v-2.32c0-3,2.72-5.38,6.05-5.38s6,2.41,6,5.38Z" transform="translate(-11.85 -91.87)"/><path class="a969df73-4eea-40ac-a89b-3e193d1691bd" d="M468,487.37a7.69,7.69,0,0,0-7.92,7.42v1.68a7.93,7.93,0,0,0,15.83,0v-1.68A7.69,7.69,0,0,0,468,487.37Zm4,9.1a4,4,0,0,1-8,0v-1.68a4,4,0,0,1,8,0Z" transform="translate(-11.85 -91.87)"/><path class="e4a464f2-ae87-4772-8337-ccb25962538b" d="M507.07,476.47c-5.71,0-10.34,4.34-10.34,9.67v2.28c0,5.34,4.63,9.67,10.34,9.67s10.33-4.33,10.33-9.67v-2.28C517.4,480.81,512.77,476.47,507.07,476.47Zm5.9,11.95c0,2.9-2.64,5.25-5.9,5.25s-5.92-2.35-5.92-5.25v-2.28c0-2.89,2.66-5.26,5.92-5.26s5.9,2.37,5.9,5.26Z" transform="translate(-11.85 -91.87)"/><path class="f3ee4da1-d2e4-42f2-a9e7-2ead47fb212f" d="M540.78,465.79c-6.74,0-12.21,5.11-12.21,11.41V480c0,6.28,5.47,11.41,12.21,11.41S553,486.24,553,480V477.2C553,470.9,547.52,465.79,540.78,465.79ZM548.17,480c0,3.64-3.31,6.59-7.39,6.59s-7.39-2.95-7.39-6.59V477.2c0-3.64,3.31-6.6,7.39-6.6s7.39,3,7.39,6.6Z" transform="translate(-11.85 -91.87)"/><path class="a51267cf-a6e6-4b96-abfa-7abfac68ebc5" d="M583.51,443.59c-8.21,0-14.91,6.23-14.91,13.9v3.43c0,7.67,6.7,13.9,14.91,13.9s14.9-6.23,14.9-13.9v-3.43C598.41,449.82,591.72,443.59,583.51,443.59ZM593,460.92c0,4.71-4.27,8.52-9.51,8.52s-9.52-3.81-9.52-8.52v-3.43c0-4.69,4.27-8.52,9.52-8.52s9.51,3.83,9.51,8.52Z" transform="translate(-11.85 -91.87)"/><path class="f57ff8df-2003-4b3b-b975-b3498bd45412" d="M565,487.41c-5.74,0-10.4,4.37-10.4,9.74v2.29c0,5.36,4.66,9.73,10.4,9.73s10.39-4.37,10.39-9.73v-2.29C575.37,491.78,570.71,487.41,565,487.41Zm5.95,12c0,2.92-2.66,5.29-5.95,5.29s-6-2.37-6-5.29v-2.29c0-2.93,2.67-5.31,6-5.31s5.95,2.38,5.95,5.31Z" transform="translate(-11.85 -91.87)"/><path class="fadd8bf0-8ce8-4954-bab1-88e703421762" d="M529.79,502c-5.21,0-9.45,4-9.45,8.86v2.06c0,4.88,4.24,8.85,9.45,8.85s9.46-4,9.46-8.85v-2.06C539.25,506,535,502,529.79,502ZM535,512.89c0,2.54-2.34,4.62-5.22,4.62s-5.21-2.08-5.21-4.62v-2.06c0-2.54,2.33-4.62,5.21-4.62s5.22,2.08,5.22,4.62Z" transform="translate(-11.85 -91.87)"/><path class="ac77b751-3af5-40fe-888f-86cc98cb2e7c" d="M500.48,511.07a8.47,8.47,0,0,0-8.71,8.17v1.87a8.73,8.73,0,0,0,17.42,0v-1.87A8.46,8.46,0,0,0,500.48,511.07Zm4.63,10a4.66,4.66,0,0,1-9.25,0v-1.87a4.66,4.66,0,0,1,9.25,0Z" transform="translate(-11.85 -91.87)"/><path class="b5aa33fc-8d9b-4fcd-859e-7dedc9147a4a" d="M515.36,537.88a8.46,8.46,0,0,0-8.71,8.17v1.87a8.73,8.73,0,0,0,17.42,0v-1.87A8.47,8.47,0,0,0,515.36,537.88Zm4.61,10a4.66,4.66,0,0,1-9.25,0v-1.87a4.66,4.66,0,0,1,9.25,0Z" transform="translate(-11.85 -91.87)"/><path class="acbe6cb9-05a6-421b-a93a-70a595535e13" d="M548,528.25a8.45,8.45,0,0,0-8.71,8.16v1.88a8.73,8.73,0,0,0,17.42,0v-1.88A8.47,8.47,0,0,0,548,528.25Zm4.62,10a4.66,4.66,0,0,1-9.25,0v-1.88a4.66,4.66,0,0,1,9.25,0Z" transform="translate(-11.85 -91.87)"/><path class="f626474c-6f09-4408-ac23-242a3ffb4ef4" d="M592.51,392.39c-11.08,0-20.09,8.4-20.09,18.73v4.74c0,10.33,9,18.72,20.09,18.72s20.1-8.39,20.1-18.72v-4.74C612.61,400.79,603.6,392.39,592.51,392.39Zm13.63,23.47c0,6.75-6.12,12.24-13.63,12.24s-13.62-5.49-13.62-12.24v-4.74c0-6.76,6.11-12.25,13.62-12.25s13.63,5.49,13.63,12.25Z" transform="translate(-11.85 -91.87)"/><polygon class="af8fb819-15f9-43a6-bf05-7d2ff0de92dd" points="569.26 412.87 569.26 418.1 575.54 418.1 575.54 438 580.77 438 580.77 418.1 580.77 412.87 575.54 412.87 569.26 412.87"/><polygon class="bea36024-d13d-42d2-995e-7ad4f49fde0c" points="552.08 425.48 552.08 430.09 557.63 430.09 557.63 447.64 562.23 447.64 562.23 430.09 562.23 425.48 557.63 425.48 552.08 425.48"/><polygon class="b603c304-ff90-44a5-8d3b-28e8359810c5" points="514.58 443.24 514.58 446.81 518.87 446.81 518.87 460.42 522.44 460.42 522.44 446.81 522.44 443.24 518.87 443.24 514.58 443.24"/><polygon class="b2151aba-35ff-41b5-af9a-87670decc63b" points="504.98 433.49 504.98 419.88 504.98 416.31 501.4 416.31 497.11 416.31 497.11 419.88 501.4 419.88 501.4 433.49 504.98 433.49"/><polygon class="ae804820-1d6f-4637-8833-dd5751bb7ce2" points="539.19 422.51 539.19 408.9 539.19 405.33 535.62 405.33 531.33 405.33 531.33 408.9 535.62 408.9 535.62 422.51 539.19 422.51"/><polygon class="bcb89a84-c58f-402c-a137-ffef4239cccc" points="548.98 392.56 554.21 392.56 554.21 372.65 554.21 367.43 548.98 367.43 542.7 367.43 542.7 372.65 548.98 372.65 548.98 392.56"/><polygon class="a8897cbf-5171-438d-997d-7aca92ba5eda" points="514.63 401.57 514.63 386.84 514.63 382.97 510.76 382.97 506.11 382.97 506.11 386.84 510.76 386.84 510.76 401.57 514.63 401.57"/><polygon class="b98fcd60-66a6-408e-8548-89312927537d" points="476.52 391.3 476.52 394.72 480.63 394.72 480.63 407.75 484.05 407.75 484.05 394.72 484.05 391.3 480.63 391.3 476.52 391.3"/><polygon class="b5f5b2c0-63c4-47e8-97df-b606c4b85bef" points="465.82 394.1 465.82 397.22 469.57 397.22 469.57 409.08 472.68 409.08 472.68 397.22 472.68 394.1 469.57 394.1 465.82 394.1"/><polygon class="bfee392a-7070-4993-870d-7a2f2d3ec807" points="456.85 382.86 459.97 382.86 459.97 371 459.97 367.88 456.85 367.88 453.1 367.88 453.1 371 456.85 371 456.85 382.86"/><polygon class="a4d4d34d-cfd4-4668-acc5-10d187ea70b7" points="494.6 371.42 498.61 371.42 498.61 356.15 498.61 352.14 494.6 352.14 489.78 352.14 489.78 356.15 494.6 356.15 494.6 371.42"/><polygon class="ebdac717-6134-4bef-901b-260d3d70e7ff" points="541.63 360.35 549.47 360.35 549.47 330.5 549.47 322.65 541.63 322.65 532.21 322.65 532.21 330.5 541.63 330.5 541.63 360.35"/><rect class="face39ee-5c43-4052-881b-41ded8364355" x="630.28" y="94.2" width="3.66" height="3.67" transform="matrix(0.85, -0.53, 0.53, 0.85, 33.34, 257.76)"/><rect class="f4d3c8de-cbdc-4dbc-929d-ff0ed723868c" x="623.33" y="95.78" width="3.87" height="3.87" transform="translate(31.28 254.08) rotate(-31.98)"/><rect class="eabcee8a-a939-4cac-ac6c-08cd0c1491f5" x="619.67" y="92.62" width="3.98" height="3.98" transform="matrix(0.85, -0.53, 0.53, 0.85, 32.45, 251.87)"/><rect class="e5bee92b-52d8-40bd-82bb-72c855cdb65e" x="618.85" y="98.57" width="2.83" height="2.83" transform="translate(29.25 251.62) rotate(-31.96)"/><rect class="a79505bc-f9ef-4c75-8484-5b5ac970c820" x="618.2" y="103.92" width="3.35" height="3.35" transform="translate(26.19 252.18) rotate(-31.95)"/><polygon class="af629bc8-1297-4da4-bddc-c9dbfbc27264" points="600.85 9.95 601.08 10.3 602.05 11.86 602.5 12.61 605.17 10.96 603.74 8.64 603.69 8.57 603.51 8.29 603.06 8.57 601.08 9.8 600.85 9.95"/><polygon class="f1f18865-2386-48d9-b778-825c5e74670d" points="601 5.03 602.46 7.39 602.86 8.02 602.88 8.07 605.9 6.18 604.01 3.14 601 5.03"/><polygon class="eaa84677-c380-4bb7-b621-ef72bc8495a0" points="567.22 24.3 567.22 24.37 567.19 24.3 567.22 24.3"/><path class="b76dd002-d112-44f2-a89e-fb19fbea9786" d="M14,746.64a16.23,16.23,0,0,0,8.2,2.31c4.68,0,7.41-2.47,7.41-6,0-3.32-1.89-5.21-6.67-7-5.78-2.05-9.36-5-9.36-10,0-5.52,4.57-9.61,11.46-9.61a16,16,0,0,1,7.83,1.73l-1.26,3.73A14.13,14.13,0,0,0,24.87,720c-4.83,0-6.67,2.89-6.67,5.31,0,3.31,2.15,4.94,7,6.83,6,2.31,9,5.2,9,10.41,0,5.46-4.05,10.19-12.4,10.19a18.3,18.3,0,0,1-9-2.26Z" transform="translate(-11.85 -91.87)"/><path class="b76dd002-d112-44f2-a89e-fb19fbea9786" d="M66,739.28c0,9.41-6.52,13.51-12.67,13.51-6.88,0-12.19-5-12.19-13.09,0-8.52,5.57-13.51,12.61-13.51C61,726.19,66,731.5,66,739.28Zm-20.18.26c0,5.57,3.2,9.78,7.72,9.78s7.73-4.15,7.73-9.88c0-4.31-2.16-9.78-7.62-9.78S45.79,734.71,45.79,739.54Z" transform="translate(-11.85 -91.87)"/><path class="b76dd002-d112-44f2-a89e-fb19fbea9786" d="M74.53,752.21V730.29H71v-3.52h3.57v-1.21c0-3.58.79-6.83,3-8.88a8.8,8.8,0,0,1,6.2-2.37,10.64,10.64,0,0,1,3.94.74L87,718.62a7,7,0,0,0-2.94-.58c-4,0-5,3.47-5,7.36v1.37h6.15v3.52H79.1v21.92Z" transform="translate(-11.85 -91.87)"/><path class="b76dd002-d112-44f2-a89e-fb19fbea9786" d="M97.81,719.46v7.31h6.63v3.52H97.81V744c0,3.15.9,4.94,3.47,4.94a10.15,10.15,0,0,0,2.68-.32l.21,3.47a11.26,11.26,0,0,1-4.1.63,6.41,6.41,0,0,1-5-1.94c-1.31-1.37-1.79-3.63-1.79-6.62V730.29H89.35v-3.52h3.94v-6.1Z" transform="translate(-11.85 -91.87)"/><path class="b76dd002-d112-44f2-a89e-fb19fbea9786" d="M114.21,726.77l3.36,12.93c.74,2.84,1.42,5.47,1.89,8.09h.16c.58-2.57,1.42-5.31,2.26-8l4.15-13h3.89l4,12.72c.94,3,1.68,5.73,2.26,8.3h.15a77.22,77.22,0,0,1,1.95-8.25l3.62-12.77h4.58l-8.2,25.44H134l-3.89-12.14a85.45,85.45,0,0,1-2.26-8.36h-.1a75.61,75.61,0,0,1-2.31,8.41l-4.1,12.09h-4.21l-7.67-25.44Z" transform="translate(-11.85 -91.87)"/><path class="b76dd002-d112-44f2-a89e-fb19fbea9786" d="M167.18,752.21l-.37-3.21h-.15a9.48,9.48,0,0,1-7.78,3.79c-5.15,0-7.78-3.63-7.78-7.31,0-6.15,5.46-9.51,15.29-9.46v-.53c0-2.1-.57-5.88-5.78-5.88A12.65,12.65,0,0,0,154,731.5l-1.05-3a15.75,15.75,0,0,1,8.36-2.26c7.77,0,9.67,5.31,9.67,10.41v9.51a35.41,35.41,0,0,0,.42,6.1Zm-.68-13c-5.05-.1-10.78.79-10.78,5.74a4.1,4.1,0,0,0,4.37,4.41,6.33,6.33,0,0,0,6.15-4.26,5.06,5.06,0,0,0,.26-1.47Z" transform="translate(-11.85 -91.87)"/><path class="b76dd002-d112-44f2-a89e-fb19fbea9786" d="M180.69,734.71c0-3-.06-5.58-.21-7.94h4l.16,5h.21c1.16-3.42,3.94-5.57,7-5.57a4.82,4.82,0,0,1,1.32.16v4.36a7.33,7.33,0,0,0-1.58-.16c-3.26,0-5.57,2.47-6.2,5.94a12.55,12.55,0,0,0-.21,2.16v13.56h-4.57Z" transform="translate(-11.85 -91.87)"/><path class="b76dd002-d112-44f2-a89e-fb19fbea9786" d="M202.18,740.33c.11,6.25,4.1,8.83,8.73,8.83a16.84,16.84,0,0,0,7-1.31l.79,3.31a20.76,20.76,0,0,1-8.47,1.57c-7.83,0-12.5-5.15-12.5-12.82s4.52-13.72,11.93-13.72c8.3,0,10.51,7.31,10.51,12a17.85,17.85,0,0,1-.16,2.16ZM215.74,737c0-2.95-1.21-7.52-6.41-7.52-4.68,0-6.73,4.31-7.1,7.52Z" transform="translate(-11.85 -91.87)"/><path class="b76dd002-d112-44f2-a89e-fb19fbea9786" d="M243.28,726.77l5.57,15c.57,1.68,1.21,3.68,1.63,5.2h.1c.47-1.52,1-3.46,1.63-5.3l5-14.93h4.88l-6.93,18.13c-3.31,8.73-5.57,13.19-8.73,15.93a12.49,12.49,0,0,1-5.67,3l-1.16-3.89a12,12,0,0,0,4-2.26,14.1,14.1,0,0,0,3.89-5.15,3.25,3.25,0,0,0,.36-1.1,4,4,0,0,0-.31-1.21l-9.41-23.44Z" transform="translate(-11.85 -91.87)"/><path class="b76dd002-d112-44f2-a89e-fb19fbea9786" d="M281.53,746.64a16.23,16.23,0,0,0,8.2,2.31c4.68,0,7.41-2.47,7.41-6,0-3.32-1.89-5.21-6.67-7-5.78-2.05-9.36-5-9.36-10,0-5.52,4.58-9.61,11.46-9.61a16,16,0,0,1,7.83,1.73l-1.26,3.73a14.13,14.13,0,0,0-6.73-1.68c-4.83,0-6.67,2.89-6.67,5.31,0,3.31,2.15,4.94,7,6.83,6,2.31,9,5.2,9,10.41,0,5.46-4.05,10.19-12.4,10.19a18.3,18.3,0,0,1-9-2.26Z" transform="translate(-11.85 -91.87)"/><path class="b76dd002-d112-44f2-a89e-fb19fbea9786" d="M333.51,739.28c0,9.41-6.52,13.51-12.67,13.51-6.88,0-12.19-5-12.19-13.09,0-8.52,5.57-13.51,12.61-13.51C328.57,726.19,333.51,731.5,333.51,739.28Zm-20.18.26c0,5.57,3.2,9.78,7.72,9.78s7.73-4.15,7.73-9.88c0-4.31-2.15-9.78-7.62-9.78S313.33,734.71,313.33,739.54Z" transform="translate(-11.85 -91.87)"/><path class="b76dd002-d112-44f2-a89e-fb19fbea9786" d="M341.6,714.89h4.62v37.32H341.6Z" transform="translate(-11.85 -91.87)"/><path class="b76dd002-d112-44f2-a89e-fb19fbea9786" d="M377.55,745.27c0,2.63.05,4.94.21,6.94h-4.1l-.26-4.15h-.11a9.59,9.59,0,0,1-8.41,4.73c-4,0-8.78-2.21-8.78-11.15V726.77h4.63v14.08c0,4.84,1.47,8.1,5.68,8.1a6.68,6.68,0,0,0,6.09-4.21,6.57,6.57,0,0,0,.42-2.36V726.77h4.63Z" transform="translate(-11.85 -91.87)"/><path class="b76dd002-d112-44f2-a89e-fb19fbea9786" d="M405.61,751.26a17.07,17.07,0,0,1-7.31,1.47c-7.67,0-12.66-5.2-12.66-13s5.36-13.51,13.66-13.51a15.51,15.51,0,0,1,6.42,1.32l-1.06,3.57a10.7,10.7,0,0,0-5.36-1.21c-5.83,0-9,4.31-9,9.62,0,5.89,3.78,9.51,8.83,9.51a13.1,13.1,0,0,0,5.67-1.26Z" transform="translate(-11.85 -91.87)"/><path class="b76dd002-d112-44f2-a89e-fb19fbea9786" d="M418.43,719.62a2.87,2.87,0,0,1-5.73,0,2.82,2.82,0,0,1,2.89-2.89A2.74,2.74,0,0,1,418.43,719.62Zm-5.15,32.59V726.77h4.63v25.44Z" transform="translate(-11.85 -91.87)"/><path class="b76dd002-d112-44f2-a89e-fb19fbea9786" d="M450.86,739.28c0,9.41-6.52,13.51-12.67,13.51-6.88,0-12.19-5-12.19-13.09,0-8.52,5.57-13.51,12.61-13.51C445.92,726.19,450.86,731.5,450.86,739.28Zm-20.18.26c0,5.57,3.2,9.78,7.72,9.78s7.73-4.15,7.73-9.88c0-4.31-2.16-9.78-7.62-9.78S430.68,734.71,430.68,739.54Z" transform="translate(-11.85 -91.87)"/><path class="b76dd002-d112-44f2-a89e-fb19fbea9786" d="M459,733.65c0-2.62-.06-4.78-.21-6.88h4.1l.26,4.2h.11a9.34,9.34,0,0,1,8.4-4.78c3.53,0,9,2.1,9,10.83v15.19H476V737.54c0-4.1-1.53-7.51-5.89-7.51a6.8,6.8,0,0,0-6.52,6.88v15.3H459Z" transform="translate(-11.85 -91.87)"/><path class="b76dd002-d112-44f2-a89e-fb19fbea9786" d="M493,740.33c.1,6.25,4.1,8.83,8.72,8.83a16.85,16.85,0,0,0,7.05-1.31l.79,3.31a20.76,20.76,0,0,1-8.47,1.57c-7.83,0-12.51-5.15-12.51-12.82s4.52-13.72,11.94-13.72c8.3,0,10.51,7.31,10.51,12a17.85,17.85,0,0,1-.16,2.16ZM506.51,737c.05-2.95-1.21-7.52-6.41-7.52-4.68,0-6.73,4.31-7.1,7.52Z" transform="translate(-11.85 -91.87)"/><path class="b76dd002-d112-44f2-a89e-fb19fbea9786" d="M518.33,747.48a12.19,12.19,0,0,0,6.1,1.84c3.36,0,4.94-1.69,4.94-3.79s-1.31-3.41-4.73-4.68c-4.57-1.63-6.73-4.15-6.73-7.2,0-4.1,3.31-7.46,8.78-7.46a12.71,12.71,0,0,1,6.25,1.58l-1.15,3.36a9.92,9.92,0,0,0-5.21-1.47c-2.73,0-4.25,1.58-4.25,3.47,0,2.1,1.52,3,4.83,4.31,4.42,1.68,6.68,3.89,6.68,7.67,0,4.47-3.47,7.62-9.52,7.62a14.48,14.48,0,0,1-7.14-1.73Z" transform="translate(-11.85 -91.87)"/><path class="b76dd002-d112-44f2-a89e-fb19fbea9786" d="M573.94,735.6H560.16v12.77h15.35v3.84H555.59V716.78h19.13v3.84H560.16v11.19h13.78Z" transform="translate(-11.85 -91.87)"/><path class="b76dd002-d112-44f2-a89e-fb19fbea9786" d="M583.55,733.65c0-2.62-.06-4.78-.21-6.88h4l.21,4.1h.16a8.77,8.77,0,0,1,8-4.68,7.51,7.51,0,0,1,7.2,5.1h.11a10.4,10.4,0,0,1,2.84-3.31,8.64,8.64,0,0,1,5.62-1.79c3.36,0,8.36,2.21,8.36,11v15h-4.52V737.8c0-4.88-1.79-7.83-5.52-7.83a6,6,0,0,0-5.47,4.21,7.61,7.61,0,0,0-.37,2.31v15.72h-4.52V737c0-4-1.78-7-5.3-7-2.9,0-5,2.32-5.73,4.63a6.2,6.2,0,0,0-.37,2.26v15.35h-4.52Z" transform="translate(-11.85 -91.87)"/><path class="b76dd002-d112-44f2-a89e-fb19fbea9786" d="M629.64,735.07c0-3.26-.11-5.88-.21-8.3h4.15l.21,4.36h.1a10,10,0,0,1,9-4.94c6.15,0,10.78,5.2,10.78,12.93,0,9.15-5.57,13.67-11.56,13.67a9,9,0,0,1-7.84-4h-.1v13.83h-4.57Zm4.57,6.78a10,10,0,0,0,.21,1.9,7.14,7.14,0,0,0,6.94,5.41c4.89,0,7.72-4,7.72-9.83,0-5.1-2.68-9.46-7.56-9.46a8,8,0,0,0-7.31,7.62Z" transform="translate(-11.85 -91.87)"/><path class="b76dd002-d112-44f2-a89e-fb19fbea9786" d="M661.8,734.71c0-3,0-5.58-.21-7.94h4l.15,5H666c1.16-3.42,3.94-5.57,7-5.57a4.8,4.8,0,0,1,1.31.16v4.36a7.26,7.26,0,0,0-1.58-.16c-3.25,0-5.57,2.47-6.2,5.94a13.63,13.63,0,0,0-.21,2.16v13.56H661.8Z" transform="translate(-11.85 -91.87)"/><path class="b76dd002-d112-44f2-a89e-fb19fbea9786" d="M683.29,740.33c.11,6.25,4.1,8.83,8.73,8.83a16.8,16.8,0,0,0,7-1.31l.79,3.31a20.74,20.74,0,0,1-8.46,1.57c-7.84,0-12.51-5.15-12.51-12.82s4.52-13.72,11.93-13.72c8.3,0,10.51,7.31,10.51,12a16,16,0,0,1-.16,2.16ZM696.85,737c.06-2.95-1.21-7.52-6.41-7.52-4.68,0-6.73,4.31-7.1,7.52Z" transform="translate(-11.85 -91.87)"/><path class="b76dd002-d112-44f2-a89e-fb19fbea9786" d="M708.67,747.48a12.19,12.19,0,0,0,6.1,1.84c3.37,0,4.94-1.69,4.94-3.79s-1.31-3.41-4.73-4.68c-4.57-1.63-6.73-4.15-6.73-7.2,0-4.1,3.32-7.46,8.78-7.46a12.72,12.72,0,0,1,6.26,1.58l-1.16,3.36a9.91,9.91,0,0,0-5.2-1.47c-2.74,0-4.26,1.58-4.26,3.47,0,2.1,1.52,3,4.83,4.31,4.42,1.68,6.68,3.89,6.68,7.67,0,4.47-3.47,7.62-9.51,7.62a14.52,14.52,0,0,1-7.15-1.73Z" transform="translate(-11.85 -91.87)"/><path class="b76dd002-d112-44f2-a89e-fb19fbea9786" d="M746.46,752.21l-.37-3.21h-.15a9.48,9.48,0,0,1-7.78,3.79c-5.15,0-7.78-3.63-7.78-7.31,0-6.15,5.46-9.51,15.29-9.46v-.53c0-2.1-.58-5.88-5.78-5.88a12.65,12.65,0,0,0-6.62,1.89l-1-3a15.75,15.75,0,0,1,8.36-2.26c7.77,0,9.67,5.31,9.67,10.41v9.51a35.41,35.41,0,0,0,.42,6.1Zm-.68-13c-5-.1-10.78.79-10.78,5.74a4.1,4.1,0,0,0,4.37,4.41,6.33,6.33,0,0,0,6.15-4.26,5.06,5.06,0,0,0,.26-1.47Z" transform="translate(-11.85 -91.87)"/><path class="b76dd002-d112-44f2-a89e-fb19fbea9786" d="M760,734.71c0-3-.06-5.58-.21-7.94h4l.16,5h.21c1.16-3.42,3.94-5.57,7-5.57a4.82,4.82,0,0,1,1.32.16v4.36a7.33,7.33,0,0,0-1.58-.16c-3.26,0-5.57,2.47-6.2,5.94a12.55,12.55,0,0,0-.21,2.16v13.56H760Z" transform="translate(-11.85 -91.87)"/><path class="b76dd002-d112-44f2-a89e-fb19fbea9786" d="M784.77,719.62a2.87,2.87,0,0,1-5.73,0,2.82,2.82,0,0,1,2.89-2.89A2.74,2.74,0,0,1,784.77,719.62Zm-5.15,32.59V726.77h4.62v25.44Z" transform="translate(-11.85 -91.87)"/><path class="b76dd002-d112-44f2-a89e-fb19fbea9786" d="M808.26,752.21l-.37-3.21h-.15a9.48,9.48,0,0,1-7.78,3.79c-5.15,0-7.78-3.63-7.78-7.31,0-6.15,5.47-9.51,15.3-9.46v-.53c0-2.1-.58-5.88-5.79-5.88a12.65,12.65,0,0,0-6.62,1.89l-1.05-3a15.75,15.75,0,0,1,8.36-2.26c7.78,0,9.67,5.31,9.67,10.41v9.51a35.41,35.41,0,0,0,.42,6.1Zm-.68-13c-5.05-.1-10.78.79-10.78,5.74a4.1,4.1,0,0,0,4.37,4.41,6.33,6.33,0,0,0,6.15-4.26,4.74,4.74,0,0,0,.26-1.47Z" transform="translate(-11.85 -91.87)"/><path class="b76dd002-d112-44f2-a89e-fb19fbea9786" d="M821.77,714.89h4.62v37.32h-4.62Z" transform="translate(-11.85 -91.87)"/><path class="b76dd002-d112-44f2-a89e-fb19fbea9786" d="M839,740.33c.11,6.25,4.1,8.83,8.73,8.83a16.8,16.8,0,0,0,7-1.31l.79,3.31a20.74,20.74,0,0,1-8.46,1.57c-7.83,0-12.51-5.15-12.51-12.82s4.52-13.72,11.93-13.72c8.3,0,10.51,7.31,10.51,12a18.3,18.3,0,0,1-.15,2.16ZM852.56,737c.06-2.95-1.2-7.52-6.41-7.52-4.68,0-6.73,4.31-7.09,7.52Z" transform="translate(-11.85 -91.87)"/><path class="b76dd002-d112-44f2-a89e-fb19fbea9786" d="M864.39,747.48a12.12,12.12,0,0,0,6.09,1.84c3.37,0,4.94-1.69,4.94-3.79s-1.31-3.41-4.73-4.68c-4.57-1.63-6.73-4.15-6.73-7.2,0-4.1,3.32-7.46,8.78-7.46a12.72,12.72,0,0,1,6.26,1.58l-1.16,3.36a9.91,9.91,0,0,0-5.2-1.47c-2.73,0-4.26,1.58-4.26,3.47,0,2.1,1.53,3,4.84,4.31,4.41,1.68,6.67,3.89,6.67,7.67,0,4.47-3.47,7.62-9.51,7.62a14.52,14.52,0,0,1-7.15-1.73Z" transform="translate(-11.85 -91.87)"/><path class="a7ab9077-27dd-4ee1-a3aa-2b84f38e2562" d="M92.41,671.38q0,4.61-4.55,4.6H46.36q-14.23,0-22.21-2.56-12.3-4.26-12.3-16.15V609.53c0-3,1.51-4.55,4.54-4.55a26.21,26.21,0,0,1,5.6.35c1.86.54,2.8,1.94,2.8,4.2v47.74q0,5.54,9,7.29,2.87.75,13.3.75h40.8Q92.41,665.31,92.41,671.38Z" transform="translate(-11.85 -91.87)"/><path class="acb32d8e-55de-46cc-aebd-956635c6c2ad" d="M182.13,659.19q0,16.8-25.19,16.79H126.86a36.76,36.76,0,0,1-16.73-3.55q-9.5-4.56-9.5-12.65v-7.12q0-8.74,9-13.11,6.69-3.39,16.78-3.38h43.49q-1-5.89-16.67-5.89l-1.54,0-2.07.08a1.42,1.42,0,0,1-.59.06h-2.91q-4.54,0-4.55-5.77,0-4.6,4.55-4.6,14.75,0,22.56,2,13.41,3.78,13.41,15.15Zm-12.07-2.91q0-.82,0-2c0-.82-.05-1.77-.09-2.86s-.07-2-.08-2.86,0-1.49,0-2H126.16a24.49,24.49,0,0,0-7.93,1.4c-3.53,1.21-5.3,2.78-5.3,4.73v7q0,3.09,5.48,4.72a23.34,23.34,0,0,0,8.1,1.28h30.55c4.59,0,7.73-.44,9.44-1.34Q170.06,662.52,170.06,656.28Z" transform="translate(-11.85 -91.87)"/><path class="ab4beba7-857d-4b61-a989-2579cbec550d" d="M311,631.79q0,10.68-10.61,15.39-8.22,3.45-19.82,3.44H235.58v20.76q0,3.32-2.79,4.19c-.51.28-2.38.41-5.6.41q-4.55,0-4.55-4.6V609.53c0-3,1.52-4.55,4.55-4.55h53.92q11,0,18.6,3Q311,612.21,311,620.78Zm-12.83-.44v-9.66q0-6.16-16.9-6.16H235.58V640h45.71Q298.14,640,298.13,631.35Z" transform="translate(-11.85 -91.87)"/><path class="fb9304f4-802c-48d2-9d1b-9e0afc19e0fb" d="M330.37,671.38c0,3.07-1.51,4.6-4.55,4.6s-4.74-.13-5.24-.41q-2.5-.93-2.51-4.19V609.53c0-3,1.52-4.55,4.55-4.55a22.65,22.65,0,0,1,5.3.35c1.64.54,2.45,1.94,2.45,4.2Z" transform="translate(-11.85 -91.87)"/><path class="a8f26f69-a04e-4a24-a07d-2a6ef8428faa" d="M420.61,659.19q0,16.8-25.18,16.79H365.35a36.76,36.76,0,0,1-16.73-3.55q-9.51-4.56-9.5-12.65v-7.12q0-8.74,9-13.11,6.71-3.39,16.79-3.38h43.49q-1-5.89-16.67-5.89l-1.55,0-2.07.08a1.36,1.36,0,0,1-.58.06h-2.92q-4.54,0-4.54-5.77,0-4.6,4.54-4.6,14.76,0,22.57,2,13.4,3.78,13.4,15.15Zm-12.06-2.91q0-.82,0-2c0-.82,0-1.77-.09-2.86s-.07-2-.09-2.86,0-1.49,0-2H364.65a24.44,24.44,0,0,0-7.93,1.4c-3.54,1.21-5.3,2.78-5.3,4.73v7c0,2.06,1.82,3.63,5.48,4.72a23.34,23.34,0,0,0,8.1,1.28h30.55c4.58,0,7.73-.44,9.44-1.34Q408.55,662.52,408.55,656.28Z" transform="translate(-11.85 -91.87)"/><path class="b5e42a0a-f4e7-4960-a23c-ce8d2092514c" d="M505.2,671.38q0,4.61-4.61,4.6c-3,0-4.8-.13-5.3-.41q-2.51-.87-2.51-4.19V635.82q0-3.8-6.29-5a23.27,23.27,0,0,0-3.41-.32c-1.54-.06-3.47-.09-5.81-.09H456.06q-3.21,0-5.4.12a28.78,28.78,0,0,0-3.47.35q-5.94,1.17-5.94,5v35.5q0,4.61-4.55,4.6c-3,0-4.8-.13-5.3-.41q-2.44-.87-2.45-4.19V636q0-15.91,28.21-15.91h20.11q27.93,0,27.93,15.8Z" transform="translate(-11.85 -91.87)"/><path class="b2174b46-89c4-4df0-8887-239d02f1bedb" d="M595.15,659.19Q595.15,676,570,676H539.88a36.79,36.79,0,0,1-16.73-3.55q-9.49-4.56-9.5-12.65v-7.12q0-8.74,9-13.11,6.7-3.39,16.79-3.38H583q-1-5.89-16.67-5.89l-1.54,0-2.07.08a1.39,1.39,0,0,1-.59.06h-2.91q-4.54,0-4.55-5.77,0-4.6,4.55-4.6,14.75,0,22.56,2,13.41,3.78,13.41,15.15Zm-12.07-2.91q0-.82,0-2c0-.82,0-1.77-.09-2.86s-.06-2-.08-2.86,0-1.49,0-2H539.18a24.43,24.43,0,0,0-7.92,1.4c-3.54,1.21-5.31,2.78-5.31,4.73v7q0,3.09,5.48,4.72a23.36,23.36,0,0,0,8.11,1.28h30.54c4.59,0,7.73-.44,9.45-1.34Q583.09,662.52,583.08,656.28Z" transform="translate(-11.85 -91.87)"/><path class="b44cd90b-978b-484c-8784-ba0e80d10398" d="M716.05,658.38q0,5.72-1.8,8.92Q709.41,676,685,676H640.15q-4.49,0-4.49-4.6a9.72,9.72,0,0,1,.7-4.38c.66-1.12,1.93-1.69,3.79-1.69H685q18.13,0,18.13-6.7v-6.12q0-6.53-17.55-7.11l-21.51-.7-4.28-.21c-1.85-.09-4.11-.24-6.79-.43a24.14,24.14,0,0,1-12-4.61,13.23,13.23,0,0,1-5.48-11v-5.36q0-12.42,13.76-16.38,6.59-1.7,24.13-1.69,4.54,0,4.55,5.94c0,2.3-.92,3.74-2.74,4.32a30,30,0,0,1-5.54.23q-21.23,0-21.22,7.46v5q0,4.61,7.93,6a33.54,33.54,0,0,0,4.4.44q2.88.15,7.08.15h17.32q12.4,0,19.58,3.2,11.31,4.67,11.31,14.34Z" transform="translate(-11.85 -91.87)"/><path class="a99ac951-8b52-4958-99ae-7ed11d89285e" d="M798.66,658.61q0,9.55-9.45,14Q782.52,676,771.38,676H750.92a47,47,0,0,1-18.37-3.44q-10.14-4.54-10.14-13.93V638q0-9.37,10.08-14.22,7.41-3.73,18.37-3.73h20.52q27.27,0,27.28,17.84Zm-12.48,0V637.1q0-6.65-15.15-6.65H751a33.39,33.39,0,0,0-10,1.4q-6.29,2-6.29,6.18v20.58q0,4,6.41,5.83a36.12,36.12,0,0,0,10,1.22h20a29.32,29.32,0,0,0,9.16-1.4Q786.18,662.34,786.18,658.61Z" transform="translate(-11.85 -91.87)"/><path class="a2719cef-6084-494b-920d-4c03cd0fa42d" d="M842,625.09q0,5.71-4.55,5.71H818.71v40.58q0,4.61-4.54,4.6c-3,0-4.81-.13-5.31-.41q-2.45-.87-2.45-4.19v-50q0-16.5,27.58-16.5c3.14,0,5.11.17,5.88.52q2.16,1,2.16,5.19,0,4.54-4.55,4.55a101.57,101.57,0,0,0-10.78.35q-7.82,1.17-7.81,5h18.59Q842,620.54,842,625.09Z" transform="translate(-11.85 -91.87)"/><path class="f8f4340d-ade3-4202-a6e1-d5b21b6e4e52" d="M890.88,626.26q0,4.54-4.6,4.54H866.81v40.58q0,4.61-4.55,4.6c-3,0-4.74-.13-5.25-.41q-2.5-.93-2.51-4.19V630.8c-1.63,0-3,0-4-.08a19.53,19.53,0,0,1-2.18-.21q-2.93-1-2.92-4.84t2.92-4.84c.42-.07,1.15-.14,2.18-.2s2.36-.09,4-.09v-11c0-3,1.52-4.55,4.55-4.55s4.74.14,5.25.41q2.51.87,2.51,4.14v11h19.47Q890.89,620.54,890.88,626.26Z" transform="translate(-11.85 -91.87)"/></svg>